<?xml version="1.0" encoding="utf-8"?>
<!-- Generator: Adobe Illustrator 27.1.1, SVG Export Plug-In . SVG Version: 6.00 Build 0)  -->
<svg version="1.1" id="Layer_1" xmlns="http://www.w3.org/2000/svg" xmlns:xlink="http://www.w3.org/1999/xlink" x="0px" y="0px"
	 viewBox="0 0 1366 337" style="enable-background:new 0 0 1366 337;" xml:space="preserve">
<style type="text/css">
	.st0{fill:#003462;}
	.st1{fill:#FFFFFF;}
	.st2{fill:#002C4C;}
	.st3{fill:#FDB740;}
</style>
<g>
	<path d="M354.11,257.26l0.18-46.08h121.32v46.08h-7.74l-7.56-33.48h-90.9l-7.56,33.48H354.11z M376.07,214.96l-15.3-1.8
		c5.76-5.16,10.5-11.76,14.22-19.8c3.72-8.04,6.72-17.76,9-29.16c2.28-11.4,4.02-24.66,5.22-39.78l0.54-8.28l-24.3-4.32v-7.02
		h109.08v6.48c-2.4,0.96-5.07,1.8-8.01,2.52c-2.94,0.72-6.45,1.38-10.53,1.98v98.46h-20.52l1.8-96.84h-34.2
		c-0.96,17.64-2.43,32.67-4.41,45.09c-1.98,12.42-4.77,22.89-8.37,31.41C386.69,202.42,381.95,209.44,376.07,214.96z"/>
	<path d="M528.71,225.4c-7.8,0-14.58-1.86-20.34-5.58c-5.76-3.72-10.23-8.94-13.41-15.66c-3.18-6.72-4.77-14.58-4.77-23.58
		c0-9.24,1.68-17.4,5.04-24.48c3.36-7.08,8.13-12.63,14.31-16.65c6.18-4.02,13.41-6.03,21.69-6.03c6.72,0,12.6,1.38,17.64,4.14
		c5.04,2.76,8.94,6.66,11.7,11.7c2.76,5.04,4.14,10.92,4.14,17.64l-0.54,11.88c-7.32,1.32-14.25,2.37-20.79,3.15
		c-6.54,0.78-13.2,1.38-19.98,1.8c-6.78,0.42-14.13,0.81-22.05,1.17l0.18-10.62l45.72-0.36l0.36-7.56c0-6.24-1.65-11.16-4.95-14.76
		c-3.3-3.6-7.77-5.4-13.41-5.4c-2.4,0-4.86,0.36-7.38,1.08c-2.52,0.72-4.98,1.68-7.38,2.88c-2.16,4.32-3.81,8.82-4.95,13.5
		c-1.14,4.68-1.71,9.36-1.71,14.04c0,10.68,2.55,18.87,7.65,24.57c5.1,5.7,12.21,8.55,21.33,8.55c7.8,0,16.74-2.16,26.82-6.48
		l1.26,3.6c-5.16,5.76-10.83,10.11-17.01,13.05C541.7,223.93,535.31,225.4,528.71,225.4z"/>
	<path d="M577.67,259.06v-5.76c1.56-0.84,3.18-1.68,4.86-2.52c1.68-0.84,3.78-1.56,6.3-2.16l1.8-93.6l-9.72-13.14
		c4.2-2.28,8.4-4.17,12.6-5.67c4.2-1.5,8.52-2.55,12.96-3.15l1.8,20.16v95.94l14.94,3.6v6.3H577.67z M621.05,225.4
		c-4.2,0-8.7-0.42-13.5-1.26c-4.8-0.84-9.72-2.1-14.76-3.78l3.42-14.04c5.4,2.04,10.2,3.57,14.4,4.59c4.2,1.02,7.92,1.53,11.16,1.53
		c8.52,0,15.06-2.76,19.62-8.28c4.56-5.52,6.84-13.38,6.84-23.58c0-5.52-0.69-10.8-2.07-15.84c-1.38-5.04-3.45-9.66-6.21-13.86
		l9.36,8.64c-7.8-6.36-15.66-9.54-23.58-9.54c-6.24,0-12.54,2.34-18.9,7.02l-0.18-4.32c3.12-3.96,6.36-7.47,9.72-10.53
		c3.36-3.06,6.96-5.91,10.8-8.55c0.6,0,1.17-0.03,1.71-0.09c0.54-0.06,1.05-0.09,1.53-0.09c7.44,0,13.86,1.89,19.26,5.67
		c5.4,3.78,9.6,9,12.6,15.66c3,6.66,4.5,14.31,4.5,22.95c0,9.96-1.89,18.51-5.67,25.65c-3.78,7.14-9.06,12.6-15.84,16.38
		C638.48,223.51,630.41,225.4,621.05,225.4z"/>
	<path d="M720.59,225.4c-7.8,0-14.58-1.86-20.34-5.58c-5.76-3.72-10.23-8.94-13.41-15.66c-3.18-6.72-4.77-14.58-4.77-23.58
		c0-9.24,1.68-17.4,5.04-24.48c3.36-7.08,8.13-12.63,14.31-16.65c6.18-4.02,13.41-6.03,21.69-6.03c6.72,0,12.6,1.38,17.64,4.14
		c5.04,2.76,8.94,6.66,11.7,11.7c2.76,5.04,4.14,10.92,4.14,17.64l-0.54,11.88c-7.32,1.32-14.25,2.37-20.79,3.15
		c-6.54,0.78-13.2,1.38-19.98,1.8c-6.78,0.42-14.13,0.81-22.05,1.17l0.18-10.62l45.72-0.36l0.36-7.56c0-6.24-1.65-11.16-4.95-14.76
		c-3.3-3.6-7.77-5.4-13.41-5.4c-2.4,0-4.86,0.36-7.38,1.08c-2.52,0.72-4.98,1.68-7.38,2.88c-2.16,4.32-3.81,8.82-4.95,13.5
		c-1.14,4.68-1.71,9.36-1.71,14.04c0,10.68,2.55,18.87,7.65,24.57c5.1,5.7,12.21,8.55,21.33,8.55c7.8,0,16.74-2.16,26.82-6.48
		l1.26,3.6c-5.16,5.76-10.83,10.11-17.01,13.05C733.58,223.93,727.19,225.4,720.59,225.4z"/>
	<path d="M770.81,223.78v-5.94c1.08-0.84,2.58-1.62,4.5-2.34c1.92-0.72,4.26-1.32,7.02-1.8l1.44-68.94l-12.96-3.06v-6.48h48.24
		c9,0,16.11,1.8,21.33,5.4c5.22,3.6,7.83,8.58,7.83,14.94c0,5.16-1.65,9.69-4.95,13.59c-3.3,3.9-7.89,6.81-13.77,8.73
		c7.08,1.32,12.63,3.84,16.65,7.56c4.02,3.72,6.03,8.4,6.03,14.04c0,7.56-3.03,13.5-9.09,17.82c-6.06,4.32-14.43,6.48-25.11,6.48
		H770.81z M800.69,220.36l-7.38-7.56h29.16c3.6-1.08,6.36-2.82,8.28-5.22c1.92-2.4,2.88-5.28,2.88-8.64c0-4.68-1.56-8.31-4.68-10.89
		c-3.12-2.58-7.26-3.87-12.42-3.87h-17.28v-10.44h19.44c7.68-3.24,11.52-8.1,11.52-14.58c0-4.32-1.38-7.59-4.14-9.81
		c-2.76-2.22-6.48-3.33-11.16-3.33h-21.6l7.38-7.38V220.36z"/>
	<path d="M907.61,225.58c-8.04,0-15.03-1.83-20.97-5.49c-5.94-3.66-10.5-8.85-13.68-15.57c-3.18-6.72-4.77-14.64-4.77-23.76
		c0-9.6,1.71-17.94,5.13-25.02c3.42-7.08,8.25-12.57,14.49-16.47c6.24-3.9,13.56-5.85,21.96-5.85c8.28,0,15.42,1.83,21.42,5.49
		c6,3.66,10.65,8.82,13.95,15.48c3.3,6.66,4.95,14.49,4.95,23.49c0,9.72-1.74,18.15-5.22,25.29c-3.48,7.14-8.4,12.66-14.76,16.56
		C923.75,223.63,916.25,225.58,907.61,225.58z M908.87,213.52c4.56,0,8.46-1.29,11.7-3.87c3.24-2.58,5.76-6.45,7.56-11.61
		c1.8-5.16,2.7-11.46,2.7-18.9c0-7.2-0.87-13.23-2.61-18.09c-1.74-4.86-4.32-8.55-7.74-11.07s-7.47-3.78-12.15-3.78
		c-3.12,0-6.57,0.57-10.35,1.71c-3.78,1.14-8.19,2.85-13.23,5.13l10.8-7.56c-2.76,5.28-4.83,10.71-6.21,16.29
		c-1.38,5.58-2.07,11.61-2.07,18.09c0,7.32,0.9,13.47,2.7,18.45c1.8,4.98,4.32,8.76,7.56,11.34
		C900.77,212.23,904.55,213.52,908.87,213.52z"/>
	<path d="M1074.11,162.04c9.96,1.8,17.61,5.25,22.95,10.35c5.34,5.1,8.01,11.43,8.01,18.99c0,10.08-3.99,18-11.97,23.76
		c-7.98,5.76-18.99,8.64-33.03,8.64h-64.26v-6.48c1.92-0.96,4.35-1.8,7.29-2.52c2.94-0.72,6.63-1.38,11.07-1.98l1.8-96.66
		l-20.16-4.32v-7.02h66.06c11.76,0,21.06,2.49,27.9,7.47c6.84,4.98,10.26,11.67,10.26,20.07c0,6.84-2.34,12.9-7.02,18.18
		C1088.33,155.8,1082.03,159.64,1074.11,162.04z M1034.87,219.64l-8.28-8.46h40.68c5.52-1.44,9.81-3.93,12.87-7.47
		c3.06-3.54,4.59-7.83,4.59-12.87c0-6.48-2.37-11.61-7.11-15.39c-4.74-3.78-11.07-5.67-18.99-5.67h-25.74v-12.6h28.62
		c12.12-4.8,18.18-11.88,18.18-21.24c0-5.76-1.98-10.29-5.94-13.59c-3.96-3.3-9.48-4.95-16.56-4.95h-30.6l8.28-8.28V219.64z"/>
	<path d="M1163.93,225.58c-8.04,0-15.03-1.83-20.97-5.49c-5.94-3.66-10.5-8.85-13.68-15.57c-3.18-6.72-4.77-14.64-4.77-23.76
		c0-9.6,1.71-17.94,5.13-25.02c3.42-7.08,8.25-12.57,14.49-16.47c6.24-3.9,13.56-5.85,21.96-5.85c8.28,0,15.42,1.83,21.42,5.49
		c6,3.66,10.65,8.82,13.95,15.48c3.3,6.66,4.95,14.49,4.95,23.49c0,9.72-1.74,18.15-5.22,25.29c-3.48,7.14-8.4,12.66-14.76,16.56
		C1180.06,223.63,1172.56,225.58,1163.93,225.58z M1165.19,213.52c4.56,0,8.46-1.29,11.7-3.87c3.24-2.58,5.76-6.45,7.56-11.61
		c1.8-5.16,2.7-11.46,2.7-18.9c0-7.2-0.87-13.23-2.61-18.09c-1.74-4.86-4.32-8.55-7.74-11.07s-7.47-3.78-12.15-3.78
		c-3.12,0-6.57,0.57-10.35,1.71c-3.78,1.14-8.19,2.85-13.23,5.13l10.8-7.56c-2.76,5.28-4.83,10.71-6.21,16.29
		c-1.38,5.58-2.07,11.61-2.07,18.09c0,7.32,0.9,13.47,2.7,18.45c1.8,4.98,4.32,8.76,7.56,11.34
		C1157.09,212.23,1160.87,213.52,1165.19,213.52z"/>
	<path d="M1213.24,224.32v-19.08l21.06,2.52l-8.1,7.02c2.4-3.24,4.5-7.59,6.3-13.05c1.8-5.46,3.33-12.36,4.59-20.7
		c1.26-8.34,2.37-18.21,3.33-29.61l1.44-14.58l7.2,10.98l-24.48-6.12v-6.48h78.84v5.76c-1.44,0.84-3.12,1.59-5.04,2.25
		c-1.92,0.66-4.2,1.29-6.84,1.89v68.94l11.88,3.24v6.48h-41.94v-5.58c2.04-1.08,3.9-1.95,5.58-2.61c1.68-0.66,3.6-1.23,5.76-1.71
		l1.44-67.68h-21.96c-1.2,15.24-2.7,27.93-4.5,38.07c-1.8,10.14-4.14,18.21-7.02,24.21c-2.88,6-6.57,10.23-11.07,12.69
		C1225.21,223.63,1219.72,224.68,1213.24,224.32z"/>
	<path d="M1319.62,223.78v-5.76c1.68-0.96,3.45-1.83,5.31-2.61c1.86-0.78,3.87-1.41,6.03-1.89l1.8-58.5l-9.72-13.14
		c4.08-2.4,8.4-4.35,12.96-5.85c4.56-1.5,9.36-2.49,14.4-2.97v81l12.06,3.6v6.12H1319.62z M1344.1,92.02
		c2.4,2.16,4.41,4.68,6.03,7.56c1.62,2.88,2.67,5.82,3.15,8.82c-1.92,2.4-4.35,4.44-7.29,6.12c-2.94,1.68-5.91,2.76-8.91,3.24
		c-2.4-1.92-4.44-4.35-6.12-7.29c-1.68-2.94-2.82-5.97-3.42-9.09c2.16-2.4,4.68-4.44,7.56-6.12
		C1337.98,93.58,1340.98,92.5,1344.1,92.02z"/>
</g>
<g>
	<path class="st0" d="M285.14,120.78c-1.05-1.62-1.5-3.01-1.04-5.07c6.62-29.73-10.87-58.62-40.27-66.59
		c-1.87-0.51-2.86-1.49-3.74-3.13c-12.86-23.92-40.92-34.83-66.61-25.92c-1.39,0.48-2.41,0.93-3.68-0.58
		C160.54,8.47,148.88,0.2,134.43,0.02c-18.93-0.24-24.51,2.45-30.2,4.99c-13.81,6.18-23.08,16.9-28.41,31.01
		c-0.69,1.81-1.38,2.73-3.56,2.85c-24.97,1.35-47.33,21.95-50.47,46.9c-0.69,5.52-2.52,9.49-6.48,13.55
		c-20.52,21.02-21,54.29-1.51,76.28c1.8,2.04,2.88,3.99,3.18,6.89c3.46,34.46,36.43,56.6,69.76,46.84c3.5-1.02,5.52-0.66,8.1,2.06
		c10.23,10.84,22.69,17.77,37.4,20.38c0,0.3,0,0.59,0,0.89c0,33.6-19.53,37.99-30.96,35c-14.78-3.76-25.43,1.15-32.75,5.14
		c-2.13-1.3-7.74-3.38-18.7,0.43c0.25,1.26,0.33,1.75,0.33,1.75s7.31-3.77,14.85-0.23c-0.54,0.3-1.06,0.57-1.55,0.82
		c-5.41,2.75-9.38,3.4-11.95,3.39c1.11,1.09,2.23,2.17,3.38,3.22c2.97-0.36,7.03-1.38,11.91-3.97c6.49-3.43,14.25-7.74,27.44-4.75
		c-5.9,1.71-10.37,4.48-13.69,7.56c-10.45-0.73-15.62,5.07-15.62,5.07l1.49,1.09c4.55-3.81,9.54-4,11.86-3.83
		c-4.11,4.75-5.78,9.76-5.81,12.49c0.38,0.25,0.76,0.49,1.14,0.73c1.4-4.63,6.25-10.15,11.96-14.14c1.27,3.75,2.33,10.75-4.93,15.42
		l1.68,1.71c0,0,10.54-4.99,6.42-19.13c4.42-2.5,9.06-3.92,12.88-3.27c-5.16,5.1-5.66,11.81-7.1,18.17
		c-1.18,5.18-4.43,7.68-7.21,8.87c1.18,0.57,2.38,1.12,3.58,1.66c2.77-2.66,5.98-6.79,7.74-12.69c3.52-11.79,14.6-20.58,25.51-20.05
		c-8.85,6.51-12.94,14.39-14.67,21.49c-2.4,0.55-8.81,2.89-11.18,12.39c0.16,0,1.13,0.51,1.13,0.51s1.97-7.32,9.26-8.65
		c-0.79,6.1-0.01,11.18,0.49,13.58c1.63,0.45,3.28,0.88,4.93,1.27c-0.79-3.68-2.28-13.65,2.64-21.94c0.59-0.99,1.21-1.9,1.87-2.75
		c1.8,3.35,4.26,10.2,0.33,18.06l2.1,0.86c0,0,5.94-10.81,2.25-23.7c5.2-4.21,10.34-5.48,10.34-5.48s-3.17,7.04-4.22,20.05
		c-1.23,9.44-3.98,14.33-6.06,16.76c1.33,0.22,2.67,0.41,4.01,0.59c1.75-2.72,3.99-7.42,5.77-15.26c4.16,4.16,4.99,13.69,5.14,16.24
		c0.72,0.04,1.44,0.06,2.16,0.09c-0.28-4.26-1.09-11.23-3.5-17.37c-1.71-4.36-0.24-9.42,1.89-13.66c2.09,1.88,6.55,6.88,5.56,14.78
		c-0.03,0.02,1.95,0.96,1.95,0.96s3.36-12.83-4.96-20.1c1.89-2.84,3.58-4.71,3.58-4.71v0.01c0,0,11.82,13.09,8.03,22.74
		c-2.41,6.13-3.23,13.09-3.5,17.36c0.72-0.02,1.44-0.05,2.16-0.09c0.15-2.56,0.98-12.08,5.14-16.24c1.78,7.82,4.01,12.53,5.76,15.25
		c1.34-0.18,2.68-0.37,4.01-0.59c-2.08-2.43-4.83-7.31-6.06-16.75c-1.06-13.02-4.22-20.05-4.22-20.05s5.49,1.35,10.86,5.91
		c-3.43,12.7,2.37,23.26,2.37,23.26l2.1-0.86c-3.74-7.47-1.69-14.03,0.06-17.54c0.52,0.71,1.02,1.45,1.49,2.24
		c4.91,8.28,3.44,18.25,2.65,21.93c1.66-0.39,3.3-0.82,4.93-1.27c0.51-2.42,1.29-7.54,0.48-13.68c7.83,1,9.92,8.75,9.92,8.75
		s0.97-0.51,1.13-0.51c-2.66-10.64-10.4-12.3-11.86-12.52c-1.75-7.06-5.84-14.88-14.64-21.35c10.91-0.53,21.99,8.27,25.51,20.05
		c1.76,5.89,4.97,10.02,7.74,12.68c1.2-0.53,2.4-1.09,3.58-1.65c-2.78-1.2-6.03-3.69-7.2-8.87c-1.44-6.36-1.94-13.07-7.1-18.17
		c3.97-0.67,8.84,0.9,13.43,3.59c-3.87,13.9,6.52,18.81,6.52,18.81l1.68-1.71c-7.02-4.52-6.26-11.21-5.05-15.04
		c5.49,3.96,10.08,9.28,11.44,13.77c0.38-0.24,0.76-0.49,1.14-0.74c-0.04-2.72-1.69-7.7-5.77-12.43c1.94-0.23,7.46-0.42,12.46,3.77
		l1.49-1.09c0,0-5.36-6.03-16.22-5.03c-3.32-3.09-7.81-5.88-13.73-7.59c13.19-2.99,20.95,1.32,27.44,4.75
		c4.88,2.58,8.94,3.61,11.9,3.97c1.15-1.05,2.27-2.13,3.38-3.22c-2.57,0.01-6.54-0.64-11.94-3.39c-0.66-0.33-1.36-0.71-2.1-1.13
		c7.29-3.02,14.18,0.52,14.18,0.52s0.08-0.49,0.33-1.75c-10.06-3.5-15.61-2.03-18.1-0.76c-7.29-3.93-17.76-8.46-32.12-4.8
		c-11.43,2.99-30.96-1.41-30.96-35c0-0.42,0-0.82,0-1.23c8.77-1.55,16.97-4.73,24.51-9.53c1.47-0.94,2.61-0.91,4.18-0.23
		c31.41,13.73,67.09-3.58,75.82-36.8c0.61-2.32,1.67-3.77,3.84-5C293.67,184.19,302.51,147.44,285.14,120.78z"/>
	<g>
		<path class="st1" d="M136.3,253.7c-0.73,0-1.33-0.6-1.33-1.33c0-0.03,0-0.07,0.01-0.1c0.89-6.31,2.65-23.45,0.14-26.84
			c-2.13-2.88-4-4.42-5.65-5.78c-0.83-0.68-1.62-1.33-2.38-2.09c-1.09-1.09-2.09-2.18-3.27-3.49l-0.68-0.75
			c-0.89-0.97-1.81-1.98-2.57-3.03c-1.59-2.18-3.07-4.43-4.5-6.6l-0.09-0.14c-0.86-1.3-2.22-2.36-4.03-3.13
			c-0.62-0.26-1.5-0.44-2.57-0.52c-2.73-0.21-5.61-0.3-8.79-0.3c-1.73,0-3.53,0.03-5.53,0.09c-2.05,0.06-4.1,0.1-6.16,0.13
			c-2.96,0.05-6.02,0.11-9.02,0.24c-1.08,0.05-2.23,0.07-3.51,0.07c-1.69,0-3.38-0.04-5.07-0.08c-1.04-0.02-2.08-0.05-3.12-0.07
			c-4.38-0.07-7.13-1.83-7.38-4.72c-0.03-0.35-0.07-0.71-0.1-1.07c-0.09-0.84-0.17-1.72-0.18-2.59c-0.07-9.12-0.1-18.24-0.14-27.36
			l0-0.97c-0.02-4.55-0.03-9.1-0.03-13.66c0-2.56,0-10.89,0-10.89c0-0.22,0.1-0.42,0.25-0.55l0.03-7.51
			c0.05-15.1,0.1-30.19,0.17-45.29c0-0.77,0.14-1.6,0.39-2.47c0.15-0.52,0.54-1.05,1.09-1.49c0.59-0.48,1.34-0.74,2.12-0.74
			c0.96,0,1.8,0.4,2.29,1.11c0.6,0.86,1,1.8,1.17,2.71c0.28,1.55,0.42,3.11,0.55,4.62l0.04,0.51c0.22,2.51,0.42,5.01,0.62,7.52
			l0.08,1.06c0.17,2.16,0.33,4.31,0.48,6.47c0.2,2.88,0.39,5.76,0.56,8.64c0.17,2.85,0.33,5.69,0.48,8.54l0.01,0.21
			c0.12,2.26,0.24,4.52,0.35,6.78l0.23,4.5c0.07,1.45,0.15,2.9,0.23,4.36c0.17,3.04,0.33,6.08,0.51,9.11
			c0.13,2.17,0.28,4.35,0.43,6.52l0.03,0.47c0.16,2.29,0.32,4.59,0.49,6.88l0.09,1.28c0.14,1.9,0.28,3.8,0.43,5.71
			c0.21,2.57,0.44,5.15,0.67,7.72l0.35,3.94c0.2,2.3,0.4,4.61,0.64,6.91c0.17,1.67,0.35,3.18,0.72,4.68
			c0.2,0.79,0.87,1.63,2.06,2.57c0.98,0.78,2.52,1.19,4.43,1.19h0.27c3.85,0,7.95-0.02,12.02-0.24c5.06-0.28,8.77-2.05,11.01-5.29
			c1.08-1.56,1.75-3.28,2.16-5.6c0.48-2.64,0.44-5.56-0.1-8.91c-0.32-1.98-0.89-3.99-1.44-5.94c-0.2-0.7-0.39-1.39-0.58-2.09
			c-1.13-4.23-2.89-8.61-5.37-13.38c-2.55-4.9-5.9-9.03-10.23-12.63c-1.13-0.93-2.48-1.81-3.79-2.65c-0.69-0.45-1.38-0.89-2.05-1.35
			l-0.88-0.6c-1.07-0.72-2.17-1.47-3.15-2.27c-2.45-1.98-3.05-4.49-1.74-7.25c1.3-2.73,3.49-5.18,5.61-7.55l0.22-0.25
			c4.89-5.47,8.66-10.73,11.53-16.05c1.09-2.03,2.06-4.17,2.89-6.38c0.55-1.46,0.81-2.99,1.05-4.55c0.21-1.38,0.24-2.8,0.25-4.03
			c0.02-2.27-2.92-4.19-6.67-4.37c-0.88-0.04-1.76-0.06-2.64-0.06c-0.75,0-1.5,0.01-2.26,0.02l-2.14,0.03
			c-0.39,0.01-0.78,0.01-1.17,0.01c-1.06,0-2.31-0.04-3.56-0.33c-0.35-0.08-0.77-0.19-1.16-0.34c-1.61-0.64-1.51-1.66-1.39-2.07
			c0.14-0.5,0.62-1.15,2.08-1.35c1.08-0.15,2.26-0.26,3.51-0.33c5.15-0.29,10.3-0.57,15.46-0.82c1.27-0.06,2.62-0.12,3.97-0.12
			c1.73,0,3.24,0.09,4.63,0.29c4.68,0.66,7.04,3.22,7.31,5.47c0.3,2.57,0.28,4.77-0.08,6.72c-0.27,1.5-0.97,2.94-1.64,4.33
			c-0.21,0.43-0.41,0.85-0.61,1.28c-1.7,3.75-4.37,7.1-6.76,9.88c-2.95,3.43-6.95,7.91-11.75,12.14c-4.38,3.87-7.95,6.75-11.56,9.34
			c-0.57,0.41-0.89,0.81-0.86,1.07c0.03,0.26,0.44,0.69,1.51,1.12c0.72,0.29,1.47,0.57,2.21,0.85c1.21,0.45,2.46,0.92,3.62,1.45
			l0.31,0.14c3.62,1.66,7.36,3.38,10.27,5.7c0.31,0.25,0.7,0.51,1.18,0.79c0.52,0.3,1.1,0.47,1.67,0.46c0.67,0,1.27-0.22,1.69-0.62
			c0.52-0.49,0.97-1.1,1.29-1.75c0.69-1.39,1.36-2.78,2.03-4.17c1.01-2.11,2.05-4.29,3.18-6.42c1.32-2.5,2.76-5,4.16-7.43
			c0.65-1.13,1.31-2.26,1.95-3.4c1.82-3.21,3.63-6.42,5.44-9.63c0.42-0.74,0.84-1.48,1.27-2.22c1.04-1.81,2.12-3.68,3.04-5.54
			c2.02-4.06,3.67-7.63,5.05-10.92c1.94-4.61,3.14-8.2,3.91-11.64c0.22-1,0.45-2,0.68-2.99c0.52-2.31,1.07-4.69,1.54-7.04
			c0.47-2.32,0.82-4.64,1.15-6.88c0.23-1.52,0.43-3.04,0.64-4.57c0.22-1.65,0.45-3.3,0.7-4.95c0.12-0.81,0.29-1.63,0.45-2.44
			c0.15-0.75,0.3-1.49,0.42-2.24c0.1-0.67,0.17-1.34,0.23-2c0.07-0.7,0.14-1.41,0.25-2.11c0.3-1.9,0.68-3.79,0.97-5.22
			c0.43-2.09,0.9-4.11,1.3-5.81c0.11-0.48,0.32-0.93,0.61-1.33c0.21-0.28,0.51-0.43,0.78-0.56c0.08-0.04,0.16-0.08,0.23-0.12
			c0.11-0.07,0.24-0.1,0.37-0.1c0.16,0,0.32,0.05,0.45,0.15c0.05,0.04,0.11,0.08,0.17,0.12c0.24,0.16,0.55,0.35,0.69,0.71
			c0.17,0.44,0.35,1.02,0.33,1.64c-0.04,1.3-0.12,2.61-0.19,3.91l-0.1,1.76c-0.07,1.28-0.13,2.57-0.18,3.85l-0.05,1.1
			c-0.07,1.46-0.14,2.93-0.19,4.39c-0.03,0.86-0.06,1.72-0.08,2.58l-0.08,3c-0.04,1.25-0.08,2.51-0.1,3.76
			c-0.01,0.6-0.02,1.21-0.03,1.81c-0.01,0.81-0.02,1.62-0.04,2.42c-0.02,0.74-0.07,1.49-0.11,2.23c-0.03,0.6-0.07,1.19-0.09,1.79
			c-0.02,0.47-0.03,0.94-0.03,1.41c-0.01,0.74-0.02,1.5-0.08,2.27c-0.12,1.6-0.3,3.3-0.54,5.18c-0.21,1.67-0.47,3.34-0.75,4.97
			c-0.33,1.85-0.72,4.05-1.21,6.31c-0.39,1.79-0.77,3.58-1.35,5.33c-0.5,1.51-1.06,3.04-1.6,4.52c-0.49,1.32-0.97,2.64-1.42,3.96
			c-0.89,2.65-2.31,5.21-3.67,7.68c-0.36,0.65-0.72,1.31-1.07,1.96c-0.57,1.07-1.26,2.11-1.92,3.13c-0.37,0.57-0.74,1.13-1.1,1.7
			c-1.77,2.87-3.55,5.74-5.28,8.62l-1.56,2.58c-1.75,2.89-3.56,5.87-5.21,8.83c-1.62,2.91-3.01,5.9-4.42,8.95
			c-0.98,2.13-1.87,4.33-2.73,6.45l-0.54,1.33c-0.62,1.52-0.42,3.05,0.63,4.68c0.41,0.65,0.84,1.32,1.38,1.93
			c0.44,0.5,1.07,0.78,1.73,0.78c0.63,0,1.2-0.25,1.62-0.71c0.77-0.85,1.36-1.75,1.99-2.71l0.34-0.52
			c3.64-5.46,6.9-9.81,10.25-13.68c3.12-3.61,6.22-6.77,9.48-9.66c0.75-0.67,1.68-1.3,2.69-1.82c0.67-0.35,1.48-0.53,2.34-0.53
			c0.78,0,1.53,0.15,2.18,0.43c0.92,0.4,1.65,1.13,1.91,1.92c0.18,0.53,0.13,1.04-0.12,1.49c-0.39,0.69-0.93,1.31-1.46,1.92
			c-0.2,0.23-0.4,0.47-0.59,0.7c-0.74,0.91-1.5,1.81-2.27,2.71c-1.63,1.92-3.31,3.9-4.67,5.91c-3.21,4.77-6.53,10.06-10.47,16.67
			c-1.54,2.58-2.72,5.37-3.76,7.84c-0.56,1.33-0.92,2.75-1.27,4.12l-0.22,0.85c-0.08,0.32-0.08,0.68-0.07,1.07
			c0,0.21,0.01,0.42,0,0.63l-0.06,1.48c-0.05,1.14-0.1,2.28-0.12,3.42c-0.01,0.83,0.03,1.71,0.15,2.88
			c0.16,1.65,0.34,3.53,0.61,5.36l0.12,0.86c0.22,1.55,0.44,3.15,0.86,4.67c0.51,1.83,1.23,3.59,2.12,5.7
			c0.83,1.97,1.81,4.26,2.97,6.46c1.18,2.24,3.14,4.34,5.05,6.37l0.11,0.12c0.99,1.06,2.09,2.1,3.16,3.11
			c0.48,0.46,0.97,0.92,1.45,1.38c0.06,0.06,0.09,0.09,0.13,0.12c0.58,0.44,1.08,0.67,1.5,0.67c0.41,0,0.81-0.24,1.19-0.72
			c1.69-2.11,3.22-4.27,4.5-6.09c2.53-3.64,4.72-7.56,6.69-11.99c1.67-3.77,3.02-6.95,4.14-10.21c0.94-2.71,1.54-5.53,2.12-8.26
			c0.22-1.02,0.3-2.03,0.39-3.1c0.05-0.62,0.11-1.24,0.18-1.85c0.07-0.55,0.16-1.1,0.26-1.64c0.14-0.82,0.27-1.59,0.33-2.36
			c0.12-1.71,0.25-3.64,0.12-5.51c-0.1-1.31-0.33-2.66-0.56-3.96c-0.12-0.71-0.25-1.43-0.35-2.14c-0.44-3.04-1.38-6.06-2.86-9.26
			c-0.72-1.55-1.32-3.14-1.9-4.68c-0.2-0.53-0.4-1.07-0.61-1.6c-0.14-0.37-0.18-0.79-0.11-1.22c0.08-0.45,0.5-0.89,0.97-1
			c0.08-0.02,0.17-0.03,0.27-0.03c0.24,0,0.78,0.08,1.1,0.38c0.39,0.37,0.82,0.81,1.11,1.31c2.75,4.62,5.02,9.26,6.75,13.78
			c1.09,2.86,1.97,5.42,2.7,7.82c0.65,2.15,1.21,4.41,1.71,6.89c0.26,1.31,0.45,2.64,0.63,3.93c0.13,0.91,0.26,1.82,0.41,2.73
			l0.04,0.25c0.13,0.78,0.25,1.51,0.62,2.15c0.37,0.64,1.22,1.06,2.17,1.06c0.66,0,1.3-0.2,1.81-0.56c1.83-1.29,3.41-2.77,4.85-4.17
			c0.77-0.75,1.42-1.65,1.92-2.66c0.42-0.85,0.04-1.73-0.58-2.97l-1.97-3.92c-2.06-4.1-4.19-8.34-6.19-12.53
			c-1.34-2.82-2.42-5.78-3.38-8.39c-0.91-2.49-1.54-4.53-1.97-6.41c-0.63-2.79-1.18-5.72-1.66-8.96c-0.44-2.95-0.83-5.96-1.21-8.86
			c-0.23-1.74-0.45-3.49-0.69-5.23c-0.12-0.86-0.26-1.72-0.39-2.57c-0.17-1.07-0.34-2.14-0.48-3.21c-0.12-0.96-0.19-1.91-0.27-2.87
			c-0.06-0.73-0.12-1.46-0.19-2.2c-0.13-1.22-0.29-2.43-0.45-3.65l-0.29-2.27c-0.12-0.96-0.24-1.93-0.4-2.89
			c-0.2-1.21-0.43-2.41-0.66-3.62l-0.37-1.94c-0.2-1.06-0.4-2.11-0.62-3.16c-0.2-0.95-0.43-1.9-0.65-2.85l-0.51-2.16
			c-0.29-1.23-0.57-2.46-0.87-3.69c-0.14-0.56-0.28-1.12-0.43-1.68c-0.16-0.62-0.33-1.25-0.47-1.87c-0.13-0.54-0.24-1.08-0.35-1.63
			c-0.08-0.39-0.16-0.78-0.25-1.16c-0.32-1.43-0.65-2.85-0.97-4.28c0,0-0.28-1.22-0.37-1.57c-0.16-0.65-0.31-1.31-0.45-1.96
			c-0.1-0.5-0.21-0.99-0.32-1.49c-0.31-1.4-0.62-2.85-0.78-4.31c-0.15-1.38-0.15-2.77-0.16-4.11c0-0.54,0-1.08-0.01-1.62
			c-0.01-0.34,0.1-0.66,0.31-0.9c0.14-0.16,0.5-0.53,0.99-0.56c0,0,0.01,0,0.01,0c0.4,0,0.97,0.18,1.23,0.57l0.13,0.2
			c0.35,0.54,0.72,1.1,0.96,1.71c0.63,1.59,1.22,3.19,1.81,4.78l1.03,2.77c0.57,1.53,1.15,3.07,1.7,4.6c0.31,0.86,0.6,1.73,0.89,2.6
			c0.25,0.75,0.5,1.5,0.77,2.25c0.28,0.8,0.57,1.59,0.86,2.38c0.45,1.21,0.89,2.43,1.3,3.65c0.36,1.08,0.68,2.18,0.98,3.24
			c0.17,0.6,0.35,1.21,0.53,1.81c0.29,0.94,0.58,1.88,0.87,2.82c0.58,1.86,1.18,3.78,1.71,5.69c0.5,1.83,0.94,3.68,1.36,5.48
			c0.2,0.84,0.39,1.69,0.6,2.53c0.14,0.58,0.29,1.17,0.44,1.75c0.31,1.19,0.63,2.43,0.87,3.66c0.57,2.92,1.08,5.88,1.58,8.75
			l0.28,1.59c0.51,2.95,1.01,5.91,1.5,8.87c0.17,1.02,0.32,2.04,0.48,3.06c0.31,2.04,0.62,4.14,1.06,6.19
			c0.77,3.62,1.67,7.15,2.68,10.5c1.01,3.39,2.01,6.16,3.15,8.71c0.98,2.21,2.22,4.44,3.42,6.59c0.38,0.67,0.75,1.35,1.12,2.03
			c0.19,0.34,0.52,0.69,0.91,0.95c0.5,0.33,1.16,0.51,1.85,0.51c0.9,0,1.79-0.3,2.44-0.82c1.04-0.84,1.99-1.77,2.91-2.66l0.39-0.38
			c3.51-3.4,6.1-6.32,8.16-9.18c1.06-1.48,1.83-2.95,2.29-4.38c0.54-1.68-0.27-3.19-2.46-4.63c-3.98-2.6-8.59-5.75-12.56-9.39
			c-4.35-3.98-7.45-8.49-9.48-13.8c-1.12-2.92-1.76-6.01-1.92-9.16c-0.12-2.37-0.02-4.84,0.29-7.53c0.38-3.26,1.77-6.22,4.12-8.8
			c1.5-1.64,3.76-2.97,7.12-4.21c2.82-1.03,5.91-1.71,9.44-2.08c8.36-0.86,16.67-1.36,22.98-1.7l1.43-0.08
			c1.6-0.09,3.25-0.19,4.89-0.19l0.21,0c3.73,0.02,6.71,1.93,6.93,4.43c0.17,1.99,0.25,4.16,0.24,6.86
			c-0.03,8.88-0.07,17.75-0.11,26.63c-0.05,12.56-0.11,25.11-0.14,37.67c-0.02,6.84,0.03,13.79,0.07,20.51
			c0.02,3.43,0.04,6.87,0.06,10.3l0,0.59c0.01,2.46,0.02,5-0.03,7.5c-0.02,0.75-0.22,1.53-0.6,2.24c-0.46,0.87-1.46,1.41-2.62,1.41
			l0,0c-0.54,0-1.09-0.12-1.6-0.34c-3.31-1.47-5.04-3.25-5.29-5.44c-0.13-1.17-0.2-2.35-0.26-3.5c-0.04-0.63-0.07-1.25-0.12-1.88
			c-0.1-1.37-0.51-6.71-0.6-8c-0.09-1.21-0.16-2.41-0.23-3.62c-0.04-0.72-0.08-1.45-0.11-2.17c-0.06-1.13-0.11-2.26-0.19-3.4
			c-0.11-1.64-0.23-3.28-0.35-4.91l-0.25-3.42c-0.07-1.03-0.15-2.05-0.19-3.08c-0.05-1.07-0.08-2.15-0.12-3.22
			c-0.02-0.68-0.04-1.36-0.07-2.04c0,0-0.33-8.65-0.4-10.67c-0.08-2.14-0.15-4.28-0.21-6.43c-0.05-1.99-0.27-10.88-0.27-10.88
			c-0.02-0.85-0.05-1.69-0.08-2.53c-0.03-1.05-0.07-2.1-0.09-3.14c-0.09-4.02-0.18-8.04-0.25-12.05c-0.05-2.95-0.09-5.89-0.14-8.84
			c-0.03-2.24-0.07-4.49-0.1-6.73c-0.02-1.33-0.51-2.66-1.49-4.04c-0.8-1.12-2.36-1.7-4.64-1.72l-0.44,0c-3.32,0-6.42,0.3-9.23,0.89
			c-2.5,0.53-4.21,1.69-5.67,2.86c-3.63,2.91-6.04,6.37-7.38,10.57c-0.89,2.79-1.39,5.86-1.54,9.38c-0.09,2.03,0.41,4.04,0.94,6.17
			l0.15,0.61c0.68,2.76,1.75,5.25,3.27,7.62c3.13,4.87,7.08,8.78,12.08,11.97c0.93,0.59,1.89,1.17,2.85,1.74
			c1.13,0.68,2.29,1.37,3.4,2.09c1.65,1.08,2.58,2.55,2.86,4.5c0.55,3.86-1.44,7.3-3.33,10.22c-3.53,5.43-7.88,10.92-12.94,16.3
			c-4.6,4.9-9.92,10.61-14.86,16.29c-1.22,1.41-4.04,4.1-7.61,7.51c-9.35,8.94-25,23.9-26.58,30.19c-2.16,8.6-0.01,26.16,0.02,26.34
			c0.01,0.82-0.59,1.42-1.32,1.42H136.3z"/>
		<path class="st2" d="M146.8,27.64c0.22,0.17,0.55,0.32,0.62,0.51c0.17,0.44,0.3,0.91,0.29,1.36c-0.06,1.89-0.19,3.77-0.29,5.66
			c-0.07,1.29-0.13,2.57-0.18,3.86c-0.08,1.83-0.17,3.66-0.24,5.5c-0.05,1.29-0.07,2.57-0.11,3.86c-0.05,1.83-0.11,3.66-0.16,5.49
			c-0.03,1.41-0.02,2.82-0.07,4.23c-0.04,1.34-0.15,2.68-0.2,4.01c-0.05,1.22-0.02,2.43-0.12,3.65c-0.13,1.72-0.32,3.43-0.54,5.15
			c-0.21,1.65-0.46,3.29-0.75,4.93c-0.37,2.1-0.75,4.19-1.21,6.28c-0.38,1.76-0.76,3.52-1.33,5.26c-0.93,2.83-2.06,5.64-3.02,8.47
			c-1.1,3.27-3,6.38-4.7,9.53c-0.87,1.62-2.01,3.19-3,4.79c-1.78,2.87-3.55,5.75-5.29,8.63c-2.29,3.8-4.65,7.6-6.78,11.44
			c-1.65,2.96-3.06,5.98-4.45,9c-1.19,2.59-2.22,5.2-3.28,7.81c-0.74,1.83-0.42,3.61,0.69,5.34c0.44,0.69,0.88,1.38,1.45,2.02
			c0.6,0.68,1.44,1.03,2.28,1.03c0.79,0,1.58-0.31,2.16-0.95c0.95-1.05,1.65-2.19,2.4-3.31c3.09-4.63,6.38-9.2,10.19-13.61
			c2.86-3.31,5.95-6.53,9.41-9.59c0.72-0.64,1.59-1.23,2.55-1.72c0.59-0.31,1.3-0.45,2-0.45c0.67,0,1.34,0.13,1.89,0.37
			c1.11,0.48,1.91,1.57,1.45,2.38c-0.5,0.88-1.3,1.69-1.98,2.53c-2.34,2.89-4.97,5.7-6.97,8.68c-3.7,5.51-7.15,11.09-10.49,16.7
			c-1.54,2.58-2.68,5.26-3.8,7.93c-0.7,1.66-1.08,3.38-1.52,5.08c-0.16,0.6-0.07,1.24-0.09,1.85c-0.07,1.64-0.16,3.28-0.19,4.92
			c-0.01,0.99,0.05,1.97,0.15,2.96c0.17,1.8,0.35,3.6,0.61,5.4c0.27,1.88,0.49,3.77,1,5.62c0.54,1.95,1.34,3.87,2.15,5.79
			c0.92,2.19,1.87,4.37,3,6.51c1.25,2.37,3.27,4.52,5.27,6.65c1.44,1.54,3.08,3.02,4.63,4.52c0.06,0.06,0.12,0.12,0.19,0.17
			c0.71,0.54,1.35,0.82,1.94,0.82c0.64,0,1.23-0.32,1.76-0.99c1.61-2.01,3.09-4.07,4.53-6.13c2.73-3.93,4.92-7.99,6.75-12.12
			c1.51-3.4,2.97-6.82,4.17-10.27c0.95-2.75,1.55-5.56,2.15-8.36c0.35-1.65,0.37-3.33,0.58-5c0.17-1.35,0.49-2.7,0.59-4.05
			c0.13-1.87,0.25-3.75,0.12-5.61c-0.15-2.05-0.61-4.1-0.91-6.15c-0.47-3.22-1.48-6.36-2.92-9.46c-0.95-2.06-1.68-4.16-2.48-6.24
			c-0.1-0.27-0.12-0.56-0.07-0.84c0.03-0.15,0.22-0.37,0.42-0.41c0.03-0.01,0.07-0.01,0.11-0.01c0.2,0,0.5,0.08,0.6,0.18
			c0.38,0.36,0.75,0.75,0.99,1.15c2.66,4.47,4.92,9.02,6.69,13.67c0.98,2.58,1.9,5.17,2.69,7.77c0.69,2.26,1.24,4.54,1.7,6.82
			c0.44,2.2,0.66,4.43,1.04,6.64c0.15,0.89,0.27,1.81,0.74,2.63c0.52,0.92,1.64,1.43,2.81,1.43c0.77,0,1.56-0.22,2.23-0.69
			c1.85-1.3,3.43-2.77,4.94-4.25c0.89-0.87,1.57-1.86,2.06-2.86c0.6-1.22,0.02-2.43-0.58-3.62c-2.74-5.47-5.54-10.94-8.15-16.43
			c-1.3-2.74-2.33-5.53-3.35-8.32c-0.77-2.09-1.46-4.2-1.94-6.32c-0.67-2.96-1.21-5.93-1.65-8.9c-0.7-4.69-1.26-9.39-1.9-14.08
			c-0.26-1.93-0.63-3.85-0.87-5.78c-0.21-1.68-0.28-3.37-0.46-5.05c-0.17-1.63-0.4-3.26-0.61-4.9c-0.17-1.32-0.31-2.63-0.53-3.95
			c-0.26-1.61-0.59-3.22-0.89-4.82c-0.25-1.31-0.49-2.62-0.76-3.93c-0.28-1.31-0.6-2.61-0.9-3.92c-0.37-1.6-0.74-3.2-1.13-4.8
			c-0.29-1.18-0.62-2.36-0.9-3.55c-0.22-0.92-0.39-1.85-0.59-2.78c-0.36-1.61-0.73-3.21-1.1-4.81c-0.23-0.99-0.48-1.99-0.69-2.98
			c-0.39-1.91-0.88-3.81-1.09-5.73c-0.21-1.88-0.13-3.78-0.16-5.67c0-0.14,0.03-0.29,0.13-0.41c0.11-0.13,0.31-0.3,0.49-0.31
			c0.01,0,0.02,0,0.03,0c0.18,0,0.48,0.13,0.55,0.24c0.38,0.58,0.79,1.17,1.03,1.78c0.82,2.07,1.57,4.14,2.34,6.21
			c0.74,1.97,1.48,3.94,2.19,5.92c0.58,1.61,1.09,3.23,1.66,4.84c0.71,2.01,1.49,4.01,2.16,6.02c0.56,1.67,1,3.35,1.51,5.03
			c0.86,2.83,1.79,5.65,2.57,8.49c0.73,2.65,1.3,5.32,1.95,7.98c0.44,1.79,0.95,3.57,1.3,5.37c0.67,3.44,1.25,6.88,1.85,10.33
			c0.51,2.95,1.01,5.91,1.5,8.86c0.51,3.09,0.88,6.2,1.54,9.28c0.75,3.53,1.64,7.06,2.69,10.56c0.88,2.95,1.9,5.9,3.18,8.8
			c1.3,2.93,2.99,5.79,4.57,8.67c0.24,0.44,0.65,0.88,1.15,1.21c0.64,0.42,1.44,0.63,2.25,0.63c1.03,0,2.08-0.33,2.89-0.98
			c1.21-0.98,2.28-2.04,3.36-3.09c3.07-2.98,5.92-6.04,8.24-9.28c1.05-1.46,1.89-3.02,2.39-4.59c0.66-2.07-0.36-3.89-2.76-5.46
			c-4.48-2.93-8.79-5.95-12.47-9.32c-4.51-4.13-7.43-8.67-9.29-13.52c-1.13-2.94-1.72-5.93-1.87-8.94c-0.12-2.47,0-4.95,0.29-7.41
			c0.34-2.96,1.57-5.8,3.94-8.39c1.63-1.78,4.09-3.01,6.84-4.02c2.88-1.06,5.98-1.7,9.27-2.04c7.61-0.79,15.27-1.29,22.94-1.7
			c2.09-0.11,4.18-0.27,6.27-0.27c0.07,0,0.14,0,0.21,0c3.3,0.02,6.03,1.67,6.21,3.77c0.19,2.26,0.24,4.53,0.24,6.79
			c-0.07,21.43-0.2,42.86-0.24,64.3c-0.02,10.27,0.09,20.55,0.13,30.82c0.01,2.69,0.03,5.38-0.03,8.07
			c-0.01,0.64-0.19,1.31-0.51,1.91c-0.34,0.65-1.11,1.02-1.98,1.02c-0.42,0-0.87-0.09-1.3-0.28c-2.66-1.18-4.62-2.7-4.86-4.86
			c-0.2-1.78-0.25-3.57-0.38-5.35c-0.19-2.67-0.41-5.34-0.6-8c-0.09-1.2-0.16-2.4-0.23-3.61c-0.1-1.86-0.18-3.71-0.3-5.57
			c-0.17-2.58-0.37-5.16-0.55-7.74c-0.09-1.22-0.18-2.44-0.23-3.66c-0.08-1.75-0.12-3.5-0.18-5.25c-0.13-3.56-0.27-7.11-0.4-10.67
			c-0.08-2.14-0.15-4.28-0.2-6.42c-0.1-3.63-0.18-7.25-0.27-10.88c-0.05-1.89-0.13-3.78-0.17-5.68c-0.09-4.02-0.18-8.03-0.25-12.05
			c-0.09-5.19-0.16-10.38-0.24-15.56c-0.03-1.56-0.62-3.04-1.62-4.45c-1.02-1.44-2.93-2.01-5.23-2.03c-0.15,0-0.3,0-0.45,0
			c-3.19,0-6.34,0.27-9.39,0.91c-2.56,0.54-4.35,1.71-5.98,3.01c-4.02,3.22-6.34,6.9-7.62,10.92c-1.01,3.17-1.44,6.36-1.57,9.57
			c-0.1,2.34,0.54,4.66,1.11,6.98c0.66,2.7,1.74,5.32,3.37,7.84c2.92,4.54,6.82,8.69,12.3,12.19c2.04,1.3,4.22,2.51,6.24,3.83
			c1.67,1.09,2.32,2.48,2.54,3.99c0.49,3.46-1.2,6.61-3.22,9.72c-3.64,5.61-7.97,10.99-12.86,16.2c-5.06,5.4-10.1,10.81-14.88,16.31
			c-4.53,5.21-32.12,29.16-34.34,38s0,26.61,0,26.61c0,0.33-0.27,0.6-0.6,0.6h-17.4c-0.33,0-0.6-0.27-0.6-0.6
			c0,0,3.24-22.99,0-27.38c-3.24-4.38-5.85-5.7-8.1-7.95c-1.13-1.13-2.19-2.3-3.24-3.46c-1.1-1.23-2.27-2.44-3.2-3.72
			c-1.61-2.21-3.09-4.46-4.57-6.71c-0.93-1.41-2.39-2.56-4.36-3.4c-0.79-0.34-1.84-0.51-2.8-0.58c-2.94-0.22-5.89-0.31-8.84-0.31
			c-1.85,0-3.7,0.03-5.55,0.09c-5.06,0.15-10.13,0.15-15.18,0.37c-1.17,0.05-2.33,0.07-3.49,0.07c-2.73,0-5.45-0.11-8.17-0.15
			c-4.29-0.06-6.47-1.79-6.66-4.06c-0.1-1.2-0.27-2.4-0.28-3.6c-0.07-9.44-0.11-18.88-0.15-28.32c-0.02-4.55-0.03-9.1-0.03-13.65
			c0-3.63,0-7.26,0-10.89c0.08,0,0.17,0,0.25,0c0.06-17.78,0.12-35.57,0.2-53.35c0-0.76,0.14-1.52,0.36-2.26
			c0.12-0.4,0.45-0.81,0.85-1.13c0.48-0.39,1.08-0.58,1.66-0.58c0.68,0,1.32,0.27,1.69,0.8c0.53,0.76,0.9,1.6,1.05,2.42
			c0.3,1.68,0.43,3.38,0.58,5.07c0.26,2.86,0.48,5.72,0.7,8.58c0.17,2.15,0.34,4.31,0.48,6.46c0.2,2.88,0.39,5.76,0.56,8.63
			c0.18,2.91,0.33,5.83,0.49,8.74c0.16,2.97,0.31,5.94,0.46,8.9c0.12,2.24,0.23,4.49,0.35,6.73c0.17,3.04,0.33,6.08,0.51,9.12
			c0.14,2.33,0.3,4.66,0.46,6.99c0.16,2.3,0.32,4.59,0.49,6.89c0.17,2.33,0.33,4.66,0.53,6.99c0.26,3.09,0.53,6.18,0.81,9.27
			c0.27,3.11,0.53,6.22,0.85,9.32c0.17,1.6,0.35,3.2,0.74,4.79c0.28,1.1,1.2,2.09,2.31,2.97c1.25,0.99,3.04,1.35,4.89,1.35
			c0.11,0,0.21,0,0.32,0c4.01,0,8.02-0.02,12.01-0.24c5.62-0.31,9.33-2.38,11.57-5.6c1.3-1.87,1.92-3.85,2.28-5.88
			c0.55-3.06,0.39-6.12-0.1-9.16c-0.44-2.71-1.31-5.4-2.03-8.1c-1.23-4.6-3.13-9.1-5.43-13.53c-2.4-4.62-5.74-8.98-10.42-12.86
			c-1.75-1.45-3.93-2.69-5.89-4.04c-1.35-0.93-2.76-1.84-3.99-2.83c-2.38-1.92-2.62-4.11-1.54-6.37c1.3-2.72,3.52-5.17,5.72-7.63
			c4.62-5.18,8.59-10.56,11.63-16.19c1.14-2.12,2.12-4.29,2.93-6.47c0.57-1.53,0.84-3.12,1.08-4.69c0.21-1.37,0.24-2.75,0.25-4.13
			c0.02-2.66-3.18-4.9-7.37-5.11c-0.89-0.04-1.78-0.06-2.68-0.06c-1.21,0-2.41,0.02-3.62,0.03c-0.65,0.01-1.3,0.02-1.95,0.02
			c-1.15,0-2.28-0.05-3.4-0.31c-0.36-0.08-0.73-0.18-1.06-0.31c-0.69-0.27-1.11-0.66-0.96-1.2c0.14-0.5,0.8-0.74,1.48-0.83
			c1.13-0.16,2.3-0.26,3.45-0.33c5.15-0.29,10.3-0.57,15.46-0.82c1.31-0.06,2.62-0.12,3.93-0.12c1.51,0,3.02,0.07,4.52,0.28
			c4.04,0.57,6.44,2.71,6.69,4.84c0.25,2.16,0.32,4.36-0.07,6.5c-0.34,1.84-1.38,3.64-2.2,5.45c-1.55,3.42-3.98,6.6-6.65,9.7
			c-3.57,4.15-7.32,8.23-11.68,12.07c-3.63,3.2-7.38,6.34-11.5,9.29c-1.81,1.3-1.49,2.53,0.8,3.46c1.92,0.78,3.96,1.44,5.8,2.28
			c3.74,1.72,7.51,3.42,10.43,5.75c0.38,0.3,0.81,0.58,1.26,0.85c0.64,0.38,1.35,0.57,2.04,0.57c0.82,0,1.61-0.27,2.19-0.82
			c0.62-0.59,1.1-1.27,1.44-1.95c1.76-3.52,3.35-7.07,5.2-10.57c1.92-3.63,4.06-7.21,6.1-10.81c1.82-3.21,3.64-6.42,5.44-9.63
			c1.46-2.59,3.02-5.16,4.33-7.79c1.81-3.63,3.53-7.28,5.07-10.96c1.63-3.87,3.06-7.78,3.95-11.76c0.75-3.35,1.54-6.69,2.22-10.04
			c0.47-2.3,0.81-4.61,1.16-6.92c0.47-3.17,0.86-6.34,1.33-9.51c0.23-1.56,0.63-3.11,0.87-4.67c0.21-1.37,0.26-2.75,0.48-4.11
			c0.27-1.73,0.61-3.46,0.97-5.19c0.4-1.93,0.84-3.86,1.29-5.79c0.09-0.36,0.24-0.73,0.49-1.06
			C146.16,27.92,146.53,27.79,146.8,27.64 M146.79,26.19c-0.25,0-0.5,0.06-0.73,0.19c-0.05,0.03-0.12,0.06-0.18,0.09
			c-0.31,0.15-0.74,0.36-1.05,0.79c-0.34,0.47-0.59,1.02-0.73,1.59c-0.4,1.72-0.87,3.76-1.3,5.83c-0.3,1.45-0.68,3.35-0.98,5.26
			c-0.11,0.73-0.18,1.45-0.25,2.15c-0.07,0.68-0.13,1.32-0.23,1.96c-0.11,0.73-0.26,1.45-0.41,2.21c-0.16,0.8-0.33,1.63-0.46,2.47
			c-0.25,1.65-0.48,3.33-0.7,4.95c-0.21,1.52-0.41,3.04-0.64,4.56c-0.33,2.24-0.67,4.55-1.14,6.85c-0.48,2.34-1.02,4.72-1.54,7.02
			c-0.23,1-0.45,1.99-0.68,2.99c-0.76,3.39-1.95,6.94-3.87,11.51c-1.38,3.27-3.02,6.83-5.03,10.88c-0.91,1.84-1.98,3.7-3.02,5.5
			c-0.43,0.74-0.85,1.48-1.27,2.22c-1.81,3.21-3.62,6.42-5.44,9.63c-0.64,1.13-1.29,2.26-1.94,3.38c-1.4,2.43-2.86,4.95-4.18,7.46
			c-1.13,2.14-2.18,4.33-3.19,6.44c-0.66,1.37-1.33,2.78-2.02,4.16c-0.29,0.58-0.68,1.12-1.14,1.55c-0.29,0.27-0.71,0.42-1.19,0.42
			c-0.44,0-0.91-0.13-1.3-0.36c-0.45-0.27-0.81-0.51-1.1-0.73c-2.98-2.37-6.76-4.11-10.41-5.78l-0.32-0.15
			c-1.19-0.54-2.45-1.02-3.67-1.47c-0.74-0.27-1.47-0.55-2.19-0.84c-0.54-0.22-0.83-0.41-0.97-0.52c0.08-0.09,0.23-0.23,0.47-0.4
			c3.64-2.6,7.22-5.5,11.62-9.38c4.82-4.26,8.85-8.76,11.82-12.21c2.42-2.82,5.14-6.21,6.87-10.05c0.19-0.42,0.39-0.84,0.6-1.27
			c0.69-1.44,1.41-2.92,1.7-4.52c0.37-2.02,0.4-4.29,0.08-6.93c-0.36-3.04-3.54-5.49-7.93-6.11c-1.42-0.2-2.97-0.3-4.73-0.3
			c-1.36,0-2.73,0.06-4,0.12c-5.16,0.25-10.26,0.53-15.47,0.82c-1.27,0.07-2.47,0.18-3.57,0.34c-1.84,0.26-2.47,1.16-2.68,1.87
			c-0.28,0.97,0.06,2.25,1.82,2.95c0.43,0.17,0.88,0.29,1.27,0.37c1.32,0.31,2.62,0.35,3.72,0.35c0.39,0,0.79-0.01,1.18-0.01
			c0.26,0,0.52-0.01,0.78-0.01c0.45,0,0.91-0.01,1.36-0.02c0.75-0.01,1.5-0.02,2.25-0.02c1.01,0,1.83,0.02,2.61,0.05
			c3.31,0.16,5.99,1.79,5.98,3.64c-0.01,1.2-0.03,2.59-0.24,3.92c-0.23,1.52-0.48,3-1.01,4.4c-0.82,2.18-1.78,4.3-2.85,6.29
			c-2.84,5.28-6.58,10.48-11.43,15.91l-0.22,0.25c-2.15,2.41-4.38,4.9-5.72,7.72c-1.48,3.1-0.81,5.91,1.94,8.13
			c1.01,0.82,2.13,1.57,3.21,2.31c0.29,0.2,0.58,0.4,0.87,0.59c0.68,0.47,1.39,0.92,2.07,1.36c1.35,0.87,2.63,1.69,3.72,2.6
			c4.26,3.54,7.55,7.59,10.05,12.41c2.46,4.73,4.2,9.06,5.32,13.23c0.19,0.7,0.38,1.4,0.58,2.1c0.57,2.02,1.11,3.92,1.42,5.86
			c0.54,3.31,0.57,6.07,0.1,8.66c-0.4,2.21-1.03,3.84-2.04,5.31c-2.11,3.04-5.62,4.71-10.45,4.97c-4.05,0.22-8.12,0.24-11.93,0.24
			l-0.31,0c-1.75,0-3.13-0.36-3.98-1.04c-1.04-0.83-1.65-1.56-1.8-2.18c-0.36-1.46-0.53-2.94-0.7-4.58c-0.24-2.3-0.44-4.64-0.64-6.9
			l-0.21-2.4l-0.14-1.62c-0.23-2.55-0.45-5.09-0.66-7.64c-0.16-1.91-0.3-3.83-0.44-5.74l-0.09-1.24c-0.17-2.29-0.33-4.59-0.49-6.88
			l-0.02-0.25c-0.15-2.24-0.31-4.49-0.44-6.73c-0.18-3.04-0.35-6.07-0.51-9.11c-0.08-1.48-0.16-2.95-0.23-4.43l-0.12-2.3l-0.12-2.42
			c-0.11-2.16-0.22-4.33-0.34-6.49l-0.01-0.13c-0.16-2.87-0.31-5.75-0.48-8.62c-0.16-2.68-0.34-5.51-0.56-8.65
			c-0.15-2.16-0.31-4.32-0.48-6.48l-0.08-1.03c-0.19-2.48-0.4-5.04-0.62-7.56l-0.05-0.51c-0.13-1.53-0.27-3.11-0.56-4.68
			c-0.18-1.02-0.63-2.05-1.29-3c-0.62-0.89-1.7-1.42-2.88-1.42c-0.94,0-1.85,0.32-2.57,0.91c-0.66,0.53-1.13,1.19-1.33,1.85
			c-0.28,0.94-0.42,1.83-0.42,2.67c-0.07,14.99-0.12,29.98-0.17,44.98l-0.03,7.56c-0.16,0.23-0.26,0.52-0.26,0.82l0,3.33
			c0,2.52,0,5.04,0,7.57l0,0.42c0.01,4.41,0.01,8.83,0.03,13.24l0,0.89c0.04,8.99,0.08,18.29,0.14,27.43
			c0.01,0.91,0.1,1.8,0.18,2.65c0.04,0.35,0.07,0.71,0.1,1.06c0.1,1.24,0.99,5.28,8.09,5.39c1.03,0.02,2.07,0.04,3.1,0.07
			c1.67,0.04,3.39,0.08,5.1,0.08c1.29,0,2.46-0.02,3.55-0.07c2.99-0.13,6.05-0.19,9-0.24c2.02-0.04,4.1-0.07,6.16-0.13
			c1.99-0.06,3.79-0.09,5.51-0.09c3.16,0,6.02,0.1,8.73,0.3c0.97,0.07,1.8,0.24,2.34,0.47c1.68,0.72,2.93,1.68,3.71,2.86l0.11,0.17
			c1.43,2.17,2.91,4.42,4.5,6.6c0.79,1.08,1.72,2.11,2.63,3.1c0.22,0.25,0.45,0.49,0.67,0.74c1.02,1.14,2.13,2.35,3.3,3.52
			c0.78,0.79,1.58,1.44,2.43,2.14c1.7,1.39,3.45,2.84,5.53,5.65c2.1,2.84,0.95,17.65-0.27,26.31c-0.01,0.07-0.01,0.14-0.01,0.2
			c0,1.13,0.92,2.06,2.06,2.06h17.4c1.13,0,2.06-0.92,2.06-2.06c0-0.06,0-0.12-0.01-0.18c-0.02-0.18-2.16-17.6-0.03-26.07
			c1.53-6.09,17.08-20.96,26.37-29.84c3.58-3.42,6.41-6.13,7.66-7.56c4.94-5.68,10.25-11.37,14.85-16.27
			c5.08-5.42,9.46-10.94,13.02-16.41c1.97-3.03,4.03-6.61,3.45-10.72c-0.31-2.17-1.35-3.81-3.18-5c-1.12-0.73-2.29-1.43-3.43-2.11
			c-0.94-0.56-1.91-1.14-2.83-1.73c-4.91-3.12-8.78-6.97-11.86-11.75c-1.48-2.3-2.52-4.72-3.18-7.4l-0.15-0.61
			c-0.51-2.08-1-4.04-0.92-5.97c0.15-3.46,0.64-6.47,1.5-9.19c1.29-4.06,3.63-7.41,7.14-10.23c1.4-1.12,3.01-2.22,5.37-2.72
			c2.76-0.58,5.82-0.88,9.09-0.88l0.44,0c1.4,0.01,3.24,0.26,4.05,1.41c0.89,1.26,1.34,2.45,1.36,3.64c0.04,2.25,0.07,4.49,0.1,6.74
			c0.04,2.94,0.09,5.89,0.14,8.83c0.07,4.09,0.16,8.2,0.25,12.06c0.02,1.05,0.06,2.1,0.09,3.15c0.03,0.84,0.05,1.69,0.08,2.53
			c0.04,1.65,0.08,3.31,0.12,4.96c0.05,1.97,0.1,3.95,0.15,5.92c0.06,2.14,0.13,4.29,0.2,6.43c0.07,2.01,0.15,4.02,0.22,6.02
			c0.06,1.55,0.12,3.09,0.17,4.64c0.03,0.68,0.05,1.36,0.07,2.04c0.03,1.08,0.07,2.15,0.12,3.23c0.05,1.04,0.12,2.08,0.19,3.09
			l0.04,0.6c0.07,0.95,0.14,1.89,0.21,2.84c0.12,1.63,0.24,3.26,0.35,4.89c0.07,1.13,0.13,2.26,0.19,3.39
			c0.04,0.72,0.07,1.45,0.11,2.17c0.07,1.21,0.14,2.42,0.23,3.63c0.1,1.3,0.19,2.6,0.29,3.9c0.1,1.37,0.21,2.74,0.31,4.11
			c0.05,0.62,0.08,1.24,0.12,1.86c0.07,1.16,0.13,2.35,0.27,3.54c0.28,2.47,2.14,4.44,5.71,6.03c0.6,0.27,1.25,0.41,1.89,0.41
			c1.43,0,2.68-0.69,3.26-1.79c0.43-0.81,0.66-1.69,0.68-2.56c0.05-2.52,0.04-5.08,0.03-7.55l0-0.56
			c-0.01-3.44-0.04-6.89-0.06-10.33c-0.04-6.71-0.09-13.65-0.07-20.48c0.03-12.58,0.08-25.37,0.14-37.74
			c0.04-8.85,0.08-17.7,0.11-26.56c0.01-2.71-0.07-4.91-0.24-6.92c-0.25-2.89-3.54-5.08-7.65-5.1l-0.22,0
			c-1.65,0-3.31,0.1-4.92,0.19c-0.48,0.03-0.96,0.06-1.43,0.08c-6.32,0.34-14.64,0.84-23.02,1.7c-3.6,0.37-6.75,1.07-9.62,2.12
			c-3.48,1.28-5.83,2.67-7.41,4.4c-2.46,2.69-3.91,5.79-4.31,9.21c-0.32,2.74-0.42,5.24-0.3,7.65c0.16,3.24,0.82,6.4,1.97,9.39
			c2.07,5.41,5.24,10.02,9.67,14.07c4.02,3.68,8.65,6.85,12.66,9.46c2.79,1.82,2.34,3.26,2.16,3.8c-0.43,1.36-1.17,2.76-2.19,4.18
			c-2.03,2.83-4.59,5.71-8.07,9.08l-0.4,0.39c-0.95,0.92-1.84,1.79-2.86,2.61c-0.52,0.42-1.24,0.66-1.98,0.66
			c-0.56,0-1.07-0.14-1.45-0.39c-0.29-0.19-0.55-0.45-0.68-0.69c-0.37-0.68-0.75-1.36-1.12-2.03c-1.19-2.14-2.42-4.35-3.39-6.53
			c-1.12-2.52-2.11-5.26-3.12-8.62c-1-3.33-1.89-6.85-2.66-10.45c-0.43-2.03-0.75-4.12-1.05-6.14c-0.15-1.02-0.31-2.05-0.48-3.07
			c-0.43-2.61-0.95-5.71-1.5-8.87l-0.27-1.56c-0.5-2.88-1.02-5.86-1.59-8.8c-0.24-1.25-0.57-2.5-0.88-3.71
			c-0.15-0.58-0.3-1.15-0.44-1.73c-0.2-0.84-0.4-1.68-0.6-2.52c-0.42-1.8-0.86-3.67-1.36-5.5c-0.53-1.92-1.13-3.85-1.71-5.72
			c-0.29-0.94-0.58-1.87-0.87-2.81c-0.18-0.6-0.35-1.2-0.53-1.79c-0.31-1.07-0.63-2.18-0.99-3.27c-0.41-1.23-0.87-2.47-1.31-3.67
			c-0.29-0.79-0.58-1.58-0.86-2.37c-0.26-0.74-0.51-1.49-0.76-2.24c-0.29-0.87-0.59-1.74-0.9-2.61c-0.55-1.53-1.13-3.08-1.69-4.58
			l-0.51-1.35l-0.53-1.44c-0.58-1.57-1.19-3.2-1.82-4.8c-0.27-0.68-0.65-1.27-1.03-1.84l-0.13-0.2c-0.38-0.59-1.18-0.9-1.77-0.9
			c-0.03,0-0.09,0-0.13,0c-0.73,0.05-1.25,0.53-1.49,0.81c-0.32,0.37-0.5,0.87-0.49,1.39c0.01,0.53,0.01,1.07,0.01,1.6
			c0,1.36,0,2.78,0.16,4.2c0.16,1.49,0.48,2.96,0.79,4.38c0.11,0.49,0.21,0.99,0.32,1.48c0.14,0.67,0.3,1.34,0.45,1.99
			c0.08,0.34,0.16,0.68,0.24,1.03l0.13,0.58c0.32,1.41,0.65,2.82,0.96,4.22c0.09,0.38,0.16,0.77,0.24,1.16
			c0.11,0.55,0.23,1.1,0.36,1.64c0.15,0.63,0.31,1.26,0.48,1.88c0.14,0.56,0.29,1.11,0.42,1.67c0.3,1.23,0.58,2.45,0.87,3.68
			l0.26,1.11l0.25,1.06c0.22,0.94,0.45,1.89,0.65,2.83c0.22,1.04,0.42,2.1,0.61,3.14l0.14,0.77l0.22,1.17
			c0.23,1.19,0.46,2.42,0.66,3.61c0.16,0.95,0.28,1.92,0.39,2.87l0.13,1.03l0.16,1.25c0.16,1.19,0.32,2.42,0.45,3.62
			c0.08,0.72,0.13,1.45,0.19,2.17c0.07,0.95,0.15,1.93,0.27,2.91c0.14,1.09,0.31,2.18,0.48,3.24c0.14,0.85,0.27,1.7,0.39,2.56
			c0.24,1.74,0.46,3.48,0.69,5.21c0.38,2.91,0.77,5.92,1.21,8.89c0.49,3.26,1.03,6.21,1.67,9.01c0.44,1.92,1.07,3.98,1.99,6.5
			c0.96,2.63,2.05,5.6,3.41,8.45c2,4.21,4.14,8.46,6.21,12.57c0.65,1.3,1.3,2.59,1.95,3.89c0.54,1.08,0.85,1.77,0.57,2.32
			c-0.46,0.94-1.06,1.77-1.77,2.46c-1.42,1.38-2.97,2.84-4.76,4.1c-0.39,0.27-0.88,0.42-1.39,0.42c-0.69,0-1.31-0.28-1.54-0.69
			c-0.3-0.53-0.41-1.2-0.53-1.91l-0.04-0.25c-0.15-0.89-0.28-1.82-0.41-2.71c-0.18-1.3-0.37-2.64-0.64-3.97
			c-0.5-2.5-1.07-4.78-1.73-6.95c-0.73-2.42-1.62-4.99-2.72-7.87c-1.74-4.56-4.03-9.24-6.8-13.9c-0.34-0.57-0.81-1.06-1.23-1.46
			c-0.45-0.43-1.14-0.58-1.6-0.58c-0.15,0-0.3,0.02-0.43,0.05c-0.76,0.17-1.4,0.84-1.53,1.59c-0.09,0.56-0.04,1.11,0.15,1.6
			c0.2,0.53,0.4,1.06,0.6,1.59c0.58,1.55,1.19,3.16,1.92,4.74c1.45,3.13,2.37,6.09,2.8,9.06c0.1,0.72,0.23,1.44,0.35,2.16
			c0.23,1.34,0.45,2.61,0.55,3.89c0.13,1.82,0,3.72-0.12,5.41c-0.05,0.74-0.18,1.5-0.32,2.29c-0.09,0.54-0.19,1.11-0.26,1.68
			c-0.08,0.64-0.13,1.27-0.19,1.88c-0.09,1.05-0.17,2.03-0.38,2.99c-0.58,2.71-1.18,5.52-2.1,8.18c-1.12,3.23-2.46,6.4-4.12,10.15
			c-1.94,4.39-4.11,8.27-6.62,11.87c-1.27,1.82-2.79,3.96-4.47,6.05c-0.24,0.3-0.45,0.45-0.63,0.45c-0.12,0-0.45-0.05-1.06-0.52
			l-0.03-0.03c-0.51-0.5-1-0.96-1.49-1.42c-1.06-1-2.15-2.04-3.12-3.08l-0.12-0.13c-1.87-2-3.8-4.06-4.93-6.21
			c-1.14-2.17-2.12-4.44-2.94-6.4c-0.88-2.09-1.59-3.82-2.09-5.61c-0.41-1.48-0.62-2.98-0.84-4.57l-0.12-0.87
			c-0.24-1.7-0.41-3.35-0.6-5.33c-0.11-1.14-0.15-2-0.14-2.8c0.02-1.13,0.07-2.29,0.12-3.4c0.02-0.49,0.05-0.99,0.06-1.48
			c0.01-0.22,0.01-0.45,0-0.67c-0.01-0.35-0.01-0.65,0.05-0.88c0.07-0.28,0.15-0.57,0.22-0.85c0.36-1.41,0.69-2.74,1.23-4.02
			c1.08-2.56,2.2-5.21,3.71-7.75c3.93-6.59,7.25-11.88,10.45-16.63c1.33-1.98,3-3.94,4.62-5.85c0.75-0.89,1.54-1.81,2.28-2.72
			c0.19-0.23,0.38-0.46,0.58-0.69c0.55-0.63,1.11-1.29,1.54-2.04c0.36-0.62,0.42-1.36,0.18-2.08c-0.33-0.99-1.19-1.87-2.31-2.35
			c-0.74-0.32-1.59-0.49-2.47-0.49c-0.98,0-1.9,0.21-2.67,0.61c-1.06,0.55-2.05,1.22-2.84,1.92c-3.28,2.91-6.41,6.1-9.55,9.73
			c-3.37,3.9-6.64,8.27-10.3,13.75l-0.34,0.52c-0.62,0.93-1.2,1.81-1.93,2.62c-0.27,0.3-0.66,0.47-1.08,0.47
			c-0.45,0-0.88-0.2-1.19-0.54c-0.5-0.57-0.92-1.22-1.32-1.84c-0.92-1.43-1.1-2.71-0.56-4.01l0.55-1.34
			c0.86-2.11,1.74-4.3,2.71-6.41c1.4-3.04,2.79-6.01,4.4-8.9c1.63-2.94,3.44-5.92,5.19-8.79c0.53-0.87,1.05-1.73,1.57-2.6
			c1.78-2.96,3.64-5.96,5.28-8.61c0.35-0.57,0.72-1.13,1.09-1.69c0.67-1.02,1.37-2.08,1.96-3.18c0.35-0.65,0.71-1.3,1.07-1.96
			c1.38-2.5,2.81-5.09,3.72-7.8c0.44-1.31,0.93-2.65,1.41-3.94c0.55-1.48,1.11-3.01,1.61-4.54c0.59-1.79,0.98-3.6,1.36-5.35
			l0.01-0.05c0.49-2.29,0.91-4.59,1.22-6.34c0.29-1.63,0.54-3.31,0.76-5c0.24-1.9,0.42-3.6,0.55-5.22c0.06-0.78,0.07-1.56,0.09-2.31
			c0.01-0.46,0.01-0.93,0.03-1.39c0.02-0.59,0.06-1.18,0.09-1.77c0.04-0.75,0.09-1.5,0.11-2.25c0.03-0.81,0.03-1.62,0.04-2.44
			c0.01-0.6,0.01-1.2,0.03-1.81c0.03-1.24,0.07-2.47,0.1-3.71l0.05-1.77l0.03-1.26c0.02-0.86,0.04-1.72,0.08-2.58
			c0.06-1.45,0.12-2.9,0.19-4.35l0.05-1.13c0.06-1.28,0.12-2.57,0.18-3.85c0.03-0.59,0.06-1.17,0.1-1.76
			c0.07-1.28,0.15-2.61,0.19-3.93c0.03-0.76-0.21-1.46-0.38-1.92c-0.22-0.58-0.69-0.88-0.97-1.06c-0.04-0.03-0.08-0.05-0.12-0.08
			C147.43,26.29,147.11,26.19,146.79,26.19L146.79,26.19z"/>
	</g>
	<g>
		<g id="XMLID_00000047759596246139393920000014845328031696370305_">
			<g id="XMLID_00000029043038332268686280000003832106919869987484_">
				<path class="st3" d="M253.01,217.08c-2.47,0-5.01-0.57-7.16-1.62c-2.35-1.14-4.12-2.79-4.98-4.64c-0.96-2.06-0.76-4.23,0.6-6.26
					c0.11-0.16,0.28-0.27,0.47-0.31c0.05-0.01,0.09-0.01,0.14-0.01c0.14,0,0.29,0.04,0.41,0.13c0.02,0.02,2.45,1.66,5.02,3.04
					c-2.15-1.92-4-3.95-4.08-4.04c-0.13-0.15-0.2-0.35-0.19-0.55c0.02-0.2,0.11-0.38,0.27-0.51c1.53-1.24,3.19-1.86,4.92-1.86
					c2.09,0,4.22,0.9,6.33,2.67c1.57,1.32,2.99,3.05,4.12,5c1.23,2.16,1.9,4.26,2,6.26c0.01,0.26-0.11,0.5-0.33,0.64
					c-1.93,1.26-4.47,1.99-7.15,2.05L253.01,217.08z"/>
				<path class="st2" d="M248.44,201.18c2.08,0,4.09,1.01,5.86,2.5c1.52,1.28,2.89,2.96,3.96,4.81c1.06,1.85,1.8,3.89,1.9,5.93
					c-1.86,1.22-4.27,1.88-6.77,1.93c-0.13,0-0.25,0-0.38,0c-2.38,0-4.8-0.56-6.84-1.54c-2.14-1.04-3.83-2.56-4.64-4.29
					c-0.81-1.73-0.72-3.66,0.54-5.55c0,0,2.53,1.72,5.22,3.15c2.67,1.46,5.48,2.65,5.48,2.65s-2.42-1.77-4.61-3.76
					c-2.22-1.96-4.19-4.13-4.19-4.13C245.46,201.68,246.96,201.18,248.44,201.18 M248.44,199.72c-1.9,0-3.71,0.68-5.38,2.02
					c-0.31,0.25-0.51,0.62-0.54,1.02c-0.02,0.32,0.06,0.64,0.23,0.91c-0.21-0.11-0.44-0.17-0.67-0.17c-0.09,0-0.19,0.01-0.28,0.03
					c-0.38,0.07-0.72,0.3-0.93,0.62c-1.48,2.22-1.71,4.69-0.65,6.97c0.93,2,2.82,3.77,5.32,4.99c2.25,1.09,4.9,1.69,7.47,1.69
					c0.14,0,0.28,0,0.42-0.01c2.81-0.06,5.48-0.83,7.53-2.17c0.43-0.28,0.68-0.77,0.66-1.29c-0.1-2.11-0.8-4.33-2.09-6.58
					c-1.17-2.03-2.65-3.83-4.28-5.2C252.99,200.68,250.7,199.72,248.44,199.72L248.44,199.72z"/>
			</g>
		</g>
		<g id="XMLID_00000064314532843592992750000011404189563820089763_">
			<g id="XMLID_00000086650231436423865850000001164727468499860396_">
				<path class="st3" d="M256.55,195.21c-1.78,0-3.56-0.28-5.16-0.81c-2.48-0.83-4.45-2.23-5.54-3.96c-1.22-1.92-1.3-4.09-0.22-6.28
					c0.09-0.17,0.24-0.31,0.42-0.37c0.07-0.02,0.15-0.04,0.23-0.04c0.11,0,0.22,0.03,0.33,0.08c0.03,0.01,2.64,1.33,5.37,2.36
					c-2.38-1.62-4.47-3.39-4.56-3.47c-0.15-0.13-0.25-0.32-0.26-0.52c-0.01-0.2,0.06-0.4,0.2-0.54c1.61-1.69,3.5-2.55,5.59-2.55
					c1.8,0,3.71,0.63,5.67,1.89c1.73,1.11,3.36,2.64,4.73,4.43c1.5,1.98,2.44,3.98,2.79,5.95c0.05,0.25-0.05,0.51-0.24,0.68
					c-1.75,1.5-4.17,2.55-6.82,2.96C258.26,195.14,257.41,195.21,256.55,195.21C256.55,195.21,256.55,195.21,256.55,195.21z"/>
				<path class="st2" d="M252.96,179.85c1.79,0,3.6,0.7,5.28,1.77c1.68,1.07,3.25,2.56,4.55,4.26c1.29,1.7,2.29,3.62,2.65,5.63
					c-1.69,1.45-3.99,2.41-6.46,2.79c-0.8,0.12-1.62,0.19-2.43,0.19c-1.7,0-3.4-0.27-4.93-0.78c-2.26-0.75-4.13-2.04-5.15-3.65
					c-1.03-1.61-1.19-3.53-0.18-5.57c0,0,2.73,1.37,5.58,2.45c2.84,1.11,5.78,1.92,5.78,1.92s-2.63-1.44-5.06-3.13
					c-2.45-1.66-4.69-3.55-4.69-3.55C249.47,180.52,251.21,179.85,252.96,179.85 M252.96,178.39c-2.3,0-4.36,0.93-6.12,2.77
					c-0.28,0.29-0.42,0.68-0.4,1.08c0.02,0.32,0.14,0.63,0.35,0.87c-0.16-0.06-0.33-0.09-0.5-0.09c-0.16,0-0.31,0.02-0.46,0.08
					c-0.37,0.12-0.67,0.39-0.84,0.74c-1.18,2.39-1.09,4.88,0.26,7c1.18,1.87,3.28,3.38,5.92,4.25c1.67,0.56,3.53,0.85,5.39,0.85
					c0.9,0,1.79-0.07,2.65-0.2c2.78-0.42,5.33-1.53,7.18-3.12c0.39-0.34,0.58-0.85,0.48-1.36c-0.37-2.08-1.36-4.18-2.93-6.25
					c-1.42-1.86-3.12-3.45-4.92-4.6C256.94,179.07,254.9,178.39,252.96,178.39L252.96,178.39z"/>
			</g>
		</g>
		<g id="XMLID_00000097483847254664076800000016904268157186555797_">
			<g id="XMLID_00000033360948269234397720000008546448169830297987_">
				<path class="st3" d="M251.67,171.88c-2.15,0-4.03-0.51-5.46-1.48c-1.89-1.28-2.82-3.24-2.7-5.68c0.01-0.19,0.1-0.38,0.24-0.5
					c0.13-0.12,0.31-0.19,0.49-0.19c0.01,0,0.03,0,0.04,0c0.02,0,1.51,0.09,3.42,0.09c0.77,0,1.61-0.01,2.45-0.05
					c-2.83-0.54-5.45-1.34-5.57-1.37c-0.19-0.06-0.35-0.19-0.44-0.37c-0.09-0.18-0.1-0.39-0.03-0.58c1.27-3.45,3.98-5.27,7.84-5.27
					c0.71,0,1.46,0.06,2.23,0.19c2.02,0.33,4.13,1.08,6.1,2.18c2.16,1.22,3.82,2.68,4.93,4.35c0.14,0.21,0.16,0.49,0.05,0.72
					c-1.01,2.08-2.82,4-5.09,5.42c-2.19,1.38-4.79,2.27-7.31,2.49C252.47,171.86,252.07,171.88,251.67,171.88L251.67,171.88z"/>
				<path class="st2" d="M251.96,157.2c0.69,0,1.4,0.06,2.11,0.18c1.96,0.32,4,1.06,5.86,2.1c1.86,1.05,3.54,2.41,4.67,4.11
					c-0.97,2-2.7,3.8-4.82,5.13c-2.11,1.34-4.61,2.18-6.99,2.38c-0.38,0.03-0.76,0.05-1.13,0.05c-1.94,0-3.73-0.46-5.05-1.36
					c-1.58-1.07-2.49-2.77-2.38-5.04c0,0,1.51,0.09,3.46,0.09c0.82,0,1.73-0.02,2.63-0.06c3.05-0.11,6.06-0.53,6.06-0.53
					s-2.98-0.28-5.89-0.86c-2.91-0.55-5.72-1.4-5.72-1.4C246.11,158.46,248.86,157.2,251.96,157.2 M251.96,155.75
					c-4.13,0-7.16,2.04-8.52,5.74c-0.14,0.38-0.12,0.79,0.06,1.15c0.14,0.29,0.38,0.52,0.66,0.66c-0.33,0.02-0.64,0.15-0.89,0.37
					c-0.29,0.26-0.46,0.62-0.48,1.01c-0.13,2.67,0.94,4.91,3.02,6.32c1.54,1.05,3.57,1.61,5.86,1.61c0.41,0,0.84-0.02,1.26-0.06
					c2.63-0.23,5.35-1.15,7.64-2.6c2.38-1.49,4.28-3.52,5.35-5.72c0.23-0.46,0.19-1.01-0.1-1.44c-1.17-1.76-2.91-3.3-5.17-4.58
					c-2.05-1.14-4.24-1.92-6.34-2.27C253.5,155.81,252.71,155.75,251.96,155.75L251.96,155.75z"/>
			</g>
		</g>
		<g id="XMLID_00000046310143713353624880000011496935930737841027_">
			<g id="XMLID_00000173145176329783190570000004400271787133353372_">
				<path class="st3" d="M253.81,150.01c-1.81,0-3.45-0.4-4.72-1.16c-1.96-1.15-3.02-3.05-3.05-5.49c0-0.19,0.07-0.38,0.21-0.52
					s0.32-0.22,0.51-0.22c0.03,0,2.95-0.02,5.86-0.34c-2.85-0.36-5.53-0.99-5.64-1.01c-0.2-0.05-0.36-0.17-0.46-0.34
					c-0.1-0.17-0.12-0.38-0.07-0.57c1.13-3.79,4-5.79,8.31-5.79c0.46,0,0.93,0.02,1.42,0.07c2.04,0.2,4.19,0.82,6.23,1.79
					c2.24,1.08,3.98,2.43,5.19,4.02c0.16,0.21,0.19,0.48,0.09,0.72c-0.87,2.14-2.55,4.17-4.73,5.74c-2.1,1.52-4.63,2.57-7.13,2.95
					C255.14,149.95,254.46,150.01,253.81,150.01C253.81,150.01,253.81,150.01,253.81,150.01z"/>
				<path class="st2" d="M254.74,135.29c0.44,0,0.89,0.02,1.35,0.07c1.98,0.19,4.06,0.8,5.98,1.72c1.92,0.93,3.69,2.18,4.93,3.81
					c-0.84,2.06-2.45,3.96-4.48,5.42c-2.02,1.47-4.46,2.47-6.82,2.82c-0.64,0.1-1.28,0.15-1.9,0.15c-1.64,0-3.16-0.35-4.35-1.05
					c-1.65-0.97-2.67-2.6-2.7-4.88c0,0,3.05-0.02,6.08-0.36c3.03-0.31,6.02-0.92,6.02-0.92s-3-0.09-5.93-0.48
					c-2.94-0.36-5.79-1.03-5.79-1.03C248.3,136.65,251.33,135.29,254.74,135.29 M254.74,133.84c-4.6,0-7.8,2.24-9.01,6.31
					c-0.11,0.38-0.07,0.8,0.14,1.15c0.16,0.28,0.41,0.49,0.7,0.62c-0.33,0.04-0.63,0.19-0.86,0.43c-0.27,0.28-0.42,0.65-0.42,1.04
					c0.04,2.67,1.25,4.84,3.41,6.11c1.39,0.82,3.15,1.26,5.09,1.26c0.69,0,1.4-0.06,2.12-0.16c2.61-0.4,5.26-1.49,7.45-3.09
					c2.28-1.64,4.05-3.79,4.97-6.05c0.2-0.48,0.12-1.02-0.19-1.43c-1.28-1.68-3.12-3.11-5.45-4.23c-2.12-1.01-4.35-1.65-6.48-1.86
					C255.72,133.86,255.22,133.84,254.74,133.84L254.74,133.84z"/>
			</g>
		</g>
		<g id="XMLID_00000025444638409503904900000009542481128338885267_">
			<g id="XMLID_00000003804306069396133230000018269347319441400974_">
				<path class="st3" d="M253.13,105.59c-0.48,0-0.97-0.02-1.43-0.07c-2.6-0.25-4.83-1.17-6.29-2.61c-1.62-1.6-2.19-3.7-1.63-6.07
					c0.04-0.19,0.16-0.35,0.33-0.45c0.12-0.07,0.25-0.11,0.38-0.11c0.06,0,0.12,0.01,0.17,0.02c0.03,0.01,2.87,0.7,5.77,1.09
					c-2.68-1.05-5.12-2.3-5.23-2.35c-0.18-0.09-0.31-0.25-0.37-0.45c-0.06-0.19-0.03-0.4,0.07-0.57c1.53-2.58,3.87-3.95,6.75-3.95
					c1.27,0,2.63,0.26,4.07,0.77c1.93,0.69,3.87,1.81,5.61,3.25c1.91,1.59,3.27,3.33,4.06,5.16c0.1,0.24,0.07,0.51-0.08,0.72
					c-1.37,1.86-3.49,3.43-5.98,4.42C257.38,105.18,255.24,105.59,253.13,105.59z"/>
				<path class="st2" d="M251.66,90.81c1.25,0,2.55,0.27,3.83,0.73c1.87,0.67,3.74,1.76,5.39,3.12c1.64,1.37,3.05,3.01,3.85,4.89
					c-1.32,1.79-3.34,3.25-5.66,4.17c-1.88,0.76-3.95,1.15-5.94,1.15c-0.46,0-0.92-0.02-1.37-0.06c-2.37-0.22-4.49-1.06-5.84-2.4
					c-1.36-1.34-1.95-3.17-1.43-5.39c0,0,2.97,0.72,5.99,1.13c3.02,0.44,6.06,0.57,6.06,0.57s-2.88-0.82-5.63-1.91
					c-2.76-1.06-5.37-2.41-5.37-2.41C247.08,91.8,249.28,90.81,251.66,90.81 M251.66,89.35c-3.16,0-5.71,1.49-7.38,4.3
					c-0.2,0.34-0.26,0.76-0.15,1.14c0.09,0.31,0.28,0.58,0.53,0.77c-0.06-0.01-0.12-0.01-0.18-0.01c-0.27,0-0.53,0.07-0.76,0.21
					c-0.33,0.2-0.57,0.53-0.66,0.91c-0.61,2.6,0.04,5,1.83,6.76c1.57,1.55,3.96,2.55,6.73,2.81c0.49,0.05,0.99,0.07,1.5,0.07
					c2.2,0,4.44-0.43,6.48-1.25c2.61-1.04,4.85-2.69,6.29-4.66c0.31-0.42,0.37-0.96,0.17-1.44c-0.83-1.94-2.27-3.77-4.26-5.43
					c-1.81-1.49-3.82-2.66-5.83-3.37C254.46,89.63,253.01,89.35,251.66,89.35L251.66,89.35z"/>
			</g>
		</g>
		<g id="XMLID_00000083794790752886131420000013550011897629510842_">
			<g id="XMLID_00000025427194226071726820000012457167479220952752_">
				<path class="st3" d="M272.6,184.27c-2.61-0.04-4.91-0.78-6.47-2.1c-1.75-1.46-2.47-3.51-2.1-5.92c0.03-0.19,0.13-0.36,0.29-0.48
					c0.12-0.09,0.28-0.14,0.43-0.14c0.04,0,0.08,0,0.12,0.01c0.03,0,2.92,0.47,5.83,0.63c-2.76-0.83-5.29-1.89-5.4-1.93
					c-0.19-0.08-0.33-0.23-0.4-0.42s-0.06-0.4,0.03-0.58c1.44-2.94,3.93-4.5,7.2-4.5c1.04,0,2.17,0.16,3.34,0.47
					c1.98,0.54,4,1.5,5.85,2.79c2.03,1.43,3.53,3.06,4.46,4.83c0.12,0.23,0.11,0.5-0.03,0.72c-1.22,1.96-3.21,3.69-5.61,4.88
					c-2.25,1.12-4.84,1.73-7.3,1.73L272.6,184.27z"/>
				<path class="st2" d="M272.12,169.58c1.03,0,2.09,0.16,3.15,0.45c1.92,0.52,3.87,1.46,5.62,2.69c1.74,1.23,3.28,2.76,4.23,4.57
					c-1.17,1.89-3.07,3.5-5.32,4.61c-2.17,1.08-4.66,1.66-6.98,1.66c-0.07,0-0.14,0-0.21,0c-2.38-0.03-4.56-0.7-6.02-1.93
					c-1.46-1.23-2.2-3.01-1.85-5.26c0,0,3.01,0.49,6.06,0.65c1.46,0.09,2.91,0.12,4.04,0.12c1.22,0,2.05-0.03,2.05-0.03
					s-2.94-0.58-5.77-1.46c-2.84-0.84-5.54-1.97-5.54-1.97C267.04,170.69,269.45,169.58,272.12,169.58 M272.12,168.12
					c-3.56,0-6.28,1.7-7.85,4.91c-0.18,0.36-0.2,0.78-0.06,1.15c0.11,0.3,0.32,0.56,0.59,0.72c-0.02,0-0.04,0-0.07,0
					c-0.31,0-0.61,0.1-0.86,0.28c-0.31,0.23-0.52,0.57-0.58,0.96c-0.41,2.64,0.43,4.98,2.36,6.59c1.69,1.42,4.15,2.23,6.93,2.27
					l0.23,0c2.57,0,5.28-0.64,7.63-1.81c2.52-1.24,4.62-3.07,5.91-5.14c0.27-0.44,0.29-0.99,0.05-1.44
					c-0.98-1.87-2.56-3.58-4.68-5.08c-1.92-1.35-4.02-2.35-6.08-2.9C274.41,168.29,273.22,168.12,272.12,168.12L272.12,168.12z"/>
			</g>
		</g>
		<g id="XMLID_00000134938180594435031530000001051574751706586033_">
			<g id="XMLID_00000091012717625373400170000010153058410606690495_">
				<path class="st3" d="M278.72,161.34c-2.51,0-4.75-0.68-6.3-1.9c-1.79-1.41-2.58-3.43-2.29-5.85c0.02-0.19,0.12-0.37,0.28-0.49
					c0.13-0.1,0.29-0.15,0.45-0.15c0.03,0,0.06,0,0.09,0.01c0.03,0,2.93,0.38,5.85,0.45c-2.78-0.74-5.34-1.72-5.45-1.76
					c-0.19-0.07-0.34-0.22-0.41-0.4c-0.08-0.19-0.07-0.39,0.01-0.58c1.4-3.09,3.95-4.73,7.38-4.73c0.95,0,1.97,0.13,3.02,0.37
					c1.99,0.47,4.04,1.37,5.93,2.61c2.07,1.37,3.62,2.95,4.6,4.69c0.13,0.22,0.13,0.5,0,0.72c-1.15,2-3.09,3.79-5.46,5.05
					c-2.28,1.23-4.94,1.92-7.47,1.96L278.72,161.34z"/>
				<path class="st2" d="M278.32,146.66c0.93,0,1.89,0.13,2.86,0.36c1.94,0.46,3.92,1.34,5.7,2.51c1.78,1.18,3.36,2.66,4.37,4.44
					c-1.11,1.92-2.96,3.6-5.17,4.77c-2.2,1.18-4.76,1.84-7.14,1.88c-0.07,0-0.15,0-0.22,0c-2.3,0-4.4-0.6-5.85-1.74
					c-1.5-1.18-2.29-2.94-2.01-5.2c0,0,3.03,0.39,6.08,0.46c0.62,0.02,1.24,0.03,1.83,0.03c2.33,0,4.26-0.13,4.26-0.13
					s-2.96-0.49-5.81-1.28c-2.86-0.75-5.6-1.8-5.6-1.8C273.02,147.81,275.53,146.66,278.32,146.66 M278.32,145.2
					c-3.74,0-6.52,1.78-8.05,5.15c-0.17,0.37-0.17,0.78-0.02,1.15c0.12,0.3,0.34,0.55,0.62,0.71c-0.01,0-0.01,0-0.02,0
					c-0.32,0-0.64,0.11-0.89,0.31c-0.31,0.24-0.51,0.59-0.55,0.97c-0.32,2.65,0.59,4.96,2.56,6.52c1.67,1.32,4.07,2.06,6.75,2.06
					l0.25,0c2.64-0.04,5.41-0.77,7.8-2.05c2.48-1.32,4.52-3.21,5.74-5.32c0.26-0.45,0.26-1,0.01-1.45c-1.04-1.84-2.67-3.5-4.83-4.93
					c-1.96-1.28-4.09-2.22-6.17-2.71C280.4,145.34,279.33,145.2,278.32,145.2L278.32,145.2z"/>
			</g>
		</g>
		<g id="XMLID_00000108997219351635237600000012850452249999848882_">
			<g id="XMLID_00000062907510675419508980000018183180725302636986_">
				<path class="st3" d="M278.33,138c-1.92,0-3.64-0.44-4.97-1.26c-1.94-1.2-2.95-3.12-2.93-5.56c0-0.19,0.08-0.38,0.22-0.51
					c0.14-0.13,0.32-0.21,0.51-0.21c0,0,0.54,0,0.54,0c0.87,0,3.11-0.02,5.33-0.22c-2.85-0.42-5.51-1.11-5.62-1.14
					c-0.19-0.05-0.36-0.18-0.46-0.35c-0.1-0.18-0.12-0.38-0.06-0.57c1.18-3.67,4-5.61,8.14-5.61c0.55,0,1.12,0.03,1.7,0.1
					c2.04,0.24,4.18,0.91,6.19,1.92c2.21,1.13,3.93,2.52,5.1,4.13c0.15,0.21,0.18,0.48,0.08,0.72c-0.92,2.12-2.64,4.12-4.85,5.63
					c-2.13,1.48-4.69,2.47-7.2,2.8C279.48,137.97,278.9,138,278.33,138C278.33,138,278.33,138,278.33,138z"/>
				<path class="st2" d="M279.04,123.31c0.53,0,1.07,0.03,1.62,0.1c1.98,0.24,4.04,0.89,5.95,1.85c1.9,0.97,3.64,2.26,4.84,3.91
					c-0.89,2.04-2.54,3.91-4.6,5.33c-2.06,1.43-4.52,2.37-6.88,2.68c-0.56,0.07-1.11,0.11-1.64,0.11c-1.74,0-3.35-0.38-4.59-1.15
					c-1.63-1-2.61-2.66-2.59-4.93c0,0,0.2,0,0.54,0c1.01,0,3.28-0.03,5.55-0.23c3.04-0.24,6.04-0.79,6.04-0.79s-2.99-0.15-5.92-0.61
					c-2.93-0.42-5.77-1.15-5.77-1.15C272.8,124.63,275.74,123.31,279.04,123.31 M279.04,121.85c-4.43,0-7.57,2.17-8.84,6.11
					c-0.12,0.38-0.08,0.8,0.11,1.15c0.16,0.28,0.4,0.5,0.69,0.63c-0.33,0.03-0.63,0.18-0.87,0.41c-0.28,0.27-0.44,0.64-0.44,1.03
					c-0.02,2.67,1.14,4.86,3.28,6.18c1.44,0.89,3.29,1.37,5.35,1.37c0.6,0,1.22-0.04,1.83-0.12c2.62-0.34,5.29-1.38,7.52-2.92
					c2.31-1.59,4.13-3.7,5.1-5.94c0.21-0.47,0.15-1.02-0.16-1.44c-1.24-1.71-3.05-3.17-5.36-4.35c-2.09-1.05-4.32-1.74-6.43-2
					C280.22,121.89,279.61,121.85,279.04,121.85L279.04,121.85z"/>
			</g>
		</g>
		<g id="XMLID_00000174564623189636326400000010485778554332674738_">
			<g id="XMLID_00000004534011561129412500000013165313659061009544_">
				<path class="st3" d="M253.91,127.06c-1.92,0-3.64-0.44-4.97-1.26c-1.94-1.2-2.95-3.12-2.93-5.56c0-0.19,0.08-0.38,0.22-0.51
					c0.14-0.13,0.32-0.21,0.51-0.21c0,0,0.54,0,0.54,0c0.87,0,3.11-0.02,5.33-0.22c-2.85-0.42-5.51-1.11-5.62-1.14
					c-0.19-0.05-0.36-0.18-0.46-0.35c-0.1-0.18-0.12-0.38-0.06-0.57c1.18-3.67,4-5.61,8.14-5.61c0.55,0,1.12,0.03,1.7,0.1
					c2.04,0.24,4.17,0.91,6.19,1.92c2.21,1.13,3.93,2.52,5.1,4.13c0.15,0.21,0.18,0.48,0.08,0.72c-0.92,2.12-2.64,4.12-4.85,5.63
					c-2.13,1.48-4.69,2.47-7.2,2.8C255.06,127.02,254.48,127.06,253.91,127.06z"/>
				<path class="st2" d="M254.62,112.36c0.53,0,1.07,0.03,1.62,0.1c1.98,0.24,4.04,0.89,5.95,1.85c1.9,0.97,3.64,2.26,4.84,3.91
					c-0.89,2.04-2.54,3.91-4.6,5.33c-2.06,1.43-4.52,2.37-6.88,2.68c-0.56,0.07-1.11,0.11-1.64,0.11c-1.74,0-3.35-0.38-4.59-1.15
					c-1.63-1-2.61-2.66-2.59-4.93c0,0,0.2,0,0.54,0c1.01,0,3.28-0.03,5.55-0.23c3.04-0.24,6.04-0.79,6.04-0.79s-2.99-0.15-5.92-0.61
					c-2.93-0.42-5.77-1.15-5.77-1.15C248.38,113.69,251.32,112.36,254.62,112.36 M254.62,110.91c-4.43,0-7.57,2.17-8.84,6.11
					c-0.12,0.38-0.08,0.8,0.11,1.15c0.16,0.28,0.4,0.5,0.69,0.63c-0.33,0.03-0.63,0.18-0.87,0.41c-0.28,0.27-0.44,0.64-0.44,1.03
					c-0.02,2.67,1.14,4.86,3.28,6.18c1.44,0.89,3.29,1.37,5.35,1.37c0.6,0,1.22-0.04,1.83-0.12c2.62-0.34,5.29-1.38,7.52-2.92
					c2.31-1.59,4.13-3.7,5.1-5.94c0.21-0.47,0.15-1.02-0.16-1.44c-1.24-1.71-3.05-3.17-5.36-4.35c-2.09-1.05-4.32-1.74-6.43-2
					C255.8,110.94,255.19,110.91,254.62,110.91L254.62,110.91z"/>
			</g>
		</g>
		<g id="XMLID_00000034774022165491943190000011147978911179487911_">
			<g id="XMLID_00000011020619759957687110000003751630582692112531_">
				<path class="st3" d="M274.55,113.39c-1.23,0-2.34-0.21-3.32-0.62c-2.1-0.88-3.4-2.63-3.76-5.04c-0.03-0.19,0.02-0.39,0.14-0.54
					s0.29-0.26,0.48-0.28c0.03,0,2.93-0.41,5.77-1.12l-0.3,0c-2.78,0-5.33-0.25-5.43-0.26c-0.2-0.02-0.38-0.12-0.5-0.28
					c-0.12-0.16-0.17-0.36-0.14-0.56c0.68-4.3,3.83-6.77,8.88-6.96c0.19-0.01,0.38-0.01,0.57-0.01c1.88,0,3.9,0.33,5.84,0.95
					c2.36,0.77,4.27,1.88,5.68,3.3c0.18,0.18,0.25,0.45,0.19,0.7c-0.58,2.23-1.98,4.48-3.93,6.32c-1.88,1.79-4.25,3.16-6.68,3.87
					C276.85,113.21,275.68,113.39,274.55,113.39L274.55,113.39z"/>
				<path class="st2" d="M276.94,98.45c1.83,0,3.77,0.32,5.61,0.92c2.03,0.66,3.94,1.67,5.39,3.12c-0.56,2.15-1.9,4.25-3.72,5.97
					c-1.81,1.73-4.1,3.04-6.38,3.7c-1.12,0.33-2.23,0.5-3.28,0.5c-1.1,0-2.14-0.18-3.03-0.57c-1.76-0.74-2.99-2.23-3.32-4.48
					c0,0,3.02-0.42,5.98-1.17c2.96-0.71,5.84-1.71,5.84-1.71s-2.98,0.31-5.94,0.31c-0.17,0-0.34,0-0.51,0
					c-2.78,0-5.37-0.25-5.37-0.25c0.72-4.55,4.24-6.19,8.19-6.34C276.57,98.45,276.76,98.45,276.94,98.45 M276.94,96.99
					c-0.2,0-0.4,0-0.6,0.01c-5.44,0.2-8.84,2.89-9.57,7.57c-0.06,0.4,0.04,0.8,0.29,1.12c0.2,0.26,0.47,0.44,0.78,0.52
					c-0.32,0.08-0.6,0.27-0.8,0.54c-0.23,0.31-0.33,0.7-0.27,1.08c0.39,2.64,1.88,4.63,4.19,5.6c1.06,0.45,2.27,0.68,3.6,0.68
					c1.19,0,2.44-0.19,3.69-0.55c2.54-0.74,5.02-2.18,6.98-4.05c2.04-1.93,3.51-4.29,4.13-6.66c0.13-0.5-0.01-1.03-0.38-1.4
					c-1.49-1.5-3.5-2.67-5.97-3.47C280.99,97.34,278.9,96.99,276.94,96.99L276.94,96.99z"/>
			</g>
		</g>
		<g id="XMLID_00000092440590015974054130000013420003832959742864_">
			<g id="XMLID_00000108991563556682658370000014898420884953299624_">
				<path class="st3" d="M265,90.31c-0.57,0-1.12-0.06-1.63-0.17c-2.23-0.48-3.82-1.96-4.62-4.26c-0.06-0.18-0.05-0.38,0.04-0.56
					c0.09-0.17,0.24-0.31,0.42-0.37c0.03-0.01,2.8-0.94,5.46-2.15c-2.83,0.55-5.56,0.79-5.68,0.8c-0.02,0-0.04,0-0.06,0
					c-0.18,0-0.35-0.06-0.48-0.18c-0.15-0.13-0.24-0.32-0.24-0.52c-0.12-4.35,2.52-7.35,7.45-8.47c1.22-0.27,2.54-0.41,3.9-0.41
					c0.85,0,1.72,0.06,2.57,0.17c2.46,0.33,4.54,1.07,6.19,2.2c0.21,0.15,0.33,0.39,0.31,0.65c-0.16,2.3-1.12,4.76-2.7,6.93
					c-1.52,2.1-3.6,3.89-5.85,5.03C268.37,89.85,266.62,90.31,265,90.31L265,90.31z"/>
				<path class="st2" d="M269.56,74.74c0.82,0,1.66,0.05,2.48,0.16c2.11,0.28,4.18,0.92,5.87,2.08c-0.16,2.22-1.09,4.53-2.56,6.55
					c-1.46,2.03-3.47,3.74-5.6,4.81c-1.59,0.81-3.24,1.24-4.75,1.24c-0.51,0-1.01-0.05-1.48-0.15c-1.87-0.41-3.35-1.64-4.08-3.79
					c0,0,2.89-0.97,5.66-2.24c2.78-1.24,5.43-2.75,5.43-2.75s-2.87,0.85-5.78,1.39c-2.9,0.58-5.82,0.83-5.82,0.83
					c-0.13-4.6,3.03-6.87,6.89-7.74C267,74.87,268.27,74.74,269.56,74.74 M269.56,73.28c-1.42,0-2.78,0.15-4.06,0.43
					c-5.31,1.2-8.15,4.47-8.02,9.2c0.01,0.4,0.19,0.78,0.49,1.05c0.24,0.21,0.54,0.34,0.86,0.36c-0.3,0.14-0.54,0.38-0.69,0.67
					c-0.17,0.35-0.2,0.75-0.07,1.12c0.87,2.52,2.7,4.21,5.15,4.74c0.56,0.12,1.16,0.19,1.78,0.19c1.73,0,3.6-0.48,5.41-1.4
					c2.36-1.19,4.53-3.06,6.12-5.26c1.65-2.27,2.66-4.86,2.83-7.3c0.04-0.51-0.2-1.01-0.63-1.3c-1.74-1.2-3.93-1.98-6.5-2.32
					C271.34,73.34,270.44,73.28,269.56,73.28L269.56,73.28z"/>
			</g>
		</g>
		<g id="XMLID_00000005261578968635251620000016589484766378079116_">
			<g id="XMLID_00000008847576047669835550000005673598265867079810_">
				<path class="st3" d="M247.4,83.87c-1.87,0-3.55-0.84-4.87-2.43c-0.12-0.15-0.18-0.34-0.16-0.53c0.02-0.19,0.11-0.37,0.26-0.49
					c0.02-0.02,2.29-1.87,4.35-3.94c-2.45,1.51-4.92,2.7-5.03,2.75c-0.1,0.05-0.21,0.07-0.31,0.07c-0.09,0-0.18-0.02-0.26-0.05
					c-0.19-0.07-0.34-0.22-0.41-0.4c-1.65-4.02-0.23-7.77,3.99-10.55c1.71-1.13,3.78-2,5.97-2.52c1.3-0.3,2.55-0.46,3.73-0.46
					c1,0,1.95,0.11,2.84,0.33c0.25,0.06,0.45,0.25,0.52,0.5c0.66,2.21,0.63,4.85-0.08,7.44c-0.68,2.5-1.99,4.91-3.7,6.78
					c-1.76,1.93-3.85,3.15-5.87,3.45C248.03,83.85,247.71,83.87,247.4,83.87C247.4,83.87,247.4,83.87,247.4,83.87z"/>
				<path class="st2" d="M254.64,66.04c0.91,0,1.8,0.09,2.66,0.31c0.63,2.13,0.58,4.62-0.09,7.04c-0.65,2.41-1.93,4.72-3.54,6.48
					c-1.61,1.76-3.55,2.94-5.44,3.22c-0.28,0.04-0.57,0.06-0.85,0.06c-1.58,0-3.08-0.68-4.31-2.17c0,0,2.37-1.93,4.51-4.1
					c2.17-2.14,4.11-4.49,4.11-4.49s-2.39,1.81-4.92,3.34c-2.51,1.57-5.16,2.84-5.16,2.84c-1.74-4.26,0.41-7.49,3.71-9.67
					c1.66-1.09,3.66-1.92,5.74-2.42C252.26,66.21,253.46,66.04,254.64,66.04 M254.64,64.59c-1.23,0-2.54,0.16-3.89,0.47
					c-2.28,0.54-4.42,1.45-6.21,2.62c-4.54,2.99-6.05,7.05-4.26,11.44c0.15,0.37,0.45,0.66,0.82,0.81c0.17,0.06,0.35,0.1,0.52,0.1
					c0.14,0,0.28-0.02,0.41-0.06c-0.23,0.24-0.37,0.54-0.4,0.87c-0.04,0.39,0.08,0.77,0.33,1.07c1.46,1.76,3.34,2.7,5.43,2.7
					c0.35,0,0.71-0.03,1.06-0.08c2.18-0.32,4.42-1.62,6.3-3.67c1.79-1.95,3.16-4.46,3.87-7.08c0.75-2.71,0.77-5.49,0.08-7.83
					c-0.15-0.49-0.55-0.87-1.05-1C256.71,64.71,255.7,64.59,254.64,64.59L254.64,64.59z"/>
			</g>
		</g>
		<g id="XMLID_00000057850035407795304450000011318201908653700793_">
			<g id="XMLID_00000061437115146081413670000011285263004270269320_">
				<path class="st3" d="M208.73,129.24c-1.87,0-3.55-0.84-4.87-2.43c-0.12-0.15-0.18-0.34-0.16-0.53c0.02-0.19,0.11-0.37,0.26-0.49
					c0.02-0.02,2.29-1.87,4.35-3.94c-2.45,1.51-4.92,2.7-5.03,2.75c-0.1,0.05-0.21,0.07-0.32,0.07c-0.09,0-0.18-0.02-0.26-0.05
					c-0.19-0.07-0.34-0.22-0.41-0.4c-1.65-4.02-0.23-7.77,3.99-10.55c1.71-1.13,3.78-2,5.97-2.52c1.3-0.3,2.55-0.46,3.73-0.46
					c1,0,1.95,0.11,2.84,0.33c0.25,0.06,0.45,0.25,0.52,0.5c0.66,2.21,0.63,4.85-0.08,7.44c-0.68,2.5-1.99,4.91-3.7,6.78
					c-1.76,1.93-3.85,3.15-5.87,3.45C209.36,129.21,209.04,129.24,208.73,129.24L208.73,129.24z"/>
				<path class="st2" d="M215.97,111.41c0.91,0,1.8,0.09,2.66,0.31c0.63,2.13,0.58,4.62-0.09,7.04c-0.65,2.41-1.93,4.72-3.54,6.48
					c-1.61,1.76-3.55,2.94-5.44,3.22c-0.28,0.04-0.57,0.06-0.85,0.06c-1.58,0-3.08-0.68-4.31-2.17c0,0,2.37-1.93,4.51-4.1
					c2.17-2.14,4.11-4.49,4.11-4.49s-2.39,1.81-4.92,3.34c-2.51,1.57-5.16,2.84-5.16,2.84c-1.74-4.26,0.41-7.49,3.71-9.67
					c1.66-1.09,3.66-1.92,5.74-2.42C213.58,111.57,214.79,111.41,215.97,111.41 M215.97,109.96c-1.23,0-2.54,0.16-3.89,0.47
					c-2.28,0.54-4.42,1.45-6.21,2.62c-4.54,2.99-6.05,7.05-4.26,11.44c0.15,0.37,0.45,0.66,0.82,0.81c0.17,0.06,0.35,0.1,0.52,0.1
					c0.14,0,0.28-0.02,0.41-0.06c-0.23,0.24-0.37,0.54-0.4,0.87c-0.04,0.39,0.08,0.77,0.33,1.07c1.46,1.76,3.34,2.7,5.43,2.7
					c0.35,0,0.71-0.03,1.06-0.08c2.18-0.32,4.42-1.62,6.3-3.67c1.79-1.95,3.16-4.46,3.87-7.08c0.75-2.71,0.77-5.49,0.08-7.83
					c-0.15-0.49-0.55-0.87-1.05-1C218.04,110.07,217.03,109.96,215.97,109.96L215.97,109.96z"/>
			</g>
		</g>
		<g id="XMLID_00000046316902753459307480000012886337863477505183_">
			<g id="XMLID_00000125602768398256113500000013107588270693111719_">
				<path class="st3" d="M197.4,57.61c-0.29,0-0.58-0.02-0.88-0.06c-2.02-0.27-4.12-1.47-5.91-3.37c-1.73-1.85-3.08-4.24-3.79-6.73
					c-0.74-2.57-0.8-5.21-0.17-7.43c0.07-0.25,0.27-0.44,0.52-0.5c0.93-0.24,1.94-0.36,3-0.36c1.13,0,2.33,0.14,3.56,0.41
					c2.2,0.49,4.28,1.34,6,2.44c4.25,2.73,5.71,6.46,4.12,10.5c-0.07,0.19-0.22,0.33-0.41,0.41c-0.09,0.03-0.18,0.05-0.27,0.05
					c-0.1,0-0.21-0.02-0.31-0.07c-0.11-0.05-2.59-1.21-5.06-2.69c2.09,2.05,4.37,3.87,4.4,3.89c0.15,0.12,0.25,0.3,0.27,0.49
					c0.02,0.19-0.04,0.39-0.16,0.54C201.01,56.74,199.31,57.61,197.4,57.61z"/>
				<path class="st2" d="M190.18,39.87c1.13,0,2.28,0.15,3.41,0.39c2.08,0.47,4.09,1.27,5.77,2.35c3.33,2.14,5.52,5.34,3.83,9.62
					c0,0-2.66-1.24-5.19-2.77c-2.55-1.5-4.96-3.28-4.96-3.28s1.97,2.33,4.16,4.44c2.17,2.14,4.56,4.04,4.56,4.04
					c-1.23,1.52-2.75,2.22-4.35,2.22c-0.26,0-0.52-0.02-0.78-0.05c-1.89-0.25-3.85-1.41-5.48-3.15c-1.63-1.74-2.93-4.03-3.62-6.43
					c-0.69-2.4-0.78-4.9-0.17-7.03C188.27,39.97,189.22,39.87,190.18,39.87 M190.18,38.41C190.18,38.41,190.18,38.41,190.18,38.41
					c-1.12,0-2.19,0.13-3.18,0.39c-0.5,0.13-0.89,0.51-1.03,1.01c-0.67,2.35-0.61,5.13,0.17,7.84c0.74,2.6,2.14,5.1,3.95,7.03
					c1.9,2.03,4.15,3.31,6.35,3.6c0.32,0.04,0.65,0.07,0.97,0.07c2.13,0,4.02-0.96,5.48-2.76c0.24-0.3,0.36-0.69,0.31-1.07
					c-0.04-0.33-0.18-0.64-0.42-0.87c0.13,0.04,0.26,0.05,0.4,0.05c0.18,0,0.37-0.03,0.54-0.1c0.37-0.15,0.67-0.44,0.81-0.82
					c1.74-4.4,0.18-8.45-4.4-11.38c-1.8-1.15-3.95-2.03-6.23-2.54C192.61,38.55,191.36,38.41,190.18,38.41L190.18,38.41z"/>
			</g>
		</g>
		<g id="XMLID_00000075874506101165076050000008409971426396817033_">
			<g id="XMLID_00000088848077622715089470000010610622041743393184_">
				<path class="st3" d="M239.69,63.2c-1.02,0-2.07-0.27-3.1-0.79c-0.17-0.09-0.3-0.24-0.36-0.43s-0.04-0.39,0.05-0.56
					c0.01-0.03,1.36-2.62,2.43-5.34c-1.65,2.36-3.45,4.43-3.53,4.52c-0.13,0.15-0.32,0.24-0.52,0.25c-0.01,0-0.02,0-0.03,0
					c-0.19,0-0.37-0.07-0.51-0.21c-3.11-3.04-3.29-7.04-0.52-11.27c1.13-1.71,2.68-3.33,4.48-4.68c2-1.47,4.01-2.39,5.98-2.72
					c0.04-0.01,0.08-0.01,0.12-0.01c0.21,0,0.42,0.09,0.56,0.26c1.48,1.77,2.5,4.21,2.87,6.86c0.37,2.56,0.12,5.3-0.71,7.69
					c-0.85,2.47-2.28,4.42-4.02,5.49C241.88,62.89,240.81,63.2,239.69,63.2L239.69,63.2z"/>
				<path class="st2" d="M244.18,42.7c1.43,1.7,2.36,4.02,2.71,6.49c0.36,2.48,0.1,5.1-0.68,7.35c-0.78,2.25-2.09,4.11-3.72,5.11
					c-0.86,0.53-1.81,0.82-2.81,0.82c-0.89,0-1.81-0.23-2.76-0.71c0,0,1.41-2.71,2.52-5.55c1.14-2.83,1.99-5.75,1.99-5.75
					s-1.48,2.61-3.19,5.02c-1.69,2.43-3.61,4.65-3.61,4.65c-3.29-3.22-2.59-7.04-0.42-10.35c1.09-1.66,2.6-3.22,4.31-4.49
					C240.23,44.02,242.17,43.04,244.18,42.7 M244.18,41.25c-0.08,0-0.16,0.01-0.24,0.02c-2.09,0.35-4.2,1.31-6.29,2.85
					c-1.88,1.4-3.49,3.08-4.66,4.86c-2.98,4.55-2.76,8.88,0.62,12.19c0.27,0.27,0.64,0.42,1.02,0.42c0.02,0,0.04,0,0.06,0
					c0.32-0.01,0.63-0.13,0.87-0.34c-0.12,0.31-0.13,0.65-0.03,0.96c0.12,0.37,0.38,0.68,0.73,0.85c1.13,0.58,2.29,0.87,3.42,0.87
					c1.26,0,2.46-0.35,3.57-1.04c1.88-1.16,3.42-3.24,4.33-5.87c0.87-2.5,1.13-5.35,0.75-8.03c-0.39-2.78-1.47-5.35-3.03-7.22
					C245.02,41.44,244.61,41.25,244.18,41.25L244.18,41.25z"/>
			</g>
		</g>
		<g id="XMLID_00000113335738252767549790000018146801634996342711_">
			<g id="XMLID_00000098199478571514728810000017521037991002794120_">
				<path class="st3" d="M180.82,87.55c-1.31,0-2.59-0.44-3.81-1.3c-0.16-0.11-0.26-0.28-0.3-0.48s0.02-0.39,0.13-0.54
					c0.02-0.02,1.73-2.39,3.19-4.92c-1.98,2.09-4.07,3.87-4.16,3.95c-0.13,0.11-0.3,0.17-0.47,0.17c-0.03,0-0.05,0-0.08,0
					c-0.2-0.02-0.38-0.12-0.5-0.28c-2.62-3.47-2.22-7.45,1.15-11.22c1.37-1.53,3.14-2.9,5.13-3.96c2.19-1.16,4.32-1.77,6.31-1.81
					c0,0,0.01,0,0.01,0c0.25,0,0.49,0.13,0.62,0.35c1.2,1.97,1.85,4.53,1.83,7.21c-0.01,2.59-0.67,5.26-1.84,7.5
					c-1.21,2.31-2.91,4.03-4.79,4.83C182.45,87.38,181.64,87.55,180.82,87.55L180.82,87.55z"/>
				<path class="st2" d="M187.43,67.87c1.16,1.9,1.74,4.32,1.72,6.82c-0.01,2.5-0.65,5.06-1.76,7.17c-1.1,2.11-2.68,3.75-4.43,4.5
					c-0.69,0.3-1.41,0.46-2.14,0.46c-1.12,0-2.26-0.37-3.38-1.17c0,0,1.79-2.47,3.31-5.12c1.55-2.63,2.82-5.39,2.82-5.39
					s-1.85,2.36-3.9,4.49c-2.03,2.16-4.26,4.06-4.26,4.06c-2.78-3.67-1.52-7.35,1.11-10.3c1.33-1.48,3.05-2.8,4.93-3.81
					C183.33,68.59,185.39,67.91,187.43,67.87 M187.43,66.42c-0.01,0-0.02,0-0.03,0c-2.11,0.04-4.35,0.67-6.64,1.89
					c-2.07,1.11-3.91,2.53-5.33,4.12c-3.62,4.06-4.04,8.37-1.19,12.15c0.24,0.32,0.61,0.53,1,0.57c0.05,0.01,0.1,0.01,0.16,0.01
					c0.27,0,0.53-0.07,0.76-0.21c-0.16,0.29-0.22,0.62-0.17,0.95c0.06,0.38,0.28,0.72,0.59,0.95c1.34,0.95,2.76,1.44,4.23,1.44
					c0.92,0,1.83-0.19,2.72-0.57c2.03-0.87,3.86-2.7,5.15-5.17c1.23-2.34,1.91-5.12,1.92-7.83c0.03-2.81-0.66-5.51-1.93-7.59
					C188.41,66.68,187.94,66.42,187.43,66.42L187.43,66.42z"/>
			</g>
		</g>
		<g id="XMLID_00000062892560803972712070000005671947409781814438_">
			<g id="XMLID_00000089573722697564421490000004025604040255010197_">
				<path class="st3" d="M216.32,55.3c-1.31,0-2.59-0.44-3.81-1.3c-0.16-0.11-0.26-0.28-0.3-0.48s0.02-0.39,0.13-0.54
					c0.02-0.02,1.73-2.39,3.19-4.92c-1.98,2.09-4.07,3.87-4.16,3.95c-0.13,0.11-0.3,0.17-0.47,0.17c-0.03,0-0.05,0-0.08,0
					c-0.2-0.02-0.38-0.12-0.5-0.28c-2.62-3.47-2.22-7.45,1.15-11.22c1.37-1.53,3.14-2.9,5.13-3.96c2.19-1.16,4.32-1.77,6.31-1.81
					c0,0,0.01,0,0.01,0c0.25,0,0.49,0.13,0.62,0.35c1.2,1.97,1.85,4.53,1.83,7.21c-0.01,2.59-0.67,5.26-1.84,7.5
					c-1.21,2.31-2.91,4.03-4.79,4.83C217.96,55.12,217.14,55.3,216.32,55.3L216.32,55.3z"/>
				<path class="st2" d="M222.94,35.62c1.16,1.9,1.74,4.32,1.72,6.82c-0.01,2.5-0.65,5.06-1.76,7.17c-1.1,2.11-2.68,3.75-4.43,4.5
					c-0.69,0.3-1.41,0.46-2.14,0.46c-1.12,0-2.26-0.37-3.38-1.17c0,0,1.79-2.47,3.31-5.12c1.55-2.63,2.82-5.39,2.82-5.39
					s-1.85,2.36-3.9,4.49c-2.03,2.16-4.26,4.06-4.26,4.06c-2.78-3.67-1.52-7.35,1.11-10.3c1.33-1.48,3.05-2.8,4.93-3.81
					C218.83,36.34,220.89,35.66,222.94,35.62 M222.94,34.17c-0.01,0-0.02,0-0.03,0c-2.11,0.04-4.35,0.67-6.64,1.89
					c-2.07,1.11-3.91,2.53-5.33,4.12c-3.62,4.06-4.04,8.37-1.19,12.15c0.24,0.32,0.61,0.53,1,0.57c0.05,0.01,0.1,0.01,0.16,0.01
					c0.27,0,0.53-0.07,0.76-0.21c-0.16,0.29-0.22,0.62-0.17,0.95c0.06,0.38,0.28,0.72,0.59,0.95c1.34,0.95,2.76,1.44,4.23,1.44
					c0.92,0,1.83-0.19,2.72-0.57c2.03-0.87,3.86-2.7,5.15-5.17c1.23-2.34,1.91-5.12,1.92-7.83c0.03-2.81-0.66-5.51-1.93-7.59
					C223.91,34.43,223.44,34.17,222.94,34.17L222.94,34.17z"/>
			</g>
		</g>
		<g id="XMLID_00000106105767070058393020000010044921055109093534_">
			<g id="XMLID_00000065048537287637222390000001725036422755441547_">
				<path class="st3" d="M173.45,65.54c-1.05,0-2.11-0.28-3.15-0.83c-0.17-0.09-0.3-0.25-0.36-0.43c-0.06-0.19-0.04-0.39,0.05-0.56
					c0.01-0.03,1.39-2.61,2.49-5.31c-1.68,2.34-3.5,4.39-3.58,4.48c-0.13,0.15-0.32,0.24-0.52,0.24c-0.01,0-0.01,0-0.02,0
					c-0.19,0-0.38-0.08-0.52-0.21c-3.07-3.08-3.21-7.08-0.39-11.27c1.15-1.7,2.72-3.3,4.54-4.63c2.01-1.45,4.03-2.34,6.01-2.65
					c0.04-0.01,0.07-0.01,0.11-0.01c0.22,0,0.42,0.1,0.56,0.27c1.46,1.79,2.45,4.23,2.79,6.89c0.34,2.57,0.05,5.3-0.8,7.68
					c-0.88,2.46-2.33,4.39-4.09,5.44C175.6,65.24,174.55,65.54,173.45,65.54C173.45,65.54,173.45,65.54,173.45,65.54z"/>
				<path class="st2" d="M178.12,45.1c1.41,1.72,2.32,4.04,2.63,6.52c0.33,2.48,0.04,5.1-0.77,7.34c-0.8,2.24-2.14,4.08-3.78,5.06
					c-0.85,0.51-1.78,0.79-2.76,0.79c-0.9,0-1.85-0.24-2.82-0.74c0,0,1.44-2.69,2.58-5.52c1.17-2.81,2.06-5.73,2.06-5.73
					s-1.51,2.59-3.25,4.98c-1.72,2.41-3.66,4.6-3.66,4.6c-3.25-3.26-2.51-7.07-0.3-10.35c1.11-1.65,2.64-3.19,4.36-4.44
					C174.15,46.37,176.1,45.41,178.12,45.1 M178.12,43.64c-0.07,0-0.15,0.01-0.22,0.02c-2.09,0.32-4.22,1.26-6.32,2.78
					c-1.89,1.38-3.52,3.04-4.72,4.81c-3.04,4.51-2.87,8.84,0.48,12.2c0.27,0.27,0.64,0.43,1.03,0.43c0.01,0,0.03,0,0.04,0
					c0.32-0.01,0.63-0.13,0.88-0.33c-0.12,0.31-0.13,0.64-0.04,0.96c0.11,0.37,0.37,0.68,0.72,0.86c1.15,0.6,2.33,0.91,3.49,0.91
					c1.23,0,2.41-0.34,3.51-1c1.89-1.14,3.45-3.2,4.39-5.82c0.9-2.49,1.19-5.34,0.84-8.02c-0.36-2.79-1.4-5.36-2.95-7.25
					C178.96,43.83,178.55,43.64,178.12,43.64L178.12,43.64z"/>
			</g>
		</g>
		<g id="XMLID_00000060714239594002869010000012242480197925556117_">
			<g id="XMLID_00000109009423128030509680000010246463592034119357_">
				<path class="st3" d="M202.54,37.37c-1.05,0-2.11-0.28-3.15-0.83c-0.17-0.09-0.3-0.25-0.36-0.43c-0.06-0.19-0.04-0.39,0.05-0.56
					c0.01-0.03,1.39-2.61,2.49-5.31c-1.68,2.34-3.5,4.39-3.58,4.48c-0.13,0.15-0.32,0.24-0.52,0.24c-0.01,0-0.01,0-0.02,0
					c-0.19,0-0.38-0.08-0.52-0.21c-3.07-3.08-3.21-7.08-0.39-11.27c1.15-1.7,2.72-3.3,4.54-4.62c2.01-1.45,4.04-2.34,6.01-2.65
					c0.04-0.01,0.07-0.01,0.11-0.01c0.22,0,0.42,0.1,0.56,0.27c1.46,1.79,2.45,4.23,2.79,6.89c0.34,2.57,0.05,5.3-0.8,7.68
					c-0.88,2.46-2.33,4.39-4.09,5.44C204.69,37.07,203.64,37.37,202.54,37.37L202.54,37.37z"/>
				<path class="st2" d="M207.21,16.92c1.41,1.72,2.32,4.04,2.63,6.52c0.33,2.48,0.04,5.1-0.77,7.34c-0.8,2.24-2.14,4.08-3.78,5.06
					c-0.85,0.51-1.78,0.79-2.76,0.79c-0.9,0-1.85-0.24-2.82-0.74c0,0,1.44-2.69,2.58-5.52c1.17-2.81,2.06-5.73,2.06-5.73
					s-1.51,2.59-3.25,4.98c-1.72,2.41-3.66,4.6-3.66,4.6c-3.25-3.26-2.51-7.07-0.3-10.35c1.11-1.65,2.64-3.19,4.36-4.44
					C203.24,18.2,205.19,17.24,207.21,16.92 M207.21,15.47c-0.07,0-0.15,0.01-0.22,0.02c-2.09,0.32-4.22,1.26-6.32,2.78
					c-1.9,1.38-3.52,3.04-4.72,4.81c-3.04,4.51-2.86,8.84,0.48,12.2c0.27,0.27,0.64,0.43,1.03,0.43c0.01,0,0.03,0,0.04,0
					c0.32-0.01,0.63-0.13,0.88-0.33c-0.12,0.31-0.13,0.64-0.04,0.96c0.11,0.37,0.37,0.68,0.72,0.86c1.15,0.6,2.33,0.91,3.49,0.91
					c1.23,0,2.41-0.34,3.51-1c1.89-1.14,3.45-3.2,4.39-5.82c0.9-2.49,1.19-5.34,0.84-8.02c-0.36-2.79-1.4-5.36-2.95-7.25
					C208.05,15.66,207.64,15.47,207.21,15.47L207.21,15.47z"/>
			</g>
		</g>
		<g id="XMLID_00000061445018446188079260000000743455695539158710_">
			<g id="XMLID_00000171686956034980094900000012769641946945549208_">
				<path class="st3" d="M162.65,46.44c-1.05,0-2.11-0.28-3.15-0.83c-0.17-0.09-0.3-0.25-0.36-0.43c-0.06-0.19-0.04-0.39,0.05-0.56
					c0.01-0.03,1.39-2.61,2.49-5.31c-1.68,2.34-3.5,4.39-3.58,4.48c-0.13,0.15-0.32,0.24-0.52,0.24c-0.01,0-0.01,0-0.02,0
					c-0.19,0-0.38-0.08-0.52-0.21c-3.07-3.08-3.21-7.08-0.39-11.27c1.15-1.7,2.72-3.3,4.54-4.62c2.01-1.45,4.04-2.34,6.01-2.65
					c0.04-0.01,0.07-0.01,0.11-0.01c0.22,0,0.42,0.1,0.56,0.27c1.46,1.79,2.45,4.23,2.79,6.89c0.34,2.57,0.05,5.3-0.8,7.68
					c-0.88,2.46-2.33,4.39-4.09,5.44C164.8,46.14,163.75,46.44,162.65,46.44L162.65,46.44z"/>
				<path class="st2" d="M167.32,25.99c1.41,1.72,2.32,4.04,2.63,6.52c0.33,2.48,0.04,5.1-0.77,7.34c-0.8,2.24-2.14,4.08-3.78,5.06
					c-0.85,0.51-1.78,0.79-2.76,0.79c-0.9,0-1.85-0.24-2.82-0.74c0,0,1.44-2.69,2.58-5.52c1.17-2.81,2.06-5.73,2.06-5.73
					s-1.51,2.59-3.25,4.98c-1.72,2.41-3.66,4.6-3.66,4.6c-3.25-3.26-2.51-7.07-0.3-10.35c1.11-1.65,2.64-3.19,4.36-4.44
					C163.35,27.26,165.3,26.3,167.32,25.99 M167.32,24.54c-0.07,0-0.15,0.01-0.22,0.02c-2.09,0.32-4.22,1.26-6.32,2.78
					c-1.9,1.38-3.52,3.04-4.72,4.81c-3.04,4.51-2.86,8.84,0.48,12.2c0.27,0.27,0.64,0.43,1.03,0.43c0.01,0,0.03,0,0.04,0
					c0.32-0.01,0.63-0.13,0.88-0.33c-0.12,0.31-0.13,0.64-0.04,0.96c0.11,0.37,0.37,0.68,0.72,0.86c1.15,0.6,2.33,0.91,3.49,0.91
					c1.23,0,2.41-0.34,3.51-1c1.89-1.14,3.45-3.2,4.39-5.82c0.9-2.49,1.19-5.34,0.84-8.02c-0.36-2.79-1.4-5.36-2.95-7.25
					C168.17,24.73,167.75,24.54,167.32,24.54L167.32,24.54z"/>
			</g>
		</g>
		<g id="XMLID_00000132059332331482878390000006318628894745778325_">
			<g id="XMLID_00000005257595150030103610000000212792940569723026_">
				<path class="st3" d="M204.07,79.74c-1.16,0-2.26-0.33-3.28-0.99c-1.72-1.1-3.11-3.08-3.92-5.56c-0.78-2.4-0.99-5.14-0.57-7.7
					c0.42-2.64,1.49-5.06,3-6.8c0.14-0.16,0.34-0.25,0.55-0.25c0.04,0,0.09,0,0.13,0.01c1.97,0.37,3.96,1.32,5.92,2.83
					c1.78,1.38,3.3,3.03,4.4,4.76c2.69,4.28,2.43,8.27-0.73,11.26c-0.14,0.13-0.31,0.2-0.5,0.2c-0.01,0-0.03,0-0.04,0
					c-0.2-0.01-0.39-0.11-0.52-0.26c-0.08-0.09-1.83-2.19-3.44-4.59c1.02,2.74,2.32,5.36,2.33,5.39c0.09,0.17,0.1,0.38,0.04,0.56
					c-0.06,0.18-0.2,0.33-0.37,0.42C206.07,79.49,205.06,79.74,204.07,79.74z"/>
				<path class="st2" d="M199.85,59.16c2.01,0.38,3.92,1.39,5.61,2.69c1.68,1.31,3.16,2.89,4.23,4.57
					c2.11,3.35,2.73,7.18-0.62,10.34c0,0-1.88-2.25-3.52-4.71c-1.67-2.44-3.1-5.08-3.1-5.08s0.8,2.94,1.88,5.79
					c1.06,2.86,2.41,5.6,2.41,5.6c-0.92,0.45-1.82,0.66-2.68,0.66c-1.04,0-2.01-0.31-2.89-0.88c-1.6-1.03-2.88-2.91-3.62-5.18
					c-0.74-2.26-0.94-4.89-0.54-7.36C197.41,63.13,198.39,60.83,199.85,59.16 M199.85,57.7c-0.42,0-0.82,0.18-1.1,0.5
					c-1.6,1.84-2.73,4.39-3.17,7.17c-0.43,2.67-0.22,5.53,0.6,8.04c0.86,2.64,2.36,4.76,4.22,5.95c1.14,0.73,2.37,1.11,3.67,1.11
					c1.1,0,2.21-0.27,3.32-0.81c0.35-0.17,0.62-0.47,0.74-0.84c0.11-0.31,0.1-0.65-0.01-0.96c0.24,0.21,0.54,0.33,0.87,0.35
					c0.03,0,0.06,0,0.09,0c0.37,0,0.73-0.14,1-0.4c3.44-3.25,3.75-7.57,0.85-12.17c-1.14-1.81-2.72-3.52-4.57-4.95
					c-2.06-1.58-4.16-2.58-6.24-2.97C200.03,57.71,199.94,57.7,199.85,57.7L199.85,57.7z"/>
			</g>
		</g>
		<g id="XMLID_00000038374566105855996900000002174837834230103698_">
			<g id="XMLID_00000051354166471320639700000017516862318391928226_">
				<path class="st3" d="M182.31,39.26c-1.16,0-2.26-0.33-3.28-0.99c-1.72-1.1-3.11-3.08-3.92-5.56c-0.78-2.41-0.99-5.14-0.57-7.7
					c0.42-2.64,1.48-5.06,3-6.8c0.14-0.16,0.34-0.25,0.55-0.25c0.04,0,0.09,0,0.13,0.01c1.97,0.37,3.96,1.32,5.92,2.83
					c1.78,1.38,3.3,3.03,4.4,4.76c2.69,4.28,2.43,8.27-0.73,11.26c-0.14,0.13-0.31,0.2-0.5,0.2c-0.01,0-0.03,0-0.04,0
					c-0.2-0.01-0.39-0.11-0.52-0.26c-0.08-0.09-1.83-2.19-3.44-4.59c1.02,2.74,2.32,5.36,2.33,5.39c0.09,0.17,0.1,0.38,0.04,0.56
					c-0.06,0.18-0.2,0.33-0.37,0.42C184.31,39.01,183.3,39.26,182.31,39.26z"/>
				<path class="st2" d="M178.09,18.67c2.01,0.38,3.92,1.39,5.61,2.69c1.68,1.31,3.16,2.89,4.23,4.57
					c2.11,3.35,2.73,7.18-0.62,10.34c0,0-1.88-2.25-3.52-4.71c-1.67-2.44-3.1-5.08-3.1-5.08s0.8,2.94,1.88,5.79
					c1.06,2.86,2.41,5.6,2.41,5.6c-0.92,0.45-1.82,0.66-2.68,0.66c-1.04,0-2.01-0.31-2.89-0.88c-1.6-1.03-2.88-2.91-3.62-5.18
					c-0.74-2.26-0.94-4.89-0.54-7.36C175.65,22.64,176.63,20.35,178.09,18.67 M178.09,17.22c-0.42,0-0.82,0.18-1.1,0.5
					c-1.6,1.84-2.73,4.39-3.17,7.17c-0.43,2.67-0.22,5.53,0.6,8.04c0.86,2.64,2.36,4.76,4.22,5.95c1.14,0.73,2.37,1.11,3.67,1.11
					c1.1,0,2.21-0.27,3.32-0.81c0.35-0.17,0.62-0.47,0.74-0.84c0.11-0.31,0.1-0.65-0.01-0.96c0.24,0.21,0.54,0.33,0.87,0.35
					c0.03,0,0.06,0,0.09,0c0.37,0,0.73-0.14,1-0.4c3.44-3.25,3.75-7.57,0.85-12.17c-1.14-1.81-2.72-3.52-4.57-4.95
					c-2.06-1.58-4.16-2.58-6.24-2.97C178.27,17.23,178.18,17.22,178.09,17.22L178.09,17.22z"/>
			</g>
		</g>
		<g id="XMLID_00000043427035529234783810000009764669406487574912_">
			<g id="XMLID_00000065772657918956118250000015019900050718382501_">
				<path class="st3" d="M155.93,24.05c-1.16,0-2.26-0.33-3.28-0.99c-1.72-1.1-3.11-3.08-3.92-5.56c-0.78-2.41-0.99-5.14-0.57-7.7
					c0.42-2.64,1.49-5.06,3-6.8c0.14-0.16,0.34-0.25,0.55-0.25c0.04,0,0.09,0,0.13,0.01c1.96,0.37,3.96,1.32,5.92,2.83
					c1.78,1.38,3.3,3.03,4.4,4.76c2.69,4.28,2.43,8.27-0.73,11.26c-0.14,0.13-0.31,0.2-0.5,0.2c-0.01,0-0.03,0-0.04,0
					c-0.2-0.01-0.39-0.11-0.52-0.26c-0.08-0.09-1.83-2.19-3.44-4.59c1.02,2.74,2.32,5.36,2.33,5.39c0.09,0.17,0.1,0.37,0.04,0.56
					c-0.06,0.18-0.2,0.33-0.37,0.42C157.92,23.81,156.91,24.05,155.93,24.05z"/>
				<path class="st2" d="M151.7,3.47c2.01,0.38,3.92,1.39,5.61,2.69c1.68,1.31,3.16,2.89,4.23,4.57c2.11,3.35,2.73,7.18-0.62,10.34
					c0,0-1.88-2.25-3.52-4.71c-1.67-2.44-3.1-5.08-3.1-5.08s0.8,2.94,1.88,5.79c1.06,2.86,2.41,5.6,2.41,5.6
					c-0.92,0.45-1.82,0.66-2.68,0.66c-1.04,0-2.01-0.31-2.89-0.88c-1.6-1.03-2.88-2.91-3.62-5.18c-0.74-2.26-0.94-4.89-0.54-7.36
					C149.27,7.44,150.25,5.15,151.7,3.47 M151.7,2.01c-0.42,0-0.82,0.18-1.1,0.5c-1.6,1.84-2.73,4.39-3.17,7.17
					c-0.43,2.67-0.22,5.53,0.6,8.04c0.86,2.64,2.36,4.76,4.22,5.95c1.14,0.73,2.37,1.11,3.67,1.11c1.1,0,2.21-0.27,3.32-0.81
					c0.35-0.17,0.62-0.47,0.74-0.84c0.11-0.31,0.1-0.65-0.01-0.96c0.24,0.21,0.54,0.33,0.87,0.35c0.03,0,0.06,0,0.09,0
					c0.37,0,0.73-0.14,1-0.4c3.44-3.25,3.75-7.57,0.85-12.17c-1.14-1.81-2.72-3.52-4.57-4.95c-2.06-1.58-4.16-2.58-6.24-2.97
					C151.88,2.02,151.79,2.01,151.7,2.01L151.7,2.01z"/>
			</g>
		</g>
		<g id="XMLID_00000104708087791629325200000017838787307599994756_">
			<g id="XMLID_00000089572265719384923820000010720006634979437994_">
				<path class="st3" d="M194.31,154.5c-1.16,0-2.26-0.33-3.28-0.99c-1.72-1.1-3.11-3.08-3.92-5.56c-0.78-2.41-0.99-5.14-0.57-7.7
					c0.42-2.64,1.49-5.06,3-6.8c0.14-0.16,0.34-0.25,0.55-0.25c0.04,0,0.09,0,0.13,0.01c1.97,0.37,3.96,1.32,5.92,2.83
					c1.78,1.38,3.3,3.03,4.4,4.76c2.69,4.28,2.43,8.27-0.73,11.26c-0.14,0.13-0.31,0.2-0.5,0.2c-0.01,0-0.03,0-0.04,0
					c-0.2-0.01-0.39-0.11-0.52-0.26c-0.08-0.09-1.83-2.19-3.44-4.58c1.02,2.74,2.32,5.36,2.33,5.39c0.09,0.17,0.1,0.38,0.04,0.56
					c-0.06,0.18-0.2,0.33-0.37,0.42C196.31,154.25,195.3,154.5,194.31,154.5z"/>
				<path class="st2" d="M190.09,133.92c2.01,0.38,3.92,1.39,5.61,2.69c1.68,1.31,3.16,2.89,4.23,4.57
					c2.11,3.35,2.73,7.18-0.62,10.34c0,0-1.88-2.25-3.52-4.71c-1.67-2.44-3.1-5.08-3.1-5.08s0.8,2.94,1.88,5.79
					c1.06,2.86,2.41,5.6,2.41,5.6c-0.92,0.45-1.82,0.66-2.68,0.66c-1.04,0-2.01-0.31-2.89-0.88c-1.6-1.03-2.88-2.91-3.62-5.18
					c-0.74-2.26-0.94-4.89-0.54-7.36C187.65,137.89,188.63,135.59,190.09,133.92 M190.09,132.46c-0.42,0-0.82,0.18-1.1,0.5
					c-1.6,1.84-2.73,4.39-3.17,7.17c-0.43,2.67-0.22,5.53,0.6,8.04c0.86,2.64,2.36,4.76,4.22,5.95c1.14,0.73,2.37,1.11,3.67,1.11
					c1.1,0,2.21-0.27,3.32-0.81c0.35-0.17,0.62-0.47,0.74-0.84c0.11-0.31,0.1-0.65-0.01-0.96c0.24,0.21,0.54,0.33,0.87,0.35
					c0.03,0,0.06,0,0.09,0c0.37,0,0.73-0.14,1-0.4c3.44-3.25,3.75-7.57,0.85-12.17c-1.14-1.81-2.72-3.52-4.57-4.95
					c-2.06-1.58-4.16-2.58-6.24-2.97C190.27,132.47,190.18,132.46,190.09,132.46L190.09,132.46z"/>
			</g>
		</g>
		<g id="XMLID_00000068650851507250413800000015675621799983089798_">
			<g id="XMLID_00000003789699228102574140000008857688578725192348_">
				<path class="st3" d="M223.05,78.16c-2.04,0-3.76-0.83-4.97-2.41c-1.24-1.62-1.89-3.95-1.81-6.56c0.08-2.53,0.81-5.17,2.07-7.44
					c1.29-2.35,3.11-4.26,5.12-5.39c0.11-0.06,0.23-0.09,0.36-0.09c0.13,0,0.25,0.03,0.37,0.1c1.73,1.01,3.28,2.58,4.62,4.66
					c1.21,1.9,2.08,3.97,2.53,5.97c1.09,4.93-0.51,8.61-4.5,10.35c-0.09,0.04-0.19,0.06-0.29,0.06c-0.1,0-0.19-0.02-0.29-0.06
					c-0.18-0.08-0.33-0.23-0.4-0.42c-0.04-0.11-0.98-2.68-1.69-5.48c0.04,2.93,0.37,5.83,0.37,5.86c0.02,0.19-0.03,0.39-0.15,0.54
					s-0.3,0.25-0.49,0.27C223.62,78.14,223.33,78.16,223.05,78.16z"/>
				<path class="st2" d="M223.83,56.99c1.77,1.03,3.22,2.64,4.37,4.43c1.14,1.8,2,3.79,2.43,5.73c0.85,3.86,0.14,7.68-4.08,9.52
					c0,0-1.01-2.75-1.72-5.63c-0.74-2.86-1.2-5.83-1.2-5.83s-0.24,3.04-0.18,6.08c0.03,3.05,0.38,6.08,0.38,6.08
					c-0.27,0.03-0.53,0.04-0.78,0.04c-1.89,0-3.37-0.79-4.39-2.13c-1.16-1.51-1.73-3.72-1.66-6.1c0.07-2.38,0.76-4.92,1.98-7.11
					C220.19,59.9,221.89,58.07,223.83,56.99 M223.83,55.53c-0.24,0-0.49,0.06-0.71,0.19c-2.13,1.19-4.05,3.21-5.41,5.67
					c-1.31,2.36-2.08,5.12-2.16,7.77c-0.08,2.78,0.61,5.27,1.96,7.03c1.35,1.76,3.27,2.7,5.54,2.7c0.3,0,0.62-0.02,0.93-0.05
					c0.39-0.04,0.74-0.24,0.98-0.54c0.21-0.26,0.32-0.58,0.32-0.91c0.16,0.28,0.4,0.5,0.7,0.62c0.18,0.08,0.38,0.12,0.57,0.12
					c0.2,0,0.4-0.04,0.58-0.12c4.34-1.89,6.09-5.86,4.92-11.17c-0.46-2.08-1.37-4.23-2.62-6.2c-1.41-2.19-3.04-3.84-4.87-4.91
					C224.33,55.6,224.08,55.53,223.83,55.53L223.83,55.53z"/>
			</g>
		</g>
		<g id="XMLID_00000163052959388301828310000000665916015665883055_">
			<g id="XMLID_00000058549872512627090860000000586791467642043306_">
				<path class="st3" d="M242.94,236.11c-2.47,0-5.01-0.57-7.16-1.62c-2.35-1.14-4.12-2.79-4.98-4.64c-0.96-2.06-0.76-4.23,0.6-6.26
					c0.11-0.16,0.28-0.27,0.47-0.31c0.05-0.01,0.09-0.01,0.14-0.01c0.14,0,0.29,0.04,0.41,0.13c0.02,0.02,2.45,1.66,5.02,3.04
					c-2.15-1.92-4-3.95-4.08-4.04c-0.13-0.15-0.2-0.35-0.19-0.55c0.02-0.2,0.11-0.38,0.27-0.51c1.53-1.24,3.19-1.86,4.92-1.86
					c2.09,0,4.22,0.9,6.33,2.67c1.57,1.32,2.99,3.05,4.12,5c1.23,2.16,1.9,4.26,2,6.26c0.01,0.26-0.11,0.5-0.33,0.64
					c-1.93,1.26-4.47,1.99-7.15,2.05L242.94,236.11z"/>
				<path class="st2" d="M238.37,220.21c2.08,0,4.09,1.01,5.86,2.5c1.52,1.28,2.89,2.96,3.96,4.81c1.06,1.85,1.8,3.89,1.9,5.93
					c-1.86,1.22-4.27,1.88-6.77,1.93c-0.13,0-0.25,0-0.38,0c-2.38,0-4.8-0.56-6.84-1.54c-2.14-1.04-3.83-2.56-4.64-4.29
					c-0.81-1.73-0.72-3.66,0.54-5.55c0,0,2.53,1.72,5.22,3.15c2.67,1.46,5.48,2.65,5.48,2.65s-2.42-1.77-4.61-3.76
					c-2.22-1.96-4.19-4.13-4.19-4.13C235.39,220.72,236.89,220.21,238.37,220.21 M238.37,218.76c-1.9,0-3.71,0.68-5.38,2.02
					c-0.31,0.25-0.51,0.62-0.54,1.02c-0.02,0.32,0.06,0.64,0.23,0.91c-0.21-0.11-0.44-0.17-0.67-0.17c-0.09,0-0.19,0.01-0.28,0.03
					c-0.38,0.07-0.72,0.3-0.93,0.62c-1.48,2.22-1.71,4.69-0.65,6.97c0.93,2,2.82,3.77,5.32,4.99c2.25,1.09,4.9,1.69,7.47,1.69
					c0.14,0,0.28,0,0.42-0.01c2.81-0.06,5.48-0.83,7.53-2.17c0.43-0.28,0.68-0.77,0.66-1.29c-0.1-2.11-0.8-4.33-2.09-6.58
					c-1.17-2.03-2.65-3.83-4.28-5.2C242.92,219.71,240.63,218.76,238.37,218.76L238.37,218.76z"/>
			</g>
		</g>
		<g id="XMLID_00000106112647125415155100000002024530943668493717_">
			<g id="XMLID_00000120533972608224149050000004596455470388484501_">
				<path class="st3" d="M212.72,225.94c-2.26,0-4.5-0.45-6.49-1.31c-2.4-1.03-4.24-2.6-5.18-4.41c-1.06-2.02-0.95-4.19,0.32-6.28
					c0.1-0.17,0.26-0.28,0.45-0.33c0.06-0.01,0.11-0.02,0.17-0.02c0.13,0,0.27,0.04,0.38,0.11c0.02,0.02,2.52,1.54,5.15,2.81
					c-2.23-1.82-4.17-3.76-4.25-3.84c-0.14-0.14-0.22-0.34-0.21-0.54c0.01-0.2,0.1-0.39,0.25-0.52c1.57-1.39,3.31-2.09,5.16-2.09
					c1.99,0,4.05,0.8,6.12,2.39c1.63,1.25,3.13,2.91,4.34,4.81c1.33,2.1,2.09,4.17,2.28,6.16c0.02,0.26-0.09,0.51-0.3,0.66
					c-1.87,1.35-4.38,2.19-7.05,2.37C213.48,225.92,213.1,225.94,212.72,225.94z"/>
				<path class="st2" d="M208.46,210.24c1.98,0,3.92,0.9,5.68,2.24c1.58,1.21,3.02,2.83,4.17,4.63c1.14,1.8,1.98,3.8,2.17,5.84
					c-1.8,1.3-4.18,2.07-6.67,2.23c-0.36,0.03-0.72,0.04-1.08,0.04c-2.15,0-4.33-0.44-6.2-1.25c-2.19-0.94-3.95-2.39-4.82-4.08
					c-0.89-1.69-0.88-3.62,0.29-5.56c0,0,2.6,1.6,5.35,2.91c2.74,1.34,5.59,2.41,5.59,2.41s-2.5-1.66-4.77-3.55
					c-2.3-1.86-4.37-3.94-4.37-3.94C205.31,210.8,206.89,210.24,208.46,210.24 M208.46,208.79c-2.03,0-3.93,0.76-5.64,2.27
					c-0.3,0.27-0.48,0.64-0.49,1.04c-0.01,0.32,0.09,0.64,0.27,0.9c-0.19-0.09-0.4-0.14-0.61-0.14c-0.11,0-0.23,0.01-0.34,0.04
					c-0.38,0.09-0.7,0.33-0.9,0.66c-1.38,2.28-1.5,4.77-0.34,6.99c1.02,1.96,2.99,3.64,5.54,4.74c2.08,0.89,4.42,1.37,6.78,1.37
					c0.39,0,0.79-0.01,1.18-0.04c2.8-0.19,5.44-1.07,7.42-2.5c0.42-0.3,0.65-0.8,0.6-1.32c-0.2-2.11-1-4.29-2.39-6.48
					c-1.26-1.98-2.82-3.7-4.51-5C212.82,209.64,210.61,208.79,208.46,208.79L208.46,208.79z"/>
			</g>
		</g>
		<g id="XMLID_00000047781467577382052550000008872096888020219043_">
			<g id="XMLID_00000016060704331792366900000016368813057581477567_">
				<path class="st3" d="M223.93,247.7c-1.73,0-3.58-0.37-5.35-1.07c-2.41-0.95-4.66-2.52-6.33-4.42c-1.72-1.96-2.71-4.17-2.79-6.21
					c-0.09-2.28,0.94-4.19,2.98-5.53c0.12-0.08,0.26-0.12,0.4-0.12c0.05,0,0.1,0,0.15,0.02c0.19,0.04,0.36,0.15,0.46,0.32
					c0.02,0.03,1.61,2.48,3.44,4.75c-1.23-2.6-2.15-5.19-2.19-5.3c-0.07-0.19-0.05-0.4,0.04-0.58c0.09-0.18,0.25-0.31,0.45-0.37
					c0.84-0.24,1.67-0.36,2.46-0.36c3.13,0,5.76,1.89,7.6,5.48c0.93,1.83,1.57,3.97,1.85,6.21c0.3,2.46,0.1,4.67-0.59,6.54
					c-0.09,0.24-0.3,0.42-0.55,0.47C225.32,247.64,224.63,247.7,223.93,247.7L223.93,247.7z"/>
				<path class="st2" d="M217.66,229.56c3.21,0,5.47,2.2,6.95,5.08c0.91,1.77,1.51,3.85,1.78,5.97c0.25,2.12,0.15,4.28-0.55,6.2
					c-0.62,0.11-1.25,0.17-1.91,0.17c-1.66,0-3.41-0.36-5.08-1.02c-2.33-0.91-4.48-2.43-6.05-4.22c-1.57-1.79-2.54-3.85-2.6-5.76
					c-0.07-1.91,0.76-3.65,2.65-4.9c0,0,1.66,2.56,3.58,4.93c1.89,2.39,4.02,4.57,4.02,4.57s-1.54-2.57-2.79-5.25
					c-1.28-2.67-2.26-5.43-2.26-5.43C216.2,229.66,216.95,229.56,217.66,229.56 M217.66,228.1
					C217.66,228.1,217.66,228.1,217.66,228.1c-0.86,0-1.75,0.13-2.66,0.39c-0.39,0.11-0.71,0.38-0.89,0.73
					c-0.15,0.29-0.2,0.61-0.14,0.93c-0.21-0.25-0.5-0.43-0.82-0.5c-0.1-0.02-0.2-0.03-0.3-0.03c-0.28,0-0.56,0.08-0.8,0.24
					c-2.23,1.47-3.4,3.66-3.31,6.17c0.08,2.21,1.13,4.57,2.97,6.66c1.74,1.99,4.09,3.63,6.62,4.62c1.84,0.73,3.78,1.12,5.61,1.12
					c0.74,0,1.47-0.06,2.17-0.19c0.51-0.09,0.93-0.45,1.11-0.93c0.73-1.99,0.94-4.3,0.63-6.88c-0.29-2.33-0.96-4.56-1.93-6.46
					C223.94,230.13,221.08,228.1,217.66,228.1L217.66,228.1L217.66,228.1z"/>
			</g>
		</g>
		<g id="XMLID_00000084518143231439464510000000821051223226756786_">
			<g id="XMLID_00000108307489753985186380000004457668806317198493_">
				<path class="st3" d="M225.73,220.28c-0.14,0-0.28-0.04-0.4-0.12c-1.92-1.28-3.58-3.33-4.68-5.78c-1.07-2.36-1.6-5.05-1.47-7.58
					c0.13-2.61,0.95-4.88,2.32-6.4c1.2-1.33,2.78-2.03,4.57-2.03c0.46,0,0.94,0.05,1.42,0.14c0.19,0.04,0.36,0.15,0.47,0.31
					c0.11,0.16,0.15,0.36,0.11,0.55c-0.01,0.03-0.57,2.9-0.83,5.81c0.92-2.73,2.07-5.22,2.12-5.33c0.08-0.18,0.24-0.32,0.43-0.39
					c0.08-0.03,0.15-0.04,0.23-0.04c0.12,0,0.24,0.03,0.34,0.09c3.84,2.05,5.14,5.84,3.66,10.67c-0.6,1.96-1.64,3.95-2.99,5.75
					c-1.5,1.98-3.18,3.42-4.98,4.29C225.95,220.26,225.84,220.28,225.73,220.28z"/>
				<path class="st2" d="M226.07,199.1c0.41,0,0.84,0.04,1.28,0.12c0,0-0.59,3-0.86,6.03c-0.3,3.03-0.3,6.08-0.3,6.08
					s0.69-2.92,1.65-5.71c0.94-2.81,2.16-5.47,2.16-5.47c4.06,2.17,4.46,6.03,3.31,9.81c-0.58,1.9-1.59,3.82-2.88,5.52
					c-1.29,1.7-2.87,3.18-4.71,4.07c-1.85-1.23-3.39-3.19-4.42-5.47c-1.04-2.28-1.53-4.87-1.41-7.25c0.12-2.38,0.86-4.53,2.14-5.95
					C223.06,199.76,224.42,199.1,226.07,199.1 M226.07,197.64c-2.01,0-3.78,0.79-5.11,2.28c-1.48,1.64-2.37,4.07-2.51,6.85
					c-0.13,2.64,0.41,5.45,1.54,7.92c1.15,2.56,2.91,4.72,4.94,6.08c0.24,0.16,0.53,0.25,0.81,0.25c0.22,0,0.43-0.05,0.63-0.14
					c1.9-0.92,3.67-2.43,5.24-4.5c1.41-1.87,2.48-3.94,3.11-5.98c1.59-5.2,0.16-9.3-4.01-11.53c-0.21-0.11-0.45-0.17-0.69-0.17
					c-0.16,0-0.31,0.03-0.46,0.08c-0.31,0.1-0.57,0.3-0.74,0.57c0.03-0.33-0.06-0.66-0.25-0.93c-0.22-0.32-0.55-0.54-0.93-0.61
					C227.1,197.69,226.57,197.64,226.07,197.64L226.07,197.64z"/>
			</g>
		</g>
		<g id="XMLID_00000060028787906816451310000000402245890976615812_">
			<g id="XMLID_00000061472499743784868650000009012201227433719208_">
				<path class="st3" d="M200.77,248.1c-2,0-4.12-0.52-6.13-1.49c-2.34-1.12-4.47-2.85-5.99-4.87c-1.58-2.08-2.4-4.35-2.32-6.4
					c0.08-2.28,1.25-4.11,3.38-5.3c0.11-0.06,0.23-0.09,0.35-0.09c0.07,0,0.13,0.01,0.2,0.03c0.19,0.05,0.34,0.18,0.44,0.35
					c0.01,0.03,1.42,2.59,3.09,4.99c-1.04-2.69-1.76-5.33-1.79-5.45c-0.05-0.19-0.02-0.4,0.08-0.57c0.1-0.17,0.28-0.29,0.47-0.33
					c0.65-0.14,1.28-0.2,1.89-0.2c3.41,0,6.09,2.09,7.76,6.04c0.8,1.89,1.28,4.08,1.39,6.33c0.11,2.48-0.25,4.66-1.07,6.48
					c-0.11,0.24-0.33,0.4-0.59,0.42C201.55,248.08,201.17,248.1,200.77,248.1C200.77,248.1,200.77,248.1,200.77,248.1z"/>
				<path class="st2" d="M194.44,229.49c3.5,0,5.76,2.45,7.09,5.6c0.77,1.83,1.23,3.95,1.33,6.08c0.1,2.13-0.16,4.28-1,6.14
					c-0.36,0.04-0.72,0.06-1.09,0.06c-1.9,0-3.93-0.5-5.81-1.42c-2.26-1.08-4.29-2.75-5.73-4.65c-1.44-1.9-2.25-4.03-2.18-5.93
					c0.07-1.91,1.02-3.58,3.01-4.69c0,0,1.47,2.68,3.21,5.18c1.71,2.52,3.67,4.86,3.67,4.86s-1.35-2.68-2.4-5.44
					c-1.08-2.76-1.85-5.59-1.85-5.59C193.31,229.55,193.89,229.49,194.44,229.49 M194.44,228.04
					C194.44,228.04,194.44,228.04,194.44,228.04c-0.66,0-1.34,0.07-2.04,0.22c-0.39,0.08-0.73,0.32-0.94,0.66
					c-0.17,0.27-0.24,0.6-0.21,0.91c-0.19-0.27-0.47-0.46-0.79-0.56c-0.13-0.04-0.27-0.06-0.4-0.06c-0.25,0-0.49,0.06-0.71,0.18
					c-2.33,1.3-3.66,3.4-3.75,5.91c-0.08,2.21,0.79,4.64,2.47,6.86c1.59,2.11,3.82,3.92,6.26,5.09c2.11,1.02,4.34,1.56,6.44,1.56
					c0.42,0,0.84-0.02,1.25-0.07c0.51-0.06,0.96-0.38,1.17-0.85c0.87-1.93,1.25-4.22,1.13-6.81c-0.12-2.34-0.62-4.61-1.45-6.58
					C201.1,230.34,198.11,228.04,194.44,228.04L194.44,228.04z"/>
			</g>
		</g>
		<g id="XMLID_00000138568421496911551390000013124727799107458971_">
			<g id="XMLID_00000140011448153638242260000008493091320674451853_">
				<path class="st3" d="M175.98,246.23c-1.91,0-3.95-0.47-5.88-1.35c-2.36-1.07-4.53-2.75-6.1-4.73c-1.62-2.04-2.5-4.3-2.47-6.34
					c0.03-2.28,1.15-4.14,3.25-5.38c0.11-0.07,0.24-0.1,0.37-0.1c0.06,0,0.12,0.01,0.18,0.02c0.19,0.05,0.35,0.17,0.45,0.34
					c0.01,0.03,1.49,2.55,3.21,4.92c-1.1-2.66-1.89-5.29-1.92-5.4c-0.06-0.19-0.03-0.4,0.07-0.57c0.1-0.17,0.27-0.3,0.46-0.34
					c0.71-0.17,1.41-0.25,2.08-0.25c3.31,0,5.98,2.03,7.71,5.86c0.84,1.87,1.37,4.05,1.54,6.29c0.17,2.48-0.13,4.66-0.91,6.5
					c-0.1,0.24-0.32,0.4-0.57,0.44C176.96,246.2,176.47,246.23,175.98,246.23L175.98,246.23z"/>
				<path class="st2" d="M169.66,227.78c3.4,0,5.66,2.37,7.05,5.43c0.82,1.82,1.32,3.92,1.48,6.05c0.15,2.13-0.06,4.28-0.86,6.17
					c-0.44,0.06-0.89,0.09-1.35,0.09c-1.83,0-3.76-0.45-5.58-1.28c-2.28-1.03-4.36-2.65-5.84-4.52c-1.48-1.86-2.34-3.97-2.32-5.88
					c0.02-1.91,0.94-3.61,2.89-4.76c0,0,1.53,2.64,3.33,5.1c1.77,2.48,3.78,4.77,3.78,4.77s-1.41-2.65-2.52-5.39
					c-1.15-2.73-1.98-5.54-1.98-5.54C168.42,227.85,169.06,227.78,169.66,227.78 M169.66,226.32L169.66,226.32
					c-0.72,0-1.48,0.09-2.25,0.27c-0.39,0.09-0.73,0.34-0.93,0.69c-0.16,0.28-0.23,0.6-0.18,0.92c-0.2-0.26-0.48-0.45-0.8-0.54
					c-0.12-0.03-0.25-0.05-0.37-0.05c-0.26,0-0.51,0.07-0.74,0.2c-2.3,1.36-3.58,3.49-3.61,6c-0.03,2.21,0.9,4.62,2.63,6.8
					c1.64,2.07,3.91,3.83,6.38,4.94c2.03,0.92,4.16,1.41,6.18,1.41c0.52,0,1.04-0.03,1.54-0.1c0.51-0.07,0.95-0.4,1.15-0.88
					c0.82-1.95,1.15-4.25,0.97-6.84c-0.17-2.34-0.73-4.6-1.6-6.54C176.21,228.55,173.23,226.32,169.66,226.32L169.66,226.32z"/>
			</g>
		</g>
		<g id="XMLID_00000110457599148584602700000016277086864062261162_">
			<g id="XMLID_00000052822195851782167920000009373412262434660240_">
				<path class="st3" d="M186.02,224.37c-1.26,0-2.49-0.14-3.66-0.41c-2.54-0.59-4.63-1.82-5.88-3.44c-1.39-1.8-1.67-3.96-0.79-6.24
					c0.07-0.18,0.21-0.33,0.39-0.4c0.09-0.04,0.19-0.06,0.29-0.06c0.09,0,0.18,0.02,0.27,0.05c0.03,0.01,2.75,1.08,5.57,1.87
					c-2.52-1.4-4.76-2.98-4.86-3.04c-0.16-0.12-0.27-0.29-0.3-0.49c-0.03-0.2,0.03-0.4,0.15-0.56c1.62-2.04,3.66-3.08,6.05-3.08
					c1.6,0,3.31,0.47,5.1,1.4c1.82,0.94,3.59,2.32,5.11,3.98c1.67,1.84,2.79,3.74,3.32,5.67c0.07,0.25,0,0.51-0.18,0.7
					c-1.61,1.66-3.93,2.92-6.53,3.56C188.77,224.2,187.4,224.37,186.02,224.37C186.02,224.37,186.02,224.37,186.02,224.37z"/>
				<path class="st2" d="M183.24,209.3c1.58,0,3.21,0.51,4.77,1.31c1.77,0.92,3.47,2.26,4.91,3.82c1.44,1.57,2.61,3.4,3.15,5.37
					c-1.55,1.59-3.75,2.76-6.18,3.36c-1.26,0.32-2.58,0.47-3.89,0.47c-1.2,0-2.38-0.13-3.49-0.39c-2.32-0.54-4.3-1.66-5.46-3.17
					c-1.17-1.51-1.5-3.41-0.69-5.53c0,0,2.84,1.12,5.78,1.93c2.93,0.84,5.93,1.39,5.93,1.39s-2.75-1.2-5.32-2.66
					c-2.59-1.43-4.99-3.11-4.99-3.11C179.36,210.09,181.26,209.3,183.24,209.3 M183.24,207.84c-2.59,0-4.88,1.16-6.62,3.35
					c-0.25,0.31-0.36,0.72-0.3,1.11c0.05,0.32,0.2,0.61,0.42,0.83c-0.12-0.03-0.25-0.05-0.37-0.05c-0.2,0-0.4,0.04-0.58,0.12
					c-0.36,0.16-0.63,0.45-0.77,0.81c-0.96,2.49-0.64,4.96,0.89,6.94c1.34,1.75,3.58,3.07,6.28,3.7c1.22,0.29,2.51,0.43,3.82,0.43
					c1.45,0,2.87-0.17,4.24-0.52c2.73-0.67,5.17-2.01,6.87-3.76c0.36-0.37,0.5-0.9,0.36-1.4c-0.56-2.04-1.73-4.04-3.48-5.96
					c-1.59-1.72-3.43-3.15-5.32-4.14C186.79,208.34,184.96,207.84,183.24,207.84L183.24,207.84z"/>
			</g>
		</g>
		<g id="XMLID_00000152255888906011315780000013651713009737376404_">
			<g id="XMLID_00000019638070749880533220000007098512909825107643_">
				<path class="st3" d="M199.87,206.47c-0.89,0-1.76-0.07-2.59-0.21c-2.58-0.43-4.74-1.51-6.08-3.05
					c-1.51-1.71-1.92-3.84-1.19-6.17c0.06-0.18,0.19-0.34,0.36-0.43c0.1-0.05,0.22-0.08,0.33-0.08c0.07,0,0.15,0.01,0.22,0.04
					c0.03,0.01,2.81,0.9,5.67,1.5c-2.6-1.24-4.94-2.66-5.05-2.72c-0.17-0.1-0.29-0.27-0.33-0.47s0-0.4,0.11-0.57
					c1.6-2.31,3.75-3.48,6.38-3.48c1.45,0,3.01,0.36,4.65,1.08c1.88,0.83,3.73,2.08,5.36,3.64c1.79,1.72,3.02,3.55,3.68,5.44
					c0.08,0.24,0.03,0.51-0.13,0.71c-1.5,1.76-3.73,3.17-6.28,3.98C203.37,206.19,201.6,206.47,199.87,206.47L199.87,206.47z"/>
				<path class="st2" d="M197.71,191.55c1.43,0,2.91,0.39,4.35,1.02c1.82,0.8,3.61,2.03,5.15,3.5c1.53,1.48,2.82,3.22,3.49,5.15
					c-1.44,1.69-3.56,3-5.95,3.76c-1.57,0.51-3.25,0.76-4.89,0.76c-0.84,0-1.67-0.07-2.47-0.2c-2.35-0.39-4.4-1.38-5.66-2.81
					c-1.26-1.43-1.72-3.31-1.04-5.47c0,0,2.91,0.93,5.89,1.55c2.98,0.65,6,1,6,1s-2.82-1.02-5.48-2.31
					c-2.68-1.26-5.18-2.78-5.18-2.78C193.51,192.44,195.55,191.55,197.71,191.55 M197.71,190.1c-2.84,0-5.25,1.31-6.97,3.79
					c-0.23,0.33-0.31,0.74-0.23,1.13c0.07,0.32,0.24,0.6,0.48,0.8c-0.09-0.02-0.19-0.03-0.28-0.03c-0.23,0-0.46,0.05-0.67,0.16
					c-0.34,0.18-0.6,0.49-0.72,0.86c-0.8,2.55-0.32,4.99,1.34,6.87c1.46,1.66,3.77,2.83,6.51,3.29c0.87,0.15,1.78,0.22,2.71,0.22
					c1.8,0,3.65-0.29,5.33-0.83c2.68-0.85,5.03-2.34,6.61-4.2c0.33-0.39,0.44-0.93,0.27-1.42c-0.69-2-1.99-3.92-3.86-5.72
					c-1.7-1.62-3.62-2.92-5.57-3.78C200.92,190.48,199.26,190.1,197.71,190.1L197.71,190.1z"/>
			</g>
		</g>
		<g id="XMLID_00000052801713612970904790000015087235491472792977_">
			<g id="XMLID_00000026841754000045658390000012378621834333219499_">
				<path class="st3" d="M213,190.7c-2.61,0-4.92-0.71-6.5-2c-1.77-1.44-2.52-3.47-2.19-5.89c0.03-0.19,0.13-0.37,0.28-0.48
					c0.13-0.09,0.28-0.15,0.44-0.15c0.04,0,0.07,0,0.11,0.01c0.03,0,2.92,0.42,5.84,0.55c-2.77-0.79-5.32-1.81-5.43-1.85
					c-0.19-0.07-0.33-0.22-0.41-0.41s-0.07-0.4,0.02-0.58c1.42-3.01,3.94-4.61,7.28-4.61c1,0,2.07,0.14,3.19,0.43
					c1.99,0.5,4.02,1.44,5.89,2.71c2.05,1.4,3.57,3,4.53,4.76c0.12,0.23,0.12,0.5-0.02,0.72c-1.19,1.98-3.16,3.74-5.54,4.96
					c-2.3,1.19-4.96,1.84-7.49,1.84C213.02,190.7,213,190.7,213,190.7z"/>
				<path class="st2" d="M212.45,176.01c0.98,0,2,0.15,3.02,0.4c1.93,0.49,3.89,1.41,5.66,2.6c1.76,1.21,3.32,2.71,4.3,4.51
					c-1.14,1.9-3.02,3.55-5.25,4.69c-2.22,1.15-4.78,1.76-7.16,1.76c0,0,0,0-0.01,0c0,0,0,0,0,0c-2.38,0-4.57-0.63-6.04-1.84
					c-1.48-1.21-2.24-2.98-1.93-5.23c0,0,3.02,0.44,6.07,0.56c1.02,0.05,2.04,0.07,2.94,0.07c1.8,0,3.15-0.07,3.15-0.07
					s-2.95-0.54-5.79-1.37c-2.85-0.8-5.57-1.89-5.57-1.89C207.27,177.14,209.73,176.01,212.45,176.01 M212.45,174.55
					c-3.64,0-6.39,1.74-7.94,5.02c-0.17,0.36-0.19,0.78-0.04,1.15c0.12,0.3,0.33,0.55,0.6,0.72c-0.01,0-0.03,0-0.04,0
					c-0.31,0-0.62,0.1-0.87,0.29c-0.31,0.23-0.51,0.58-0.57,0.96c-0.37,2.64,0.5,4.97,2.45,6.56c1.71,1.4,4.18,2.17,6.96,2.17
					c2.65,0,5.43-0.68,7.84-1.92c2.5-1.28,4.57-3.14,5.83-5.23c0.27-0.44,0.28-0.99,0.03-1.45c-1.01-1.86-2.61-3.54-4.75-5.01
					c-1.94-1.32-4.05-2.29-6.12-2.81C214.65,174.7,213.51,174.55,212.45,174.55L212.45,174.55z"/>
			</g>
		</g>
	</g>
</g>
</svg>
