<svg width="295" height="337" xmlns="http://www.w3.org/2000/svg" xml:space="preserve" version="1.1">

 <g>
  <title>Layer 1</title>
  <g id="svg_12">
   <path id="svg_13" fill="#003462" d="m285.59803,120.77496c-1.05,-1.62 -1.5,-3.01 -1.04,-5.07c6.62,-29.73 -10.87,-58.62 -40.27,-66.59c-1.87,-0.51 -2.86,-1.49 -3.74,-3.13c-12.86,-23.92 -40.92,-34.83 -66.61,-25.92c-1.39,0.48 -2.41,0.93 -3.68,-0.58c-9.26,-11.02 -20.92,-19.29 -35.37,-19.47c-18.93,-0.24 -24.51,2.45 -30.2,4.99c-13.81,6.18 -23.08,16.9 -28.41,31.01c-0.69,1.81 -1.38,2.73 -3.56,2.85c-24.97,1.35 -47.33,21.95 -50.47,46.9c-0.69,5.52 -2.52,9.49 -6.48,13.55c-20.52,21.02 -21,54.29 -1.51,76.28c1.8,2.04 2.88,3.99 3.18,6.89c3.46,34.46 36.43,56.6 69.76,46.84c3.5,-1.02 5.52,-0.66 8.1,2.06c10.23,10.84 22.69,17.77 37.4,20.38c0,0.3 0,0.59 0,0.89c0,33.6 -19.53,37.99 -30.96,35c-14.78,-3.76 -25.43,1.15 -32.75,5.14c-2.13,-1.3 -7.74,-3.38 -18.7,0.43c0.25,1.26 0.33,1.75 0.33,1.75s7.31,-3.77 14.85,-0.23c-0.54,0.3 -1.06,0.57 -1.55,0.82c-5.41,2.75 -9.38,3.4 -11.95,3.39c1.11,1.09 2.23,2.17 3.38,3.22c2.97,-0.36 7.03,-1.38 11.91,-3.97c6.49,-3.43 14.25,-7.74 27.44,-4.75c-5.9,1.71 -10.37,4.48 -13.69,7.56c-10.45,-0.73 -15.62,5.07 -15.62,5.07l1.49,1.09c4.55,-3.81 9.54,-4 11.86,-3.83c-4.11,4.75 -5.78,9.76 -5.81,12.49c0.38,0.25 0.76,0.49 1.14,0.73c1.4,-4.63 6.25,-10.15 11.96,-14.14c1.27,3.75 2.33,10.75 -4.93,15.42l1.68,1.71c0,0 10.54,-4.99 6.42,-19.13c4.42,-2.5 9.06,-3.92 12.88,-3.27c-5.16,5.1 -5.66,11.81 -7.1,18.17c-1.18,5.18 -4.43,7.68 -7.21,8.87c1.18,0.57 2.38,1.12 3.58,1.66c2.77,-2.66 5.98,-6.79 7.74,-12.69c3.52,-11.79 14.6,-20.58 25.51,-20.05c-8.85,6.51 -12.94,14.39 -14.67,21.49c-2.4,0.55 -8.81,2.89 -11.18,12.39c0.16,0 1.13,0.51 1.13,0.51s1.97,-7.32 9.26,-8.65c-0.79,6.1 -0.01,11.18 0.49,13.58c1.63,0.45 3.28,0.88 4.93,1.27c-0.79,-3.68 -2.28,-13.65 2.64,-21.94c0.59,-0.99 1.21,-1.9 1.87,-2.75c1.8,3.35 4.26,10.2 0.33,18.06l2.1,0.86c0,0 5.94,-10.81 2.25,-23.7c5.2,-4.21 10.34,-5.48 10.34,-5.48s-3.17,7.04 -4.22,20.05c-1.23,9.44 -3.98,14.33 -6.06,16.76c1.33,0.22 2.67,0.41 4.01,0.59c1.75,-2.72 3.99,-7.42 5.77,-15.26c4.16,4.16 4.99,13.69 5.14,16.24c0.72,0.04 1.44,0.06 2.16,0.09c-0.28,-4.26 -1.09,-11.23 -3.5,-17.37c-1.71,-4.36 -0.24,-9.42 1.89,-13.66c2.09,1.88 6.55,6.88 5.56,14.78c-0.03,0.02 1.95,0.96 1.95,0.96s3.36,-12.83 -4.96,-20.1c1.89,-2.84 3.58,-4.71 3.58,-4.71l0,0.01c0,0 11.82,13.09 8.03,22.74c-2.41,6.13 -3.23,13.09 -3.5,17.36c0.72,-0.02 1.44,-0.05 2.16,-0.09c0.15,-2.56 0.98,-12.08 5.14,-16.24c1.78,7.82 4.01,12.53 5.76,15.25c1.34,-0.18 2.68,-0.37 4.01,-0.59c-2.08,-2.43 -4.83,-7.31 -6.06,-16.75c-1.06,-13.02 -4.22,-20.05 -4.22,-20.05s5.49,1.35 10.86,5.91c-3.43,12.7 2.37,23.26 2.37,23.26l2.1,-0.86c-3.74,-7.47 -1.69,-14.03 0.06,-17.54c0.52,0.71 1.02,1.45 1.49,2.24c4.91,8.28 3.44,18.25 2.65,21.93c1.66,-0.39 3.3,-0.82 4.93,-1.27c0.51,-2.42 1.29,-7.54 0.48,-13.68c7.83,1 9.92,8.75 9.92,8.75s0.97,-0.51 1.13,-0.51c-2.66,-10.64 -10.4,-12.3 -11.86,-12.52c-1.75,-7.06 -5.84,-14.88 -14.64,-21.35c10.91,-0.53 21.99,8.27 25.51,20.05c1.76,5.89 4.97,10.02 7.74,12.68c1.2,-0.53 2.4,-1.09 3.58,-1.65c-2.78,-1.2 -6.03,-3.69 -7.2,-8.87c-1.44,-6.36 -1.94,-13.07 -7.1,-18.17c3.97,-0.67 8.84,0.9 13.43,3.59c-3.87,13.9 6.52,18.81 6.52,18.81l1.68,-1.71c-7.02,-4.52 -6.26,-11.21 -5.05,-15.04c5.49,3.96 10.08,9.28 11.44,13.77c0.38,-0.24 0.76,-0.49 1.14,-0.74c-0.04,-2.72 -1.69,-7.7 -5.77,-12.43c1.94,-0.23 7.46,-0.42 12.46,3.77l1.49,-1.09c0,0 -5.36,-6.03 -16.22,-5.03c-3.32,-3.09 -7.81,-5.88 -13.73,-7.59c13.19,-2.99 20.95,1.32 27.44,4.75c4.88,2.58 8.94,3.61 11.9,3.97c1.15,-1.05 2.27,-2.13 3.38,-3.22c-2.57,0.01 -6.54,-0.64 -11.94,-3.39c-0.66,-0.33 -1.36,-0.71 -2.1,-1.13c7.29,-3.02 14.18,0.52 14.18,0.52s0.08,-0.49 0.33,-1.75c-10.06,-3.5 -15.61,-2.03 -18.1,-0.76c-7.29,-3.93 -17.76,-8.46 -32.12,-4.8c-11.43,2.99 -30.96,-1.41 -30.96,-35c0,-0.42 0,-0.82 0,-1.23c8.77,-1.55 16.97,-4.73 24.51,-9.53c1.47,-0.94 2.61,-0.91 4.18,-0.23c31.41,13.73 67.09,-3.58 75.82,-36.8c0.61,-2.32 1.67,-3.77 3.84,-5c27.63,-15.69 36.47,-52.44 19.1,-79.1z" class="st0"/>
   <g id="svg_14">
    <path id="svg_15" fill="#FFFFFF" d="m136.75803,253.69496c-0.73,0 -1.33,-0.6 -1.33,-1.33c0,-0.03 0,-0.07 0.01,-0.1c0.89,-6.31 2.65,-23.45 0.14,-26.84c-2.13,-2.88 -4,-4.42 -5.65,-5.78c-0.83,-0.68 -1.62,-1.33 -2.38,-2.09c-1.09,-1.09 -2.09,-2.18 -3.27,-3.49l-0.68,-0.75c-0.89,-0.97 -1.81,-1.98 -2.57,-3.03c-1.59,-2.18 -3.07,-4.43 -4.5,-6.6l-0.09,-0.14c-0.86,-1.3 -2.22,-2.36 -4.03,-3.13c-0.62,-0.26 -1.5,-0.44 -2.57,-0.52c-2.73,-0.21 -5.61,-0.3 -8.79,-0.3c-1.73,0 -3.53,0.03 -5.53,0.09c-2.05,0.06 -4.1,0.1 -6.16,0.13c-2.96,0.05 -6.02,0.11 -9.02,0.24c-1.08,0.05 -2.23,0.07 -3.51,0.07c-1.69,0 -3.38,-0.04 -5.07,-0.08c-1.04,-0.02 -2.08,-0.05 -3.12,-0.07c-4.38,-0.07 -7.13,-1.83 -7.38,-4.72c-0.03,-0.35 -0.07,-0.71 -0.1,-1.07c-0.09,-0.84 -0.17,-1.72 -0.18,-2.59c-0.07,-9.12 -0.1,-18.24 -0.14,-27.36l0,-0.97c-0.02,-4.55 -0.03,-9.1 -0.03,-13.66c0,-2.56 0,-10.89 0,-10.89c0,-0.22 0.1,-0.42 0.25,-0.55l0.03,-7.51c0.05,-15.1 0.1,-30.19 0.17,-45.29c0,-0.77 0.14,-1.6 0.39,-2.47c0.15,-0.52 0.54,-1.05 1.09,-1.49c0.59,-0.48 1.34,-0.74 2.12,-0.74c0.96,0 1.8,0.4 2.29,1.11c0.6,0.86 1,1.8 1.17,2.71c0.28,1.55 0.42,3.11 0.55,4.62l0.04,0.51c0.22,2.51 0.42,5.01 0.62,7.52l0.08,1.06c0.17,2.16 0.33,4.31 0.48,6.47c0.2,2.88 0.39,5.76 0.56,8.64c0.17,2.85 0.33,5.69 0.48,8.54l0.01,0.21c0.12,2.26 0.24,4.52 0.35,6.78l0.23,4.5c0.07,1.45 0.15,2.9 0.23,4.36c0.17,3.04 0.33,6.08 0.51,9.11c0.13,2.17 0.28,4.35 0.43,6.52l0.03,0.47c0.16,2.29 0.32,4.59 0.49,6.88l0.09,1.28c0.14,1.9 0.28,3.8 0.43,5.71c0.21,2.57 0.44,5.15 0.67,7.72l0.35,3.94c0.2,2.3 0.4,4.61 0.64,6.91c0.17,1.67 0.35,3.18 0.72,4.68c0.2,0.79 0.87,1.63 2.06,2.57c0.98,0.78 2.52,1.19 4.43,1.19l0.27,0c3.85,0 7.95,-0.02 12.02,-0.24c5.06,-0.28 8.77,-2.05 11.01,-5.29c1.08,-1.56 1.75,-3.28 2.16,-5.6c0.48,-2.64 0.44,-5.56 -0.1,-8.91c-0.32,-1.98 -0.89,-3.99 -1.44,-5.94c-0.2,-0.7 -0.39,-1.39 -0.58,-2.09c-1.13,-4.23 -2.89,-8.61 -5.37,-13.38c-2.55,-4.9 -5.9,-9.03 -10.23,-12.63c-1.13,-0.93 -2.48,-1.81 -3.79,-2.65c-0.69,-0.45 -1.38,-0.89 -2.05,-1.35l-0.88,-0.6c-1.07,-0.72 -2.17,-1.47 -3.15,-2.27c-2.45,-1.98 -3.05,-4.49 -1.74,-7.25c1.3,-2.73 3.49,-5.18 5.61,-7.55l0.22,-0.25c4.89,-5.47 8.66,-10.73 11.53,-16.05c1.09,-2.03 2.06,-4.17 2.89,-6.38c0.55,-1.46 0.81,-2.99 1.05,-4.55c0.21,-1.38 0.24,-2.8 0.25,-4.03c0.02,-2.27 -2.92,-4.19 -6.67,-4.37c-0.88,-0.04 -1.76,-0.06 -2.64,-0.06c-0.75,0 -1.5,0.01 -2.26,0.02l-2.14,0.03c-0.39,0.01 -0.78,0.01 -1.17,0.01c-1.06,0 -2.31,-0.04 -3.56,-0.33c-0.35,-0.08 -0.77,-0.19 -1.16,-0.34c-1.61,-0.64 -1.51,-1.66 -1.39,-2.07c0.14,-0.5 0.62,-1.15 2.08,-1.35c1.08,-0.15 2.26,-0.26 3.51,-0.33c5.15,-0.29 10.3,-0.57 15.46,-0.82c1.27,-0.06 2.62,-0.12 3.97,-0.12c1.73,0 3.24,0.09 4.63,0.29c4.68,0.66 7.04,3.22 7.31,5.47c0.3,2.57 0.28,4.77 -0.08,6.72c-0.27,1.5 -0.97,2.94 -1.64,4.33c-0.21,0.43 -0.41,0.85 -0.61,1.28c-1.7,3.75 -4.37,7.1 -6.76,9.88c-2.95,3.43 -6.95,7.91 -11.75,12.14c-4.38,3.87 -7.95,6.75 -11.56,9.34c-0.57,0.41 -0.89,0.81 -0.86,1.07c0.03,0.26 0.44,0.69 1.51,1.12c0.72,0.29 1.47,0.57 2.21,0.85c1.21,0.45 2.46,0.92 3.62,1.45l0.31,0.14c3.62,1.66 7.36,3.38 10.27,5.7c0.31,0.25 0.7,0.51 1.18,0.79c0.52,0.3 1.1,0.47 1.67,0.46c0.67,0 1.27,-0.22 1.69,-0.62c0.52,-0.49 0.97,-1.1 1.29,-1.75c0.69,-1.39 1.36,-2.78 2.03,-4.17c1.01,-2.11 2.05,-4.29 3.18,-6.42c1.32,-2.5 2.76,-5 4.16,-7.43c0.65,-1.13 1.31,-2.26 1.95,-3.4c1.82,-3.21 3.63,-6.42 5.44,-9.63c0.42,-0.74 0.84,-1.48 1.27,-2.22c1.04,-1.81 2.12,-3.68 3.04,-5.54c2.02,-4.06 3.67,-7.63 5.05,-10.92c1.94,-4.61 3.14,-8.2 3.91,-11.64c0.22,-1 0.45,-2 0.68,-2.99c0.52,-2.31 1.07,-4.69 1.54,-7.04c0.47,-2.32 0.82,-4.64 1.15,-6.88c0.23,-1.52 0.43,-3.04 0.64,-4.57c0.22,-1.65 0.45,-3.3 0.7,-4.95c0.12,-0.81 0.29,-1.63 0.45,-2.44c0.15,-0.75 0.3,-1.49 0.42,-2.24c0.1,-0.67 0.17,-1.34 0.23,-2c0.07,-0.7 0.14,-1.41 0.25,-2.11c0.3,-1.9 0.68,-3.79 0.97,-5.22c0.43,-2.09 0.9,-4.11 1.3,-5.81c0.11,-0.48 0.32,-0.93 0.61,-1.33c0.21,-0.28 0.51,-0.43 0.78,-0.56c0.08,-0.04 0.16,-0.08 0.23,-0.12c0.11,-0.07 0.24,-0.1 0.37,-0.1c0.16,0 0.32,0.05 0.45,0.15c0.05,0.04 0.11,0.08 0.17,0.12c0.24,0.16 0.55,0.35 0.69,0.71c0.17,0.44 0.35,1.02 0.33,1.64c-0.04,1.3 -0.12,2.61 -0.19,3.91l-0.1,1.76c-0.07,1.28 -0.13,2.57 -0.18,3.85l-0.05,1.1c-0.07,1.46 -0.14,2.93 -0.19,4.39c-0.03,0.86 -0.06,1.72 -0.08,2.58l-0.08,3c-0.04,1.25 -0.08,2.51 -0.1,3.76c-0.01,0.6 -0.02,1.21 -0.03,1.81c-0.01,0.81 -0.02,1.62 -0.04,2.42c-0.02,0.74 -0.07,1.49 -0.11,2.23c-0.03,0.6 -0.07,1.19 -0.09,1.79c-0.02,0.47 -0.03,0.94 -0.03,1.41c-0.01,0.74 -0.02,1.5 -0.08,2.27c-0.12,1.6 -0.3,3.3 -0.54,5.18c-0.21,1.67 -0.47,3.34 -0.75,4.97c-0.33,1.85 -0.72,4.05 -1.21,6.31c-0.39,1.79 -0.77,3.58 -1.35,5.33c-0.5,1.51 -1.06,3.04 -1.6,4.52c-0.49,1.32 -0.97,2.64 -1.42,3.96c-0.89,2.65 -2.31,5.21 -3.67,7.68c-0.36,0.65 -0.72,1.31 -1.07,1.96c-0.57,1.07 -1.26,2.11 -1.92,3.13c-0.37,0.57 -0.74,1.13 -1.1,1.7c-1.77,2.87 -3.55,5.74 -5.28,8.62l-1.56,2.58c-1.75,2.89 -3.56,5.87 -5.21,8.83c-1.62,2.91 -3.01,5.9 -4.42,8.95c-0.98,2.13 -1.87,4.33 -2.73,6.45l-0.54,1.33c-0.62,1.52 -0.42,3.05 0.63,4.68c0.41,0.65 0.84,1.32 1.38,1.93c0.44,0.5 1.07,0.78 1.73,0.78c0.63,0 1.2,-0.25 1.62,-0.71c0.77,-0.85 1.36,-1.75 1.99,-2.71l0.34,-0.52c3.64,-5.46 6.9,-9.81 10.25,-13.68c3.12,-3.61 6.22,-6.77 9.48,-9.66c0.75,-0.67 1.68,-1.3 2.69,-1.82c0.67,-0.35 1.48,-0.53 2.34,-0.53c0.78,0 1.53,0.15 2.18,0.43c0.92,0.4 1.65,1.13 1.91,1.92c0.18,0.53 0.13,1.04 -0.12,1.49c-0.39,0.69 -0.93,1.31 -1.46,1.92c-0.2,0.23 -0.4,0.47 -0.59,0.7c-0.74,0.91 -1.5,1.81 -2.27,2.71c-1.63,1.92 -3.31,3.9 -4.67,5.91c-3.21,4.77 -6.53,10.06 -10.47,16.67c-1.54,2.58 -2.72,5.37 -3.76,7.84c-0.56,1.33 -0.92,2.75 -1.27,4.12l-0.22,0.85c-0.08,0.32 -0.08,0.68 -0.07,1.07c0,0.21 0.01,0.42 0,0.63l-0.06,1.48c-0.05,1.14 -0.1,2.28 -0.12,3.42c-0.01,0.83 0.03,1.71 0.15,2.88c0.16,1.65 0.34,3.53 0.61,5.36l0.12,0.86c0.22,1.55 0.44,3.15 0.86,4.67c0.51,1.83 1.23,3.59 2.12,5.7c0.83,1.97 1.81,4.26 2.97,6.46c1.18,2.24 3.14,4.34 5.05,6.37l0.11,0.12c0.99,1.06 2.09,2.1 3.16,3.11c0.48,0.46 0.97,0.92 1.45,1.38c0.06,0.06 0.09,0.09 0.13,0.12c0.58,0.44 1.08,0.67 1.5,0.67c0.41,0 0.81,-0.24 1.19,-0.72c1.69,-2.11 3.22,-4.27 4.5,-6.09c2.53,-3.64 4.72,-7.56 6.69,-11.99c1.67,-3.77 3.02,-6.95 4.14,-10.21c0.94,-2.71 1.54,-5.53 2.12,-8.26c0.22,-1.02 0.3,-2.03 0.39,-3.1c0.05,-0.62 0.11,-1.24 0.18,-1.85c0.07,-0.55 0.16,-1.1 0.26,-1.64c0.14,-0.82 0.27,-1.59 0.33,-2.36c0.12,-1.71 0.25,-3.64 0.12,-5.51c-0.1,-1.31 -0.33,-2.66 -0.56,-3.96c-0.12,-0.71 -0.25,-1.43 -0.35,-2.14c-0.44,-3.04 -1.38,-6.06 -2.86,-9.26c-0.72,-1.55 -1.32,-3.14 -1.9,-4.68c-0.2,-0.53 -0.4,-1.07 -0.61,-1.6c-0.14,-0.37 -0.18,-0.79 -0.11,-1.22c0.08,-0.45 0.5,-0.89 0.97,-1c0.08,-0.02 0.17,-0.03 0.27,-0.03c0.24,0 0.78,0.08 1.1,0.38c0.39,0.37 0.82,0.81 1.11,1.31c2.75,4.62 5.02,9.26 6.75,13.78c1.09,2.86 1.97,5.42 2.7,7.82c0.65,2.15 1.21,4.41 1.71,6.89c0.26,1.31 0.45,2.64 0.63,3.93c0.13,0.91 0.26,1.82 0.41,2.73l0.04,0.25c0.13,0.78 0.25,1.51 0.62,2.15c0.37,0.64 1.22,1.06 2.17,1.06c0.66,0 1.3,-0.2 1.81,-0.56c1.83,-1.29 3.41,-2.77 4.85,-4.17c0.77,-0.75 1.42,-1.65 1.92,-2.66c0.42,-0.85 0.04,-1.73 -0.58,-2.97l-1.97,-3.92c-2.06,-4.1 -4.19,-8.34 -6.19,-12.53c-1.34,-2.82 -2.42,-5.78 -3.38,-8.39c-0.91,-2.49 -1.54,-4.53 -1.97,-6.41c-0.63,-2.79 -1.18,-5.72 -1.66,-8.96c-0.44,-2.95 -0.83,-5.96 -1.21,-8.86c-0.23,-1.74 -0.45,-3.49 -0.69,-5.23c-0.12,-0.86 -0.26,-1.72 -0.39,-2.57c-0.17,-1.07 -0.34,-2.14 -0.48,-3.21c-0.12,-0.96 -0.19,-1.91 -0.27,-2.87c-0.06,-0.73 -0.12,-1.46 -0.19,-2.2c-0.13,-1.22 -0.29,-2.43 -0.45,-3.65l-0.29,-2.27c-0.12,-0.96 -0.24,-1.93 -0.4,-2.89c-0.2,-1.21 -0.43,-2.41 -0.66,-3.62l-0.37,-1.94c-0.2,-1.06 -0.4,-2.11 -0.62,-3.16c-0.2,-0.95 -0.43,-1.9 -0.65,-2.85l-0.51,-2.16c-0.29,-1.23 -0.57,-2.46 -0.87,-3.69c-0.14,-0.56 -0.28,-1.12 -0.43,-1.68c-0.16,-0.62 -0.33,-1.25 -0.47,-1.87c-0.13,-0.54 -0.24,-1.08 -0.35,-1.63c-0.08,-0.39 -0.16,-0.78 -0.25,-1.16c-0.32,-1.43 -0.65,-2.85 -0.97,-4.28c0,0 -0.28,-1.22 -0.37,-1.57c-0.16,-0.65 -0.31,-1.31 -0.45,-1.96c-0.1,-0.5 -0.21,-0.99 -0.32,-1.49c-0.31,-1.4 -0.62,-2.85 -0.78,-4.31c-0.15,-1.38 -0.15,-2.77 -0.16,-4.11c0,-0.54 0,-1.08 -0.01,-1.62c-0.01,-0.34 0.1,-0.66 0.31,-0.9c0.14,-0.16 0.5,-0.53 0.99,-0.56c0,0 0.01,0 0.01,0c0.4,0 0.97,0.18 1.23,0.57l0.13,0.2c0.35,0.54 0.72,1.1 0.96,1.71c0.63,1.59 1.22,3.19 1.81,4.78l1.03,2.77c0.57,1.53 1.15,3.07 1.7,4.6c0.31,0.86 0.6,1.73 0.89,2.6c0.25,0.75 0.5,1.5 0.77,2.25c0.28,0.8 0.57,1.59 0.86,2.38c0.45,1.21 0.89,2.43 1.3,3.65c0.36,1.08 0.68,2.18 0.98,3.24c0.17,0.6 0.35,1.21 0.53,1.81c0.29,0.94 0.58,1.88 0.87,2.82c0.58,1.86 1.18,3.78 1.71,5.69c0.5,1.83 0.94,3.68 1.36,5.48c0.2,0.84 0.39,1.69 0.6,2.53c0.14,0.58 0.29,1.17 0.44,1.75c0.31,1.19 0.63,2.43 0.87,3.66c0.57,2.92 1.08,5.88 1.58,8.75l0.28,1.59c0.51,2.95 1.01,5.91 1.5,8.87c0.17,1.02 0.32,2.04 0.48,3.06c0.31,2.04 0.62,4.14 1.06,6.19c0.77,3.62 1.67,7.15 2.68,10.5c1.01,3.39 2.01,6.16 3.15,8.71c0.98,2.21 2.22,4.44 3.42,6.59c0.38,0.67 0.75,1.35 1.12,2.03c0.19,0.34 0.52,0.69 0.91,0.95c0.5,0.33 1.16,0.51 1.85,0.51c0.9,0 1.79,-0.3 2.44,-0.82c1.04,-0.84 1.99,-1.77 2.91,-2.66l0.39,-0.38c3.51,-3.4 6.1,-6.32 8.16,-9.18c1.06,-1.48 1.83,-2.95 2.29,-4.38c0.54,-1.68 -0.27,-3.19 -2.46,-4.63c-3.98,-2.6 -8.59,-5.75 -12.56,-9.39c-4.35,-3.98 -7.45,-8.49 -9.48,-13.8c-1.12,-2.92 -1.76,-6.01 -1.92,-9.16c-0.12,-2.37 -0.02,-4.84 0.29,-7.53c0.38,-3.26 1.77,-6.22 4.12,-8.8c1.5,-1.64 3.76,-2.97 7.12,-4.21c2.82,-1.03 5.91,-1.71 9.44,-2.08c8.36,-0.86 16.67,-1.36 22.98,-1.7l1.43,-0.08c1.6,-0.09 3.25,-0.19 4.89,-0.19l0.21,0c3.73,0.02 6.71,1.93 6.93,4.43c0.17,1.99 0.25,4.16 0.24,6.86c-0.03,8.88 -0.07,17.75 -0.11,26.63c-0.05,12.56 -0.11,25.11 -0.14,37.67c-0.02,6.84 0.03,13.79 0.07,20.51c0.02,3.43 0.04,6.87 0.06,10.3l0,0.59c0.01,2.46 0.02,5 -0.03,7.5c-0.02,0.75 -0.22,1.53 -0.6,2.24c-0.46,0.87 -1.46,1.41 -2.62,1.41l0,0c-0.54,0 -1.09,-0.12 -1.6,-0.34c-3.31,-1.47 -5.04,-3.25 -5.29,-5.44c-0.13,-1.17 -0.2,-2.35 -0.26,-3.5c-0.04,-0.63 -0.07,-1.25 -0.12,-1.88c-0.1,-1.37 -0.51,-6.71 -0.6,-8c-0.09,-1.21 -0.16,-2.41 -0.23,-3.62c-0.04,-0.72 -0.08,-1.45 -0.11,-2.17c-0.06,-1.13 -0.11,-2.26 -0.19,-3.4c-0.11,-1.64 -0.23,-3.28 -0.35,-4.91l-0.25,-3.42c-0.07,-1.03 -0.15,-2.05 -0.19,-3.08c-0.05,-1.07 -0.08,-2.15 -0.12,-3.22c-0.02,-0.68 -0.04,-1.36 -0.07,-2.04c0,0 -0.33,-8.65 -0.4,-10.67c-0.08,-2.14 -0.15,-4.28 -0.21,-6.43c-0.05,-1.99 -0.27,-10.88 -0.27,-10.88c-0.02,-0.85 -0.05,-1.69 -0.08,-2.53c-0.03,-1.05 -0.07,-2.1 -0.09,-3.14c-0.09,-4.02 -0.18,-8.04 -0.25,-12.05c-0.05,-2.95 -0.09,-5.89 -0.14,-8.84c-0.03,-2.24 -0.07,-4.49 -0.1,-6.73c-0.02,-1.33 -0.51,-2.66 -1.49,-4.04c-0.8,-1.12 -2.36,-1.7 -4.64,-1.72l-0.44,0c-3.32,0 -6.42,0.3 -9.23,0.89c-2.5,0.53 -4.21,1.69 -5.67,2.86c-3.63,2.91 -6.04,6.37 -7.38,10.57c-0.89,2.79 -1.39,5.86 -1.54,9.38c-0.09,2.03 0.41,4.04 0.94,6.17l0.15,0.61c0.68,2.76 1.75,5.25 3.27,7.62c3.13,4.87 7.08,8.78 12.08,11.97c0.93,0.59 1.89,1.17 2.85,1.74c1.13,0.68 2.29,1.37 3.4,2.09c1.65,1.08 2.58,2.55 2.86,4.5c0.55,3.86 -1.44,7.3 -3.33,10.22c-3.53,5.43 -7.88,10.92 -12.94,16.3c-4.6,4.9 -9.92,10.61 -14.86,16.29c-1.22,1.41 -4.04,4.1 -7.61,7.51c-9.35,8.94 -25,23.9 -26.58,30.19c-2.16,8.6 -0.01,26.16 0.02,26.34c0.01,0.82 -0.59,1.42 -1.32,1.42l-17.42,0z" class="st1"/>
    <path id="svg_16" fill="#002C4C" d="m147.25803,27.63496c0.22,0.17 0.55,0.32 0.62,0.51c0.17,0.44 0.3,0.91 0.29,1.36c-0.06,1.89 -0.19,3.77 -0.29,5.66c-0.07,1.29 -0.13,2.57 -0.18,3.86c-0.08,1.83 -0.17,3.66 -0.24,5.5c-0.05,1.29 -0.07,2.57 -0.11,3.86c-0.05,1.83 -0.11,3.66 -0.16,5.49c-0.03,1.41 -0.02,2.82 -0.07,4.23c-0.04,1.34 -0.15,2.68 -0.2,4.01c-0.05,1.22 -0.02,2.43 -0.12,3.65c-0.13,1.72 -0.32,3.43 -0.54,5.15c-0.21,1.65 -0.46,3.29 -0.75,4.93c-0.37,2.1 -0.75,4.19 -1.21,6.28c-0.38,1.76 -0.76,3.52 -1.33,5.26c-0.93,2.83 -2.06,5.64 -3.02,8.47c-1.1,3.27 -3,6.38 -4.7,9.53c-0.87,1.62 -2.01,3.19 -3,4.79c-1.78,2.87 -3.55,5.75 -5.29,8.63c-2.29,3.8 -4.65,7.6 -6.78,11.44c-1.65,2.96 -3.06,5.98 -4.45,9c-1.19,2.59 -2.22,5.2 -3.28,7.81c-0.74,1.83 -0.42,3.61 0.69,5.34c0.44,0.69 0.88,1.38 1.45,2.02c0.6,0.68 1.44,1.03 2.28,1.03c0.79,0 1.58,-0.31 2.16,-0.95c0.95,-1.05 1.65,-2.19 2.4,-3.31c3.09,-4.63 6.38,-9.2 10.19,-13.61c2.86,-3.31 5.95,-6.53 9.41,-9.59c0.72,-0.64 1.59,-1.23 2.55,-1.72c0.59,-0.31 1.3,-0.45 2,-0.45c0.67,0 1.34,0.13 1.89,0.37c1.11,0.48 1.91,1.57 1.45,2.38c-0.5,0.88 -1.3,1.69 -1.98,2.53c-2.34,2.89 -4.97,5.7 -6.97,8.68c-3.7,5.51 -7.15,11.09 -10.49,16.7c-1.54,2.58 -2.68,5.26 -3.8,7.93c-0.7,1.66 -1.08,3.38 -1.52,5.08c-0.16,0.6 -0.07,1.24 -0.09,1.85c-0.07,1.64 -0.16,3.28 -0.19,4.92c-0.01,0.99 0.05,1.97 0.15,2.96c0.17,1.8 0.35,3.6 0.61,5.4c0.27,1.88 0.49,3.77 1,5.62c0.54,1.95 1.34,3.87 2.15,5.79c0.92,2.19 1.87,4.37 3,6.51c1.25,2.37 3.27,4.52 5.27,6.65c1.44,1.54 3.08,3.02 4.63,4.52c0.06,0.06 0.12,0.12 0.19,0.17c0.71,0.54 1.35,0.82 1.94,0.82c0.64,0 1.23,-0.32 1.76,-0.99c1.61,-2.01 3.09,-4.07 4.53,-6.13c2.73,-3.93 4.92,-7.99 6.75,-12.12c1.51,-3.4 2.97,-6.82 4.17,-10.27c0.95,-2.75 1.55,-5.56 2.15,-8.36c0.35,-1.65 0.37,-3.33 0.58,-5c0.17,-1.35 0.49,-2.7 0.59,-4.05c0.13,-1.87 0.25,-3.75 0.12,-5.61c-0.15,-2.05 -0.61,-4.1 -0.91,-6.15c-0.47,-3.22 -1.48,-6.36 -2.92,-9.46c-0.95,-2.06 -1.68,-4.16 -2.48,-6.24c-0.1,-0.27 -0.12,-0.56 -0.07,-0.84c0.03,-0.15 0.22,-0.37 0.42,-0.41c0.03,-0.01 0.07,-0.01 0.11,-0.01c0.2,0 0.5,0.08 0.6,0.18c0.38,0.36 0.75,0.75 0.99,1.15c2.66,4.47 4.92,9.02 6.69,13.67c0.98,2.58 1.9,5.17 2.69,7.77c0.69,2.26 1.24,4.54 1.7,6.82c0.44,2.2 0.66,4.43 1.04,6.64c0.15,0.89 0.27,1.81 0.74,2.63c0.52,0.92 1.64,1.43 2.81,1.43c0.77,0 1.56,-0.22 2.23,-0.69c1.85,-1.3 3.43,-2.77 4.94,-4.25c0.89,-0.87 1.57,-1.86 2.06,-2.86c0.6,-1.22 0.02,-2.43 -0.58,-3.62c-2.74,-5.47 -5.54,-10.94 -8.15,-16.43c-1.3,-2.74 -2.33,-5.53 -3.35,-8.32c-0.77,-2.09 -1.46,-4.2 -1.94,-6.32c-0.67,-2.96 -1.21,-5.93 -1.65,-8.9c-0.7,-4.69 -1.26,-9.39 -1.9,-14.08c-0.26,-1.93 -0.63,-3.85 -0.87,-5.78c-0.21,-1.68 -0.28,-3.37 -0.46,-5.05c-0.17,-1.63 -0.4,-3.26 -0.61,-4.9c-0.17,-1.32 -0.31,-2.63 -0.53,-3.95c-0.26,-1.61 -0.59,-3.22 -0.89,-4.82c-0.25,-1.31 -0.49,-2.62 -0.76,-3.93c-0.28,-1.31 -0.6,-2.61 -0.9,-3.92c-0.37,-1.6 -0.74,-3.2 -1.13,-4.8c-0.29,-1.18 -0.62,-2.36 -0.9,-3.55c-0.22,-0.92 -0.39,-1.85 -0.59,-2.78c-0.36,-1.61 -0.73,-3.21 -1.1,-4.81c-0.23,-0.99 -0.48,-1.99 -0.69,-2.98c-0.39,-1.91 -0.88,-3.81 -1.09,-5.73c-0.21,-1.88 -0.13,-3.78 -0.16,-5.67c0,-0.14 0.03,-0.29 0.13,-0.41c0.11,-0.13 0.31,-0.3 0.49,-0.31c0.01,0 0.02,0 0.03,0c0.18,0 0.48,0.13 0.55,0.24c0.38,0.58 0.79,1.17 1.03,1.78c0.82,2.07 1.57,4.14 2.34,6.21c0.74,1.97 1.48,3.94 2.19,5.92c0.58,1.61 1.09,3.23 1.66,4.84c0.71,2.01 1.49,4.01 2.16,6.02c0.56,1.67 1,3.35 1.51,5.03c0.86,2.83 1.79,5.65 2.57,8.49c0.73,2.65 1.3,5.32 1.95,7.98c0.44,1.79 0.95,3.57 1.3,5.37c0.67,3.44 1.25,6.88 1.85,10.33c0.51,2.95 1.01,5.91 1.5,8.86c0.51,3.09 0.88,6.2 1.54,9.28c0.75,3.53 1.64,7.06 2.69,10.56c0.88,2.95 1.9,5.9 3.18,8.8c1.3,2.93 2.99,5.79 4.57,8.67c0.24,0.44 0.65,0.88 1.15,1.21c0.64,0.42 1.44,0.63 2.25,0.63c1.03,0 2.08,-0.33 2.89,-0.98c1.21,-0.98 2.28,-2.04 3.36,-3.09c3.07,-2.98 5.92,-6.04 8.24,-9.28c1.05,-1.46 1.89,-3.02 2.39,-4.59c0.66,-2.07 -0.36,-3.89 -2.76,-5.46c-4.48,-2.93 -8.79,-5.95 -12.47,-9.32c-4.51,-4.13 -7.43,-8.67 -9.29,-13.52c-1.13,-2.94 -1.72,-5.93 -1.87,-8.94c-0.12,-2.47 0,-4.95 0.29,-7.41c0.34,-2.96 1.57,-5.8 3.94,-8.39c1.63,-1.78 4.09,-3.01 6.84,-4.02c2.88,-1.06 5.98,-1.7 9.27,-2.04c7.61,-0.79 15.27,-1.29 22.94,-1.7c2.09,-0.11 4.18,-0.27 6.27,-0.27c0.07,0 0.14,0 0.21,0c3.3,0.02 6.03,1.67 6.21,3.77c0.19,2.26 0.24,4.53 0.24,6.79c-0.07,21.43 -0.2,42.86 -0.24,64.3c-0.02,10.27 0.09,20.55 0.13,30.82c0.01,2.69 0.03,5.38 -0.03,8.07c-0.01,0.64 -0.19,1.31 -0.51,1.91c-0.34,0.65 -1.11,1.02 -1.98,1.02c-0.42,0 -0.87,-0.09 -1.3,-0.28c-2.66,-1.18 -4.62,-2.7 -4.86,-4.86c-0.2,-1.78 -0.25,-3.57 -0.38,-5.35c-0.19,-2.67 -0.41,-5.34 -0.6,-8c-0.09,-1.2 -0.16,-2.4 -0.23,-3.61c-0.1,-1.86 -0.18,-3.71 -0.3,-5.57c-0.17,-2.58 -0.37,-5.16 -0.55,-7.74c-0.09,-1.22 -0.18,-2.44 -0.23,-3.66c-0.08,-1.75 -0.12,-3.5 -0.18,-5.25c-0.13,-3.56 -0.27,-7.11 -0.4,-10.67c-0.08,-2.14 -0.15,-4.28 -0.2,-6.42c-0.1,-3.63 -0.18,-7.25 -0.27,-10.88c-0.05,-1.89 -0.13,-3.78 -0.17,-5.68c-0.09,-4.02 -0.18,-8.03 -0.25,-12.05c-0.09,-5.19 -0.16,-10.38 -0.24,-15.56c-0.03,-1.56 -0.62,-3.04 -1.62,-4.45c-1.02,-1.44 -2.93,-2.01 -5.23,-2.03c-0.15,0 -0.3,0 -0.45,0c-3.19,0 -6.34,0.27 -9.39,0.91c-2.56,0.54 -4.35,1.71 -5.98,3.01c-4.02,3.22 -6.34,6.9 -7.62,10.92c-1.01,3.17 -1.44,6.36 -1.57,9.57c-0.1,2.34 0.54,4.66 1.11,6.98c0.66,2.7 1.74,5.32 3.37,7.84c2.92,4.54 6.82,8.69 12.3,12.19c2.04,1.3 4.22,2.51 6.24,3.83c1.67,1.09 2.32,2.48 2.54,3.99c0.49,3.46 -1.2,6.61 -3.22,9.72c-3.64,5.61 -7.97,10.99 -12.86,16.2c-5.06,5.4 -10.1,10.81 -14.88,16.31c-4.53,5.21 -32.12,29.16 -34.34,38s0,26.61 0,26.61c0,0.33 -0.27,0.6 -0.6,0.6l-17.4,0c-0.33,0 -0.6,-0.27 -0.6,-0.6c0,0 3.24,-22.99 0,-27.38c-3.24,-4.38 -5.85,-5.7 -8.1,-7.95c-1.13,-1.13 -2.19,-2.3 -3.24,-3.46c-1.1,-1.23 -2.27,-2.44 -3.2,-3.72c-1.61,-2.21 -3.09,-4.46 -4.57,-6.71c-0.93,-1.41 -2.39,-2.56 -4.36,-3.4c-0.79,-0.34 -1.84,-0.51 -2.8,-0.58c-2.94,-0.22 -5.89,-0.31 -8.84,-0.31c-1.85,0 -3.7,0.03 -5.55,0.09c-5.06,0.15 -10.13,0.15 -15.18,0.37c-1.17,0.05 -2.33,0.07 -3.49,0.07c-2.73,0 -5.45,-0.11 -8.17,-0.15c-4.29,-0.06 -6.47,-1.79 -6.66,-4.06c-0.1,-1.2 -0.27,-2.4 -0.28,-3.6c-0.07,-9.44 -0.11,-18.88 -0.15,-28.32c-0.02,-4.55 -0.03,-9.1 -0.03,-13.65c0,-3.63 0,-7.26 0,-10.89c0.08,0 0.17,0 0.25,0c0.06,-17.78 0.12,-35.57 0.2,-53.35c0,-0.76 0.14,-1.52 0.36,-2.26c0.12,-0.4 0.45,-0.81 0.85,-1.13c0.48,-0.39 1.08,-0.58 1.66,-0.58c0.68,0 1.32,0.27 1.69,0.8c0.53,0.76 0.9,1.6 1.05,2.42c0.3,1.68 0.43,3.38 0.58,5.07c0.26,2.86 0.48,5.72 0.7,8.58c0.17,2.15 0.34,4.31 0.48,6.46c0.2,2.88 0.39,5.76 0.56,8.63c0.18,2.91 0.33,5.83 0.49,8.74c0.16,2.97 0.31,5.94 0.46,8.9c0.12,2.24 0.23,4.49 0.35,6.73c0.17,3.04 0.33,6.08 0.51,9.12c0.14,2.33 0.3,4.66 0.46,6.99c0.16,2.3 0.32,4.59 0.49,6.89c0.17,2.33 0.33,4.66 0.53,6.99c0.26,3.09 0.53,6.18 0.81,9.27c0.27,3.11 0.53,6.22 0.85,9.32c0.17,1.6 0.35,3.2 0.74,4.79c0.28,1.1 1.2,2.09 2.31,2.97c1.25,0.99 3.04,1.35 4.89,1.35c0.11,0 0.21,0 0.32,0c4.01,0 8.02,-0.02 12.01,-0.24c5.62,-0.31 9.33,-2.38 11.57,-5.6c1.3,-1.87 1.92,-3.85 2.28,-5.88c0.55,-3.06 0.39,-6.12 -0.1,-9.16c-0.44,-2.71 -1.31,-5.4 -2.03,-8.1c-1.23,-4.6 -3.13,-9.1 -5.43,-13.53c-2.4,-4.62 -5.74,-8.98 -10.42,-12.86c-1.75,-1.45 -3.93,-2.69 -5.89,-4.04c-1.35,-0.93 -2.76,-1.84 -3.99,-2.83c-2.38,-1.92 -2.62,-4.11 -1.54,-6.37c1.3,-2.72 3.52,-5.17 5.72,-7.63c4.62,-5.18 8.59,-10.56 11.63,-16.19c1.14,-2.12 2.12,-4.29 2.93,-6.47c0.57,-1.53 0.84,-3.12 1.08,-4.69c0.21,-1.37 0.24,-2.75 0.25,-4.13c0.02,-2.66 -3.18,-4.9 -7.37,-5.11c-0.89,-0.04 -1.78,-0.06 -2.68,-0.06c-1.21,0 -2.41,0.02 -3.62,0.03c-0.65,0.01 -1.3,0.02 -1.95,0.02c-1.15,0 -2.28,-0.05 -3.4,-0.31c-0.36,-0.08 -0.73,-0.18 -1.06,-0.31c-0.69,-0.27 -1.11,-0.66 -0.96,-1.2c0.14,-0.5 0.8,-0.74 1.48,-0.83c1.13,-0.16 2.3,-0.26 3.45,-0.33c5.15,-0.29 10.3,-0.57 15.46,-0.82c1.31,-0.06 2.62,-0.12 3.93,-0.12c1.51,0 3.02,0.07 4.52,0.28c4.04,0.57 6.44,2.71 6.69,4.84c0.25,2.16 0.32,4.36 -0.07,6.5c-0.34,1.84 -1.38,3.64 -2.2,5.45c-1.55,3.42 -3.98,6.6 -6.65,9.7c-3.57,4.15 -7.32,8.23 -11.68,12.07c-3.63,3.2 -7.38,6.34 -11.5,9.29c-1.81,1.3 -1.49,2.53 0.8,3.46c1.92,0.78 3.96,1.44 5.8,2.28c3.74,1.72 7.51,3.42 10.43,5.75c0.38,0.3 0.81,0.58 1.26,0.85c0.64,0.38 1.35,0.57 2.04,0.57c0.82,0 1.61,-0.27 2.19,-0.82c0.62,-0.59 1.1,-1.27 1.44,-1.95c1.76,-3.52 3.35,-7.07 5.2,-10.57c1.92,-3.63 4.06,-7.21 6.1,-10.81c1.82,-3.21 3.64,-6.42 5.44,-9.63c1.46,-2.59 3.02,-5.16 4.33,-7.79c1.81,-3.63 3.53,-7.28 5.07,-10.96c1.63,-3.87 3.06,-7.78 3.95,-11.76c0.75,-3.35 1.54,-6.69 2.22,-10.04c0.47,-2.3 0.81,-4.61 1.16,-6.92c0.47,-3.17 0.86,-6.34 1.33,-9.51c0.23,-1.56 0.63,-3.11 0.87,-4.67c0.21,-1.37 0.26,-2.75 0.48,-4.11c0.27,-1.73 0.61,-3.46 0.97,-5.19c0.4,-1.93 0.84,-3.86 1.29,-5.79c0.09,-0.36 0.24,-0.73 0.49,-1.06c0.12,-0.23 0.49,-0.36 0.76,-0.51m-0.01,-1.45c-0.25,0 -0.5,0.06 -0.73,0.19c-0.05,0.03 -0.12,0.06 -0.18,0.09c-0.31,0.15 -0.74,0.36 -1.05,0.79c-0.34,0.47 -0.59,1.02 -0.73,1.59c-0.4,1.72 -0.87,3.76 -1.3,5.83c-0.3,1.45 -0.68,3.35 -0.98,5.26c-0.11,0.73 -0.18,1.45 -0.25,2.15c-0.07,0.68 -0.13,1.32 -0.23,1.96c-0.11,0.73 -0.26,1.45 -0.41,2.21c-0.16,0.8 -0.33,1.63 -0.46,2.47c-0.25,1.65 -0.48,3.33 -0.7,4.95c-0.21,1.52 -0.41,3.04 -0.64,4.56c-0.33,2.24 -0.67,4.55 -1.14,6.85c-0.48,2.34 -1.02,4.72 -1.54,7.02c-0.23,1 -0.45,1.99 -0.68,2.99c-0.76,3.39 -1.95,6.94 -3.87,11.51c-1.38,3.27 -3.02,6.83 -5.03,10.88c-0.91,1.84 -1.98,3.7 -3.02,5.5c-0.43,0.74 -0.85,1.48 -1.27,2.22c-1.81,3.21 -3.62,6.42 -5.44,9.63c-0.64,1.13 -1.29,2.26 -1.94,3.38c-1.4,2.43 -2.86,4.95 -4.18,7.46c-1.13,2.14 -2.18,4.33 -3.19,6.44c-0.66,1.37 -1.33,2.78 -2.02,4.16c-0.29,0.58 -0.68,1.12 -1.14,1.55c-0.29,0.27 -0.71,0.42 -1.19,0.42c-0.44,0 -0.91,-0.13 -1.3,-0.36c-0.45,-0.27 -0.81,-0.51 -1.1,-0.73c-2.98,-2.37 -6.76,-4.11 -10.41,-5.78l-0.32,-0.15c-1.19,-0.54 -2.45,-1.02 -3.67,-1.47c-0.74,-0.27 -1.47,-0.55 -2.19,-0.84c-0.54,-0.22 -0.83,-0.41 -0.97,-0.52c0.08,-0.09 0.23,-0.23 0.47,-0.4c3.64,-2.6 7.22,-5.5 11.62,-9.38c4.82,-4.26 8.85,-8.76 11.82,-12.21c2.42,-2.82 5.14,-6.21 6.87,-10.05c0.19,-0.42 0.39,-0.84 0.6,-1.27c0.69,-1.44 1.41,-2.92 1.7,-4.52c0.37,-2.02 0.4,-4.29 0.08,-6.93c-0.36,-3.04 -3.54,-5.49 -7.93,-6.11c-1.42,-0.2 -2.97,-0.3 -4.73,-0.3c-1.36,0 -2.73,0.06 -4,0.12c-5.16,0.25 -10.26,0.53 -15.47,0.82c-1.27,0.07 -2.47,0.18 -3.57,0.34c-1.84,0.26 -2.47,1.16 -2.68,1.87c-0.28,0.97 0.06,2.25 1.82,2.95c0.43,0.17 0.88,0.29 1.27,0.37c1.32,0.31 2.62,0.35 3.72,0.35c0.39,0 0.79,-0.01 1.18,-0.01c0.26,0 0.52,-0.01 0.78,-0.01c0.45,0 0.91,-0.01 1.36,-0.02c0.75,-0.01 1.5,-0.02 2.25,-0.02c1.01,0 1.83,0.02 2.61,0.05c3.31,0.16 5.99,1.79 5.98,3.64c-0.01,1.2 -0.03,2.59 -0.24,3.92c-0.23,1.52 -0.48,3 -1.01,4.4c-0.82,2.18 -1.78,4.3 -2.85,6.29c-2.84,5.28 -6.58,10.48 -11.43,15.91l-0.22,0.25c-2.15,2.41 -4.38,4.9 -5.72,7.72c-1.48,3.1 -0.81,5.91 1.94,8.13c1.01,0.82 2.13,1.57 3.21,2.31c0.29,0.2 0.58,0.4 0.87,0.59c0.68,0.47 1.39,0.92 2.07,1.36c1.35,0.87 2.63,1.69 3.72,2.6c4.26,3.54 7.55,7.59 10.05,12.41c2.46,4.73 4.2,9.06 5.32,13.23c0.19,0.7 0.38,1.4 0.58,2.1c0.57,2.02 1.11,3.92 1.42,5.86c0.54,3.31 0.57,6.07 0.1,8.66c-0.4,2.21 -1.03,3.84 -2.04,5.31c-2.11,3.04 -5.62,4.71 -10.45,4.97c-4.05,0.22 -8.12,0.24 -11.93,0.24l-0.31,0c-1.75,0 -3.13,-0.36 -3.98,-1.04c-1.04,-0.83 -1.65,-1.56 -1.8,-2.18c-0.36,-1.46 -0.53,-2.94 -0.7,-4.58c-0.24,-2.3 -0.44,-4.64 -0.64,-6.9l-0.21,-2.4l-0.14,-1.62c-0.23,-2.55 -0.45,-5.09 -0.66,-7.64c-0.16,-1.91 -0.3,-3.83 -0.44,-5.74l-0.09,-1.24c-0.17,-2.29 -0.33,-4.59 -0.49,-6.88l-0.02,-0.25c-0.15,-2.24 -0.31,-4.49 -0.44,-6.73c-0.18,-3.04 -0.35,-6.07 -0.51,-9.11c-0.08,-1.48 -0.16,-2.95 -0.23,-4.43l-0.12,-2.3l-0.12,-2.42c-0.11,-2.16 -0.22,-4.33 -0.34,-6.49l-0.01,-0.13c-0.16,-2.87 -0.31,-5.75 -0.48,-8.62c-0.16,-2.68 -0.34,-5.51 -0.56,-8.65c-0.15,-2.16 -0.31,-4.32 -0.48,-6.48l-0.08,-1.03c-0.19,-2.48 -0.4,-5.04 -0.62,-7.56l-0.05,-0.51c-0.13,-1.53 -0.27,-3.11 -0.56,-4.68c-0.18,-1.02 -0.63,-2.05 -1.29,-3c-0.62,-0.89 -1.7,-1.42 -2.88,-1.42c-0.94,0 -1.85,0.32 -2.57,0.91c-0.66,0.53 -1.13,1.19 -1.33,1.85c-0.28,0.94 -0.42,1.83 -0.42,2.67c-0.07,14.99 -0.12,29.98 -0.17,44.98l-0.03,7.56c-0.16,0.23 -0.26,0.52 -0.26,0.82l0,3.33c0,2.52 0,5.04 0,7.57l0,0.42c0.01,4.41 0.01,8.83 0.03,13.24l0,0.89c0.04,8.99 0.08,18.29 0.14,27.43c0.01,0.91 0.1,1.8 0.18,2.65c0.04,0.35 0.07,0.71 0.1,1.06c0.1,1.24 0.99,5.28 8.09,5.39c1.03,0.02 2.07,0.04 3.1,0.07c1.67,0.04 3.39,0.08 5.1,0.08c1.29,0 2.46,-0.02 3.55,-0.07c2.99,-0.13 6.05,-0.19 9,-0.24c2.02,-0.04 4.1,-0.07 6.16,-0.13c1.99,-0.06 3.79,-0.09 5.51,-0.09c3.16,0 6.02,0.1 8.73,0.3c0.97,0.07 1.8,0.24 2.34,0.47c1.68,0.72 2.93,1.68 3.71,2.86l0.11,0.17c1.43,2.17 2.91,4.42 4.5,6.6c0.79,1.08 1.72,2.11 2.63,3.1c0.22,0.25 0.45,0.49 0.67,0.74c1.02,1.14 2.13,2.35 3.3,3.52c0.78,0.79 1.58,1.44 2.43,2.14c1.7,1.39 3.45,2.84 5.53,5.65c2.1,2.84 0.95,17.65 -0.27,26.31c-0.01,0.07 -0.01,0.14 -0.01,0.2c0,1.13 0.92,2.06 2.06,2.06l17.4,0c1.13,0 2.06,-0.92 2.06,-2.06c0,-0.06 0,-0.12 -0.01,-0.18c-0.02,-0.18 -2.16,-17.6 -0.03,-26.07c1.53,-6.09 17.08,-20.96 26.37,-29.84c3.58,-3.42 6.41,-6.13 7.66,-7.56c4.94,-5.68 10.25,-11.37 14.85,-16.27c5.08,-5.42 9.46,-10.94 13.02,-16.41c1.97,-3.03 4.03,-6.61 3.45,-10.72c-0.31,-2.17 -1.35,-3.81 -3.18,-5c-1.12,-0.73 -2.29,-1.43 -3.43,-2.11c-0.94,-0.56 -1.91,-1.14 -2.83,-1.73c-4.91,-3.12 -8.78,-6.97 -11.86,-11.75c-1.48,-2.3 -2.52,-4.72 -3.18,-7.4l-0.15,-0.61c-0.51,-2.08 -1,-4.04 -0.92,-5.97c0.15,-3.46 0.64,-6.47 1.5,-9.19c1.29,-4.06 3.63,-7.41 7.14,-10.23c1.4,-1.12 3.01,-2.22 5.37,-2.72c2.76,-0.58 5.82,-0.88 9.09,-0.88l0.44,0c1.4,0.01 3.24,0.26 4.05,1.41c0.89,1.26 1.34,2.45 1.36,3.64c0.04,2.25 0.07,4.49 0.1,6.74c0.04,2.94 0.09,5.89 0.14,8.83c0.07,4.09 0.16,8.2 0.25,12.06c0.02,1.05 0.06,2.1 0.09,3.15c0.03,0.84 0.05,1.69 0.08,2.53c0.04,1.65 0.08,3.31 0.12,4.96c0.05,1.97 0.1,3.95 0.15,5.92c0.06,2.14 0.13,4.29 0.2,6.43c0.07,2.01 0.15,4.02 0.22,6.02c0.06,1.55 0.12,3.09 0.17,4.64c0.03,0.68 0.05,1.36 0.07,2.04c0.03,1.08 0.07,2.15 0.12,3.23c0.05,1.04 0.12,2.08 0.19,3.09l0.04,0.6c0.07,0.95 0.14,1.89 0.21,2.84c0.12,1.63 0.24,3.26 0.35,4.89c0.07,1.13 0.13,2.26 0.19,3.39c0.04,0.72 0.07,1.45 0.11,2.17c0.07,1.21 0.14,2.42 0.23,3.63c0.1,1.3 0.19,2.6 0.29,3.9c0.1,1.37 0.21,2.74 0.31,4.11c0.05,0.62 0.08,1.24 0.12,1.86c0.07,1.16 0.13,2.35 0.27,3.54c0.28,2.47 2.14,4.44 5.71,6.03c0.6,0.27 1.25,0.41 1.89,0.41c1.43,0 2.68,-0.69 3.26,-1.79c0.43,-0.81 0.66,-1.69 0.68,-2.56c0.05,-2.52 0.04,-5.08 0.03,-7.55l0,-0.56c-0.01,-3.44 -0.04,-6.89 -0.06,-10.33c-0.04,-6.71 -0.09,-13.65 -0.07,-20.48c0.03,-12.58 0.08,-25.37 0.14,-37.74c0.04,-8.85 0.08,-17.7 0.11,-26.56c0.01,-2.71 -0.07,-4.91 -0.24,-6.92c-0.25,-2.89 -3.54,-5.08 -7.65,-5.1l-0.22,0c-1.65,0 -3.31,0.1 -4.92,0.19c-0.48,0.03 -0.96,0.06 -1.43,0.08c-6.32,0.34 -14.64,0.84 -23.02,1.7c-3.6,0.37 -6.75,1.07 -9.62,2.12c-3.48,1.28 -5.83,2.67 -7.41,4.4c-2.46,2.69 -3.91,5.79 -4.31,9.21c-0.32,2.74 -0.42,5.24 -0.3,7.65c0.16,3.24 0.82,6.4 1.97,9.39c2.07,5.41 5.24,10.02 9.67,14.07c4.02,3.68 8.65,6.85 12.66,9.46c2.79,1.82 2.34,3.26 2.16,3.8c-0.43,1.36 -1.17,2.76 -2.19,4.18c-2.03,2.83 -4.59,5.71 -8.07,9.08l-0.4,0.39c-0.95,0.92 -1.84,1.79 -2.86,2.61c-0.52,0.42 -1.24,0.66 -1.98,0.66c-0.56,0 -1.07,-0.14 -1.45,-0.39c-0.29,-0.19 -0.55,-0.45 -0.68,-0.69c-0.37,-0.68 -0.75,-1.36 -1.12,-2.03c-1.19,-2.14 -2.42,-4.35 -3.39,-6.53c-1.12,-2.52 -2.11,-5.26 -3.12,-8.62c-1,-3.33 -1.89,-6.85 -2.66,-10.45c-0.43,-2.03 -0.75,-4.12 -1.05,-6.14c-0.15,-1.02 -0.31,-2.05 -0.48,-3.07c-0.43,-2.61 -0.95,-5.71 -1.5,-8.87l-0.27,-1.56c-0.5,-2.88 -1.02,-5.86 -1.59,-8.8c-0.24,-1.25 -0.57,-2.5 -0.88,-3.71c-0.15,-0.58 -0.3,-1.15 -0.44,-1.73c-0.2,-0.84 -0.4,-1.68 -0.6,-2.52c-0.42,-1.8 -0.86,-3.67 -1.36,-5.5c-0.53,-1.92 -1.13,-3.85 -1.71,-5.72c-0.29,-0.94 -0.58,-1.87 -0.87,-2.81c-0.18,-0.6 -0.35,-1.2 -0.53,-1.79c-0.31,-1.07 -0.63,-2.18 -0.99,-3.27c-0.41,-1.23 -0.87,-2.47 -1.31,-3.67c-0.29,-0.79 -0.58,-1.58 -0.86,-2.37c-0.26,-0.74 -0.51,-1.49 -0.76,-2.24c-0.29,-0.87 -0.59,-1.74 -0.9,-2.61c-0.55,-1.53 -1.13,-3.08 -1.69,-4.58l-0.51,-1.35l-0.53,-1.44c-0.58,-1.57 -1.19,-3.2 -1.82,-4.8c-0.27,-0.68 -0.65,-1.27 -1.03,-1.84l-0.13,-0.2c-0.38,-0.59 -1.18,-0.9 -1.77,-0.9c-0.03,0 -0.09,0 -0.13,0c-0.73,0.05 -1.25,0.53 -1.49,0.81c-0.32,0.37 -0.5,0.87 -0.49,1.39c0.01,0.53 0.01,1.07 0.01,1.6c0,1.36 0,2.78 0.16,4.2c0.16,1.49 0.48,2.96 0.79,4.38c0.11,0.49 0.21,0.99 0.32,1.48c0.14,0.67 0.3,1.34 0.45,1.99c0.08,0.34 0.16,0.68 0.24,1.03l0.13,0.58c0.32,1.41 0.65,2.82 0.96,4.22c0.09,0.38 0.16,0.77 0.24,1.16c0.11,0.55 0.23,1.1 0.36,1.64c0.15,0.63 0.31,1.26 0.48,1.88c0.14,0.56 0.29,1.11 0.42,1.67c0.3,1.23 0.58,2.45 0.87,3.68l0.26,1.11l0.25,1.06c0.22,0.94 0.45,1.89 0.65,2.83c0.22,1.04 0.42,2.1 0.61,3.14l0.14,0.77l0.22,1.17c0.23,1.19 0.46,2.42 0.66,3.61c0.16,0.95 0.28,1.92 0.39,2.87l0.13,1.03l0.16,1.25c0.16,1.19 0.32,2.42 0.45,3.62c0.08,0.72 0.13,1.45 0.19,2.17c0.07,0.95 0.15,1.93 0.27,2.91c0.14,1.09 0.31,2.18 0.48,3.24c0.14,0.85 0.27,1.7 0.39,2.56c0.24,1.74 0.46,3.48 0.69,5.21c0.38,2.91 0.77,5.92 1.21,8.89c0.49,3.26 1.03,6.21 1.67,9.01c0.44,1.92 1.07,3.98 1.99,6.5c0.96,2.63 2.05,5.6 3.41,8.45c2,4.21 4.14,8.46 6.21,12.57c0.65,1.3 1.3,2.59 1.95,3.89c0.54,1.08 0.85,1.77 0.57,2.32c-0.46,0.94 -1.06,1.77 -1.77,2.46c-1.42,1.38 -2.97,2.84 -4.76,4.1c-0.39,0.27 -0.88,0.42 -1.39,0.42c-0.69,0 -1.31,-0.28 -1.54,-0.69c-0.3,-0.53 -0.41,-1.2 -0.53,-1.91l-0.04,-0.25c-0.15,-0.89 -0.28,-1.82 -0.41,-2.71c-0.18,-1.3 -0.37,-2.64 -0.64,-3.97c-0.5,-2.5 -1.07,-4.78 -1.73,-6.95c-0.73,-2.42 -1.62,-4.99 -2.72,-7.87c-1.74,-4.56 -4.03,-9.24 -6.8,-13.9c-0.34,-0.57 -0.81,-1.06 -1.23,-1.46c-0.45,-0.43 -1.14,-0.58 -1.6,-0.58c-0.15,0 -0.3,0.02 -0.43,0.05c-0.76,0.17 -1.4,0.84 -1.53,1.59c-0.09,0.56 -0.04,1.11 0.15,1.6c0.2,0.53 0.4,1.06 0.6,1.59c0.58,1.55 1.19,3.16 1.92,4.74c1.45,3.13 2.37,6.09 2.8,9.06c0.1,0.72 0.23,1.44 0.35,2.16c0.23,1.34 0.45,2.61 0.55,3.89c0.13,1.82 0,3.72 -0.12,5.41c-0.05,0.74 -0.18,1.5 -0.32,2.29c-0.09,0.54 -0.19,1.11 -0.26,1.68c-0.08,0.64 -0.13,1.27 -0.19,1.88c-0.09,1.05 -0.17,2.03 -0.38,2.99c-0.58,2.71 -1.18,5.52 -2.1,8.18c-1.12,3.23 -2.46,6.4 -4.12,10.15c-1.94,4.39 -4.11,8.27 -6.62,11.87c-1.27,1.82 -2.79,3.96 -4.47,6.05c-0.24,0.3 -0.45,0.45 -0.63,0.45c-0.12,0 -0.45,-0.05 -1.06,-0.52l-0.03,-0.03c-0.51,-0.5 -1,-0.96 -1.49,-1.42c-1.06,-1 -2.15,-2.04 -3.12,-3.08l-0.12,-0.13c-1.87,-2 -3.8,-4.06 -4.93,-6.21c-1.14,-2.17 -2.12,-4.44 -2.94,-6.4c-0.88,-2.09 -1.59,-3.82 -2.09,-5.61c-0.41,-1.48 -0.62,-2.98 -0.84,-4.57l-0.12,-0.87c-0.24,-1.7 -0.41,-3.35 -0.6,-5.33c-0.11,-1.14 -0.15,-2 -0.14,-2.8c0.02,-1.13 0.07,-2.29 0.12,-3.4c0.02,-0.49 0.05,-0.99 0.06,-1.48c0.01,-0.22 0.01,-0.45 0,-0.67c-0.01,-0.35 -0.01,-0.65 0.05,-0.88c0.07,-0.28 0.15,-0.57 0.22,-0.85c0.36,-1.41 0.69,-2.74 1.23,-4.02c1.08,-2.56 2.2,-5.21 3.71,-7.75c3.93,-6.59 7.25,-11.88 10.45,-16.63c1.33,-1.98 3,-3.94 4.62,-5.85c0.75,-0.89 1.54,-1.81 2.28,-2.72c0.19,-0.23 0.38,-0.46 0.58,-0.69c0.55,-0.63 1.11,-1.29 1.54,-2.04c0.36,-0.62 0.42,-1.36 0.18,-2.08c-0.33,-0.99 -1.19,-1.87 -2.31,-2.35c-0.74,-0.32 -1.59,-0.49 -2.47,-0.49c-0.98,0 -1.9,0.21 -2.67,0.61c-1.06,0.55 -2.05,1.22 -2.84,1.92c-3.28,2.91 -6.41,6.1 -9.55,9.73c-3.37,3.9 -6.64,8.27 -10.3,13.75l-0.34,0.52c-0.62,0.93 -1.2,1.81 -1.93,2.62c-0.27,0.3 -0.66,0.47 -1.08,0.47c-0.45,0 -0.88,-0.2 -1.19,-0.54c-0.5,-0.57 -0.92,-1.22 -1.32,-1.84c-0.92,-1.43 -1.1,-2.71 -0.56,-4.01l0.55,-1.34c0.86,-2.11 1.74,-4.3 2.71,-6.41c1.4,-3.04 2.79,-6.01 4.4,-8.9c1.63,-2.94 3.44,-5.92 5.19,-8.79c0.53,-0.87 1.05,-1.73 1.57,-2.6c1.78,-2.96 3.64,-5.96 5.28,-8.61c0.35,-0.57 0.72,-1.13 1.09,-1.69c0.67,-1.02 1.37,-2.08 1.96,-3.18c0.35,-0.65 0.71,-1.3 1.07,-1.96c1.38,-2.5 2.81,-5.09 3.72,-7.8c0.44,-1.31 0.93,-2.65 1.41,-3.94c0.55,-1.48 1.11,-3.01 1.61,-4.54c0.59,-1.79 0.98,-3.6 1.36,-5.35l0.01,-0.05c0.49,-2.29 0.91,-4.59 1.22,-6.34c0.29,-1.63 0.54,-3.31 0.76,-5c0.24,-1.9 0.42,-3.6 0.55,-5.22c0.06,-0.78 0.07,-1.56 0.09,-2.31c0.01,-0.46 0.01,-0.93 0.03,-1.39c0.02,-0.59 0.06,-1.18 0.09,-1.77c0.04,-0.75 0.09,-1.5 0.11,-2.25c0.03,-0.81 0.03,-1.62 0.04,-2.44c0.01,-0.6 0.01,-1.2 0.03,-1.81c0.03,-1.24 0.07,-2.47 0.1,-3.71l0.05,-1.77l0.03,-1.26c0.02,-0.86 0.04,-1.72 0.08,-2.58c0.06,-1.45 0.12,-2.9 0.19,-4.35l0.05,-1.13c0.06,-1.28 0.12,-2.57 0.18,-3.85c0.03,-0.59 0.06,-1.17 0.1,-1.76c0.07,-1.28 0.15,-2.61 0.19,-3.93c0.03,-0.76 -0.21,-1.46 -0.38,-1.92c-0.22,-0.58 -0.69,-0.88 -0.97,-1.06c-0.04,-0.03 -0.08,-0.05 -0.12,-0.08c-0.27,-0.17 -0.59,-0.27 -0.91,-0.27l0,0z" class="st2"/>
   </g>
   <g id="svg_17">
    <g id="XMLID_00000047759596246139393920000014845328031696370305_">
     <g id="XMLID_00000029043038332268686280000003832106919869987484_">
      <path id="svg_18" fill="#FDB740" d="m253.46803,217.07496c-2.47,0 -5.01,-0.57 -7.16,-1.62c-2.35,-1.14 -4.12,-2.79 -4.98,-4.64c-0.96,-2.06 -0.76,-4.23 0.6,-6.26c0.11,-0.16 0.28,-0.27 0.47,-0.31c0.05,-0.01 0.09,-0.01 0.14,-0.01c0.14,0 0.29,0.04 0.41,0.13c0.02,0.02 2.45,1.66 5.02,3.04c-2.15,-1.92 -4,-3.95 -4.08,-4.04c-0.13,-0.15 -0.2,-0.35 -0.19,-0.55c0.02,-0.2 0.11,-0.38 0.27,-0.51c1.53,-1.24 3.19,-1.86 4.92,-1.86c2.09,0 4.22,0.9 6.33,2.67c1.57,1.32 2.99,3.05 4.12,5c1.23,2.16 1.9,4.26 2,6.26c0.01,0.26 -0.11,0.5 -0.33,0.64c-1.93,1.26 -4.47,1.99 -7.15,2.05l-0.39,0.01z" class="st3"/>
      <path id="svg_19" fill="#002C4C" d="m248.89803,201.17496c2.08,0 4.09,1.01 5.86,2.5c1.52,1.28 2.89,2.96 3.96,4.81c1.06,1.85 1.8,3.89 1.9,5.93c-1.86,1.22 -4.27,1.88 -6.77,1.93c-0.13,0 -0.25,0 -0.38,0c-2.38,0 -4.8,-0.56 -6.84,-1.54c-2.14,-1.04 -3.83,-2.56 -4.64,-4.29c-0.81,-1.73 -0.72,-3.66 0.54,-5.55c0,0 2.53,1.72 5.22,3.15c2.67,1.46 5.48,2.65 5.48,2.65s-2.42,-1.77 -4.61,-3.76c-2.22,-1.96 -4.19,-4.13 -4.19,-4.13c1.49,-1.2 2.99,-1.7 4.47,-1.7m0,-1.46c-1.9,0 -3.71,0.68 -5.38,2.02c-0.31,0.25 -0.51,0.62 -0.54,1.02c-0.02,0.32 0.06,0.64 0.23,0.91c-0.21,-0.11 -0.44,-0.17 -0.67,-0.17c-0.09,0 -0.19,0.01 -0.28,0.03c-0.38,0.07 -0.72,0.3 -0.93,0.62c-1.48,2.22 -1.71,4.69 -0.65,6.97c0.93,2 2.82,3.77 5.32,4.99c2.25,1.09 4.9,1.69 7.47,1.69c0.14,0 0.28,0 0.42,-0.01c2.81,-0.06 5.48,-0.83 7.53,-2.17c0.43,-0.28 0.68,-0.77 0.66,-1.29c-0.1,-2.11 -0.8,-4.33 -2.09,-6.58c-1.17,-2.03 -2.65,-3.83 -4.28,-5.2c-2.26,-1.87 -4.55,-2.83 -6.81,-2.83l0,0z" class="st2"/>
     </g>
    </g>
    <g id="XMLID_00000064314532843592992750000011404189563820089763_">
     <g id="XMLID_00000086650231436423865850000001164727468499860396_">
      <path id="svg_20" fill="#FDB740" d="m257.00803,195.20496c-1.78,0 -3.56,-0.28 -5.16,-0.81c-2.48,-0.83 -4.45,-2.23 -5.54,-3.96c-1.22,-1.92 -1.3,-4.09 -0.22,-6.28c0.09,-0.17 0.24,-0.31 0.42,-0.37c0.07,-0.02 0.15,-0.04 0.23,-0.04c0.11,0 0.22,0.03 0.33,0.08c0.03,0.01 2.64,1.33 5.37,2.36c-2.38,-1.62 -4.47,-3.39 -4.56,-3.47c-0.15,-0.13 -0.25,-0.32 -0.26,-0.52c-0.01,-0.2 0.06,-0.4 0.2,-0.54c1.61,-1.69 3.5,-2.55 5.59,-2.55c1.8,0 3.71,0.63 5.67,1.89c1.73,1.11 3.36,2.64 4.73,4.43c1.5,1.98 2.44,3.98 2.79,5.95c0.05,0.25 -0.05,0.51 -0.24,0.68c-1.75,1.5 -4.17,2.55 -6.82,2.96c-0.82,0.12 -1.67,0.19 -2.53,0.19c0,0 0,0 0,0z" class="st3"/>
      <path id="svg_21" fill="#002C4C" d="m253.41803,179.84496c1.79,0 3.6,0.7 5.28,1.77c1.68,1.07 3.25,2.56 4.55,4.26c1.29,1.7 2.29,3.62 2.65,5.63c-1.69,1.45 -3.99,2.41 -6.46,2.79c-0.8,0.12 -1.62,0.19 -2.43,0.19c-1.7,0 -3.4,-0.27 -4.93,-0.78c-2.26,-0.75 -4.13,-2.04 -5.15,-3.65c-1.03,-1.61 -1.19,-3.53 -0.18,-5.57c0,0 2.73,1.37 5.58,2.45c2.84,1.11 5.78,1.92 5.78,1.92s-2.63,-1.44 -5.06,-3.13c-2.45,-1.66 -4.69,-3.55 -4.69,-3.55c1.57,-1.66 3.31,-2.33 5.06,-2.33m0,-1.46c-2.3,0 -4.36,0.93 -6.12,2.77c-0.28,0.29 -0.42,0.68 -0.4,1.08c0.02,0.32 0.14,0.63 0.35,0.87c-0.16,-0.06 -0.33,-0.09 -0.5,-0.09c-0.16,0 -0.31,0.02 -0.46,0.08c-0.37,0.12 -0.67,0.39 -0.84,0.74c-1.18,2.39 -1.09,4.88 0.26,7c1.18,1.87 3.28,3.38 5.92,4.25c1.67,0.56 3.53,0.85 5.39,0.85c0.9,0 1.79,-0.07 2.65,-0.2c2.78,-0.42 5.33,-1.53 7.18,-3.12c0.39,-0.34 0.58,-0.85 0.48,-1.36c-0.37,-2.08 -1.36,-4.18 -2.93,-6.25c-1.42,-1.86 -3.12,-3.45 -4.92,-4.6c-2.08,-1.34 -4.12,-2.02 -6.06,-2.02l0,0z" class="st2"/>
     </g>
    </g>
    <g id="XMLID_00000097483847254664076800000016904268157186555797_">
     <g id="XMLID_00000033360948269234397720000008546448169830297987_">
      <path id="svg_22" fill="#FDB740" d="m252.12803,171.87496c-2.15,0 -4.03,-0.51 -5.46,-1.48c-1.89,-1.28 -2.82,-3.24 -2.7,-5.68c0.01,-0.19 0.1,-0.38 0.24,-0.5c0.13,-0.12 0.31,-0.19 0.49,-0.19c0.01,0 0.03,0 0.04,0c0.02,0 1.51,0.09 3.42,0.09c0.77,0 1.61,-0.01 2.45,-0.05c-2.83,-0.54 -5.45,-1.34 -5.57,-1.37c-0.19,-0.06 -0.35,-0.19 -0.44,-0.37c-0.09,-0.18 -0.1,-0.39 -0.03,-0.58c1.27,-3.45 3.98,-5.27 7.84,-5.27c0.71,0 1.46,0.06 2.23,0.19c2.02,0.33 4.13,1.08 6.1,2.18c2.16,1.22 3.82,2.68 4.93,4.35c0.14,0.21 0.16,0.49 0.05,0.72c-1.01,2.08 -2.82,4 -5.09,5.42c-2.19,1.38 -4.79,2.27 -7.31,2.49c-0.39,0.03 -0.79,0.05 -1.19,0.05l0,0z" class="st3"/>
      <path id="svg_23" fill="#002C4C" d="m252.41803,157.19496c0.69,0 1.4,0.06 2.11,0.18c1.96,0.32 4,1.06 5.86,2.1c1.86,1.05 3.54,2.41 4.67,4.11c-0.97,2 -2.7,3.8 -4.82,5.13c-2.11,1.34 -4.61,2.18 -6.99,2.38c-0.38,0.03 -0.76,0.05 -1.13,0.05c-1.94,0 -3.73,-0.46 -5.05,-1.36c-1.58,-1.07 -2.49,-2.77 -2.38,-5.04c0,0 1.51,0.09 3.46,0.09c0.82,0 1.73,-0.02 2.63,-0.06c3.05,-0.11 6.06,-0.53 6.06,-0.53s-2.98,-0.28 -5.89,-0.86c-2.91,-0.55 -5.72,-1.4 -5.72,-1.4c1.34,-3.53 4.09,-4.79 7.19,-4.79m0,-1.45c-4.13,0 -7.16,2.04 -8.52,5.74c-0.14,0.38 -0.12,0.79 0.06,1.15c0.14,0.29 0.38,0.52 0.66,0.66c-0.33,0.02 -0.64,0.15 -0.89,0.37c-0.29,0.26 -0.46,0.62 -0.48,1.01c-0.13,2.67 0.94,4.91 3.02,6.32c1.54,1.05 3.57,1.61 5.86,1.61c0.41,0 0.84,-0.02 1.26,-0.06c2.63,-0.23 5.35,-1.15 7.64,-2.6c2.38,-1.49 4.28,-3.52 5.35,-5.72c0.23,-0.46 0.19,-1.01 -0.1,-1.44c-1.17,-1.76 -2.91,-3.3 -5.17,-4.58c-2.05,-1.14 -4.24,-1.92 -6.34,-2.27c-0.81,-0.13 -1.6,-0.19 -2.35,-0.19l0,0z" class="st2"/>
     </g>
    </g>
    <g id="XMLID_00000046310143713353624880000011496935930737841027_">
     <g id="XMLID_00000173145176329783190570000004400271787133353372_">
      <path id="svg_24" fill="#FDB740" d="m254.26803,150.00496c-1.81,0 -3.45,-0.4 -4.72,-1.16c-1.96,-1.15 -3.02,-3.05 -3.05,-5.49c0,-0.19 0.07,-0.38 0.21,-0.52s0.32,-0.22 0.51,-0.22c0.03,0 2.95,-0.02 5.86,-0.34c-2.85,-0.36 -5.53,-0.99 -5.64,-1.01c-0.2,-0.05 -0.36,-0.17 -0.46,-0.34c-0.1,-0.17 -0.12,-0.38 -0.07,-0.57c1.13,-3.79 4,-5.79 8.31,-5.79c0.46,0 0.93,0.02 1.42,0.07c2.04,0.2 4.19,0.82 6.23,1.79c2.24,1.08 3.98,2.43 5.19,4.02c0.16,0.21 0.19,0.48 0.09,0.72c-0.87,2.14 -2.55,4.17 -4.73,5.74c-2.1,1.52 -4.63,2.57 -7.13,2.95c-0.69,0.09 -1.37,0.15 -2.02,0.15c0,0 0,0 0,0z" class="st3"/>
      <path id="svg_25" fill="#002C4C" d="m255.19803,135.28496c0.44,0 0.89,0.02 1.35,0.07c1.98,0.19 4.06,0.8 5.98,1.72c1.92,0.93 3.69,2.18 4.93,3.81c-0.84,2.06 -2.45,3.96 -4.48,5.42c-2.02,1.47 -4.46,2.47 -6.82,2.82c-0.64,0.1 -1.28,0.15 -1.9,0.15c-1.64,0 -3.16,-0.35 -4.35,-1.05c-1.65,-0.97 -2.67,-2.6 -2.7,-4.88c0,0 3.05,-0.02 6.08,-0.36c3.03,-0.31 6.02,-0.92 6.02,-0.92s-3,-0.09 -5.93,-0.48c-2.94,-0.36 -5.79,-1.03 -5.79,-1.03c1.17,-3.91 4.2,-5.27 7.61,-5.27m0,-1.45c-4.6,0 -7.8,2.24 -9.01,6.31c-0.11,0.38 -0.07,0.8 0.14,1.15c0.16,0.28 0.41,0.49 0.7,0.62c-0.33,0.04 -0.63,0.19 -0.86,0.43c-0.27,0.28 -0.42,0.65 -0.42,1.04c0.04,2.67 1.25,4.84 3.41,6.11c1.39,0.82 3.15,1.26 5.09,1.26c0.69,0 1.4,-0.06 2.12,-0.16c2.61,-0.4 5.26,-1.49 7.45,-3.09c2.28,-1.64 4.05,-3.79 4.97,-6.05c0.2,-0.48 0.12,-1.02 -0.19,-1.43c-1.28,-1.68 -3.12,-3.11 -5.45,-4.23c-2.12,-1.01 -4.35,-1.65 -6.48,-1.86c-0.49,-0.08 -0.99,-0.1 -1.47,-0.1l0,0z" class="st2"/>
     </g>
    </g>
    <g id="XMLID_00000025444638409503904900000009542481128338885267_">
     <g id="XMLID_00000003804306069396133230000018269347319441400974_">
      <path id="svg_26" fill="#FDB740" d="m253.58803,105.58496c-0.48,0 -0.97,-0.02 -1.43,-0.07c-2.6,-0.25 -4.83,-1.17 -6.29,-2.61c-1.62,-1.6 -2.19,-3.7 -1.63,-6.07c0.04,-0.19 0.16,-0.35 0.33,-0.45c0.12,-0.07 0.25,-0.11 0.38,-0.11c0.06,0 0.12,0.01 0.17,0.02c0.03,0.01 2.87,0.7 5.77,1.09c-2.68,-1.05 -5.12,-2.3 -5.23,-2.35c-0.18,-0.09 -0.31,-0.25 -0.37,-0.45c-0.06,-0.19 -0.03,-0.4 0.07,-0.57c1.53,-2.58 3.87,-3.95 6.75,-3.95c1.27,0 2.63,0.26 4.07,0.77c1.93,0.69 3.87,1.81 5.61,3.25c1.91,1.59 3.27,3.33 4.06,5.16c0.1,0.24 0.07,0.51 -0.08,0.72c-1.37,1.86 -3.49,3.43 -5.98,4.42c-1.95,0.79 -4.09,1.2 -6.2,1.2z" class="st3"/>
      <path id="svg_27" fill="#002C4C" d="m252.11803,90.80496c1.25,0 2.55,0.27 3.83,0.73c1.87,0.67 3.74,1.76 5.39,3.12c1.64,1.37 3.05,3.01 3.85,4.89c-1.32,1.79 -3.34,3.25 -5.66,4.17c-1.88,0.76 -3.95,1.15 -5.94,1.15c-0.46,0 -0.92,-0.02 -1.37,-0.06c-2.37,-0.22 -4.49,-1.06 -5.84,-2.4c-1.36,-1.34 -1.95,-3.17 -1.43,-5.39c0,0 2.97,0.72 5.99,1.13c3.02,0.44 6.06,0.57 6.06,0.57s-2.88,-0.82 -5.63,-1.91c-2.76,-1.06 -5.37,-2.41 -5.37,-2.41c1.54,-2.6 3.74,-3.59 6.12,-3.59m0,-1.46c-3.16,0 -5.71,1.49 -7.38,4.3c-0.2,0.34 -0.26,0.76 -0.15,1.14c0.09,0.31 0.28,0.58 0.53,0.77c-0.06,-0.01 -0.12,-0.01 -0.18,-0.01c-0.27,0 -0.53,0.07 -0.76,0.21c-0.33,0.2 -0.57,0.53 -0.66,0.91c-0.61,2.6 0.04,5 1.83,6.76c1.57,1.55 3.96,2.55 6.73,2.81c0.49,0.05 0.99,0.07 1.5,0.07c2.2,0 4.44,-0.43 6.48,-1.25c2.61,-1.04 4.85,-2.69 6.29,-4.66c0.31,-0.42 0.37,-0.96 0.17,-1.44c-0.83,-1.94 -2.27,-3.77 -4.26,-5.43c-1.81,-1.49 -3.82,-2.66 -5.83,-3.37c-1.51,-0.53 -2.96,-0.81 -4.31,-0.81l0,0z" class="st2"/>
     </g>
    </g>
    <g id="XMLID_00000083794790752886131420000013550011897629510842_">
     <g id="XMLID_00000025427194226071726820000012457167479220952752_">
      <path id="svg_28" fill="#FDB740" d="m273.05803,184.26496c-2.61,-0.04 -4.91,-0.78 -6.47,-2.1c-1.75,-1.46 -2.47,-3.51 -2.1,-5.92c0.03,-0.19 0.13,-0.36 0.29,-0.48c0.12,-0.09 0.28,-0.14 0.43,-0.14c0.04,0 0.08,0 0.12,0.01c0.03,0 2.92,0.47 5.83,0.63c-2.76,-0.83 -5.29,-1.89 -5.4,-1.93c-0.19,-0.08 -0.33,-0.23 -0.4,-0.42s-0.06,-0.4 0.03,-0.58c1.44,-2.94 3.93,-4.5 7.2,-4.5c1.04,0 2.17,0.16 3.34,0.47c1.98,0.54 4,1.5 5.85,2.79c2.03,1.43 3.53,3.06 4.46,4.83c0.12,0.23 0.11,0.5 -0.03,0.72c-1.22,1.96 -3.21,3.69 -5.61,4.88c-2.25,1.12 -4.84,1.73 -7.3,1.73l-0.24,0.01z" class="st3"/>
      <path id="svg_29" fill="#002C4C" d="m272.57803,169.57496c1.03,0 2.09,0.16 3.15,0.45c1.92,0.52 3.87,1.46 5.62,2.69c1.74,1.23 3.28,2.76 4.23,4.57c-1.17,1.89 -3.07,3.5 -5.32,4.61c-2.17,1.08 -4.66,1.66 -6.98,1.66c-0.07,0 -0.14,0 -0.21,0c-2.38,-0.03 -4.56,-0.7 -6.02,-1.93c-1.46,-1.23 -2.2,-3.01 -1.85,-5.26c0,0 3.01,0.49 6.06,0.65c1.46,0.09 2.91,0.12 4.04,0.12c1.22,0 2.05,-0.03 2.05,-0.03s-2.94,-0.58 -5.77,-1.46c-2.84,-0.84 -5.54,-1.97 -5.54,-1.97c1.46,-2.99 3.87,-4.1 6.54,-4.1m0,-1.46c-3.56,0 -6.28,1.7 -7.85,4.91c-0.18,0.36 -0.2,0.78 -0.06,1.15c0.11,0.3 0.32,0.56 0.59,0.72c-0.02,0 -0.04,0 -0.07,0c-0.31,0 -0.61,0.1 -0.86,0.28c-0.31,0.23 -0.52,0.57 -0.58,0.96c-0.41,2.64 0.43,4.98 2.36,6.59c1.69,1.42 4.15,2.23 6.93,2.27l0.23,0c2.57,0 5.28,-0.64 7.63,-1.81c2.52,-1.24 4.62,-3.07 5.91,-5.14c0.27,-0.44 0.29,-0.99 0.05,-1.44c-0.98,-1.87 -2.56,-3.58 -4.68,-5.08c-1.92,-1.35 -4.02,-2.35 -6.08,-2.9c-1.23,-0.34 -2.42,-0.51 -3.52,-0.51l0,0z" class="st2"/>
     </g>
    </g>
    <g id="XMLID_00000134938180594435031530000001051574751706586033_">
     <g id="XMLID_00000091012717625373400170000010153058410606690495_">
      <path id="svg_30" fill="#FDB740" d="m279.17803,161.33496c-2.51,0 -4.75,-0.68 -6.3,-1.9c-1.79,-1.41 -2.58,-3.43 -2.29,-5.85c0.02,-0.19 0.12,-0.37 0.28,-0.49c0.13,-0.1 0.29,-0.15 0.45,-0.15c0.03,0 0.06,0 0.09,0.01c0.03,0 2.93,0.38 5.85,0.45c-2.78,-0.74 -5.34,-1.72 -5.45,-1.76c-0.19,-0.07 -0.34,-0.22 -0.41,-0.4c-0.08,-0.19 -0.07,-0.39 0.01,-0.58c1.4,-3.09 3.95,-4.73 7.38,-4.73c0.95,0 1.97,0.13 3.02,0.37c1.99,0.47 4.04,1.37 5.93,2.61c2.07,1.37 3.62,2.95 4.6,4.69c0.13,0.22 0.13,0.5 0,0.72c-1.15,2 -3.09,3.79 -5.46,5.05c-2.28,1.23 -4.94,1.92 -7.47,1.96l-0.23,0z" class="st3"/>
      <path id="svg_31" fill="#002C4C" d="m278.77803,146.65496c0.93,0 1.89,0.13 2.86,0.36c1.94,0.46 3.92,1.34 5.7,2.51c1.78,1.18 3.36,2.66 4.37,4.44c-1.11,1.92 -2.96,3.6 -5.17,4.77c-2.2,1.18 -4.76,1.84 -7.14,1.88c-0.07,0 -0.15,0 -0.22,0c-2.3,0 -4.4,-0.6 -5.85,-1.74c-1.5,-1.18 -2.29,-2.94 -2.01,-5.2c0,0 3.03,0.39 6.08,0.46c0.62,0.02 1.24,0.03 1.83,0.03c2.33,0 4.26,-0.13 4.26,-0.13s-2.96,-0.49 -5.81,-1.28c-2.86,-0.75 -5.6,-1.8 -5.6,-1.8c1.4,-3.15 3.91,-4.3 6.7,-4.3m0,-1.46c-3.74,0 -6.52,1.78 -8.05,5.15c-0.17,0.37 -0.17,0.78 -0.02,1.15c0.12,0.3 0.34,0.55 0.62,0.71c-0.01,0 -0.01,0 -0.02,0c-0.32,0 -0.64,0.11 -0.89,0.31c-0.31,0.24 -0.51,0.59 -0.55,0.97c-0.32,2.65 0.59,4.96 2.56,6.52c1.67,1.32 4.07,2.06 6.75,2.06l0.25,0c2.64,-0.04 5.41,-0.77 7.8,-2.05c2.48,-1.32 4.52,-3.21 5.74,-5.32c0.26,-0.45 0.26,-1 0.01,-1.45c-1.04,-1.84 -2.67,-3.5 -4.83,-4.93c-1.96,-1.28 -4.09,-2.22 -6.17,-2.71c-1.12,-0.27 -2.19,-0.41 -3.2,-0.41l0,0z" class="st2"/>
     </g>
    </g>
    <g id="XMLID_00000108997219351635237600000012850452249999848882_">
     <g id="XMLID_00000062907510675419508980000018183180725302636986_">
      <path id="svg_32" fill="#FDB740" d="m278.78803,137.99496c-1.92,0 -3.64,-0.44 -4.97,-1.26c-1.94,-1.2 -2.95,-3.12 -2.93,-5.56c0,-0.19 0.08,-0.38 0.22,-0.51c0.14,-0.13 0.32,-0.21 0.51,-0.21c0,0 0.54,0 0.54,0c0.87,0 3.11,-0.02 5.33,-0.22c-2.85,-0.42 -5.51,-1.11 -5.62,-1.14c-0.19,-0.05 -0.36,-0.18 -0.46,-0.35c-0.1,-0.18 -0.12,-0.38 -0.06,-0.57c1.18,-3.67 4,-5.61 8.14,-5.61c0.55,0 1.12,0.03 1.7,0.1c2.04,0.24 4.18,0.91 6.19,1.92c2.21,1.13 3.93,2.52 5.1,4.13c0.15,0.21 0.18,0.48 0.08,0.72c-0.92,2.12 -2.64,4.12 -4.85,5.63c-2.13,1.48 -4.69,2.47 -7.2,2.8c-0.57,0.1 -1.15,0.13 -1.72,0.13c0,0 0,0 0,0z" class="st3"/>
      <path id="svg_33" fill="#002C4C" d="m279.49803,123.30496c0.53,0 1.07,0.03 1.62,0.1c1.98,0.24 4.04,0.89 5.95,1.85c1.9,0.97 3.64,2.26 4.84,3.91c-0.89,2.04 -2.54,3.91 -4.6,5.33c-2.06,1.43 -4.52,2.37 -6.88,2.68c-0.56,0.07 -1.11,0.11 -1.64,0.11c-1.74,0 -3.35,-0.38 -4.59,-1.15c-1.63,-1 -2.61,-2.66 -2.59,-4.93c0,0 0.2,0 0.54,0c1.01,0 3.28,-0.03 5.55,-0.23c3.04,-0.24 6.04,-0.79 6.04,-0.79s-2.99,-0.15 -5.92,-0.61c-2.93,-0.42 -5.77,-1.15 -5.77,-1.15c1.21,-3.8 4.15,-5.12 7.45,-5.12m0,-1.46c-4.43,0 -7.57,2.17 -8.84,6.11c-0.12,0.38 -0.08,0.8 0.11,1.15c0.16,0.28 0.4,0.5 0.69,0.63c-0.33,0.03 -0.63,0.18 -0.87,0.41c-0.28,0.27 -0.44,0.64 -0.44,1.03c-0.02,2.67 1.14,4.86 3.28,6.18c1.44,0.89 3.29,1.37 5.35,1.37c0.6,0 1.22,-0.04 1.83,-0.12c2.62,-0.34 5.29,-1.38 7.52,-2.92c2.31,-1.59 4.13,-3.7 5.1,-5.94c0.21,-0.47 0.15,-1.02 -0.16,-1.44c-1.24,-1.71 -3.05,-3.17 -5.36,-4.35c-2.09,-1.05 -4.32,-1.74 -6.43,-2c-0.6,-0.07 -1.21,-0.11 -1.78,-0.11l0,0z" class="st2"/>
     </g>
    </g>
    <g id="XMLID_00000174564623189636326400000010485778554332674738_">
     <g id="XMLID_00000004534011561129412500000013165313659061009544_">
      <path id="svg_34" fill="#FDB740" d="m254.36803,127.05496c-1.92,0 -3.64,-0.44 -4.97,-1.26c-1.94,-1.2 -2.95,-3.12 -2.93,-5.56c0,-0.19 0.08,-0.38 0.22,-0.51c0.14,-0.13 0.32,-0.21 0.51,-0.21c0,0 0.54,0 0.54,0c0.87,0 3.11,-0.02 5.33,-0.22c-2.85,-0.42 -5.51,-1.11 -5.62,-1.14c-0.19,-0.05 -0.36,-0.18 -0.46,-0.35c-0.1,-0.18 -0.12,-0.38 -0.06,-0.57c1.18,-3.67 4,-5.61 8.14,-5.61c0.55,0 1.12,0.03 1.7,0.1c2.04,0.24 4.17,0.91 6.19,1.92c2.21,1.13 3.93,2.52 5.1,4.13c0.15,0.21 0.18,0.48 0.08,0.72c-0.92,2.12 -2.64,4.12 -4.85,5.63c-2.13,1.48 -4.69,2.47 -7.2,2.8c-0.57,0.09 -1.15,0.13 -1.72,0.13z" class="st3"/>
      <path id="svg_35" fill="#002C4C" d="m255.07803,112.35496c0.53,0 1.07,0.03 1.62,0.1c1.98,0.24 4.04,0.89 5.95,1.85c1.9,0.97 3.64,2.26 4.84,3.91c-0.89,2.04 -2.54,3.91 -4.6,5.33c-2.06,1.43 -4.52,2.37 -6.88,2.68c-0.56,0.07 -1.11,0.11 -1.64,0.11c-1.74,0 -3.35,-0.38 -4.59,-1.15c-1.63,-1 -2.61,-2.66 -2.59,-4.93c0,0 0.2,0 0.54,0c1.01,0 3.28,-0.03 5.55,-0.23c3.04,-0.24 6.04,-0.79 6.04,-0.79s-2.99,-0.15 -5.92,-0.61c-2.93,-0.42 -5.77,-1.15 -5.77,-1.15c1.21,-3.79 4.15,-5.12 7.45,-5.12m0,-1.45c-4.43,0 -7.57,2.17 -8.84,6.11c-0.12,0.38 -0.08,0.8 0.11,1.15c0.16,0.28 0.4,0.5 0.69,0.63c-0.33,0.03 -0.63,0.18 -0.87,0.41c-0.28,0.27 -0.44,0.64 -0.44,1.03c-0.02,2.67 1.14,4.86 3.28,6.18c1.44,0.89 3.29,1.37 5.35,1.37c0.6,0 1.22,-0.04 1.83,-0.12c2.62,-0.34 5.29,-1.38 7.52,-2.92c2.31,-1.59 4.13,-3.7 5.1,-5.94c0.21,-0.47 0.15,-1.02 -0.16,-1.44c-1.24,-1.71 -3.05,-3.17 -5.36,-4.35c-2.09,-1.05 -4.32,-1.74 -6.43,-2c-0.6,-0.08 -1.21,-0.11 -1.78,-0.11l0,0z" class="st2"/>
     </g>
    </g>
    <g id="XMLID_00000034774022165491943190000011147978911179487911_">
     <g id="XMLID_00000011020619759957687110000003751630582692112531_">
      <path id="svg_36" fill="#FDB740" d="m275.00803,113.38496c-1.23,0 -2.34,-0.21 -3.32,-0.62c-2.1,-0.88 -3.4,-2.63 -3.76,-5.04c-0.03,-0.19 0.02,-0.39 0.14,-0.54s0.29,-0.26 0.48,-0.28c0.03,0 2.93,-0.41 5.77,-1.12l-0.3,0c-2.78,0 -5.33,-0.25 -5.43,-0.26c-0.2,-0.02 -0.38,-0.12 -0.5,-0.28c-0.12,-0.16 -0.17,-0.36 -0.14,-0.56c0.68,-4.3 3.83,-6.77 8.88,-6.96c0.19,-0.01 0.38,-0.01 0.57,-0.01c1.88,0 3.9,0.33 5.84,0.95c2.36,0.77 4.27,1.88 5.68,3.3c0.18,0.18 0.25,0.45 0.19,0.7c-0.58,2.23 -1.98,4.48 -3.93,6.32c-1.88,1.79 -4.25,3.16 -6.68,3.87c-1.19,0.35 -2.36,0.53 -3.49,0.53l0,0z" class="st3"/>
      <path id="svg_37" fill="#002C4C" d="m277.39803,98.44496c1.83,0 3.77,0.32 5.61,0.92c2.03,0.66 3.94,1.67 5.39,3.12c-0.56,2.15 -1.9,4.25 -3.72,5.97c-1.81,1.73 -4.1,3.04 -6.38,3.7c-1.12,0.33 -2.23,0.5 -3.28,0.5c-1.1,0 -2.14,-0.18 -3.03,-0.57c-1.76,-0.74 -2.99,-2.23 -3.32,-4.48c0,0 3.02,-0.42 5.98,-1.17c2.96,-0.71 5.84,-1.71 5.84,-1.71s-2.98,0.31 -5.94,0.31c-0.17,0 -0.34,0 -0.51,0c-2.78,0 -5.37,-0.25 -5.37,-0.25c0.72,-4.55 4.24,-6.19 8.19,-6.34c0.17,0 0.36,0 0.54,0m0,-1.46c-0.2,0 -0.4,0 -0.6,0.01c-5.44,0.2 -8.84,2.89 -9.57,7.57c-0.06,0.4 0.04,0.8 0.29,1.12c0.2,0.26 0.47,0.44 0.78,0.52c-0.32,0.08 -0.6,0.27 -0.8,0.54c-0.23,0.31 -0.33,0.7 -0.27,1.08c0.39,2.64 1.88,4.63 4.19,5.6c1.06,0.45 2.27,0.68 3.6,0.68c1.19,0 2.44,-0.19 3.69,-0.55c2.54,-0.74 5.02,-2.18 6.98,-4.05c2.04,-1.93 3.51,-4.29 4.13,-6.66c0.13,-0.5 -0.01,-1.03 -0.38,-1.4c-1.49,-1.5 -3.5,-2.67 -5.97,-3.47c-2.02,-0.64 -4.11,-0.99 -6.07,-0.99l0,0z" class="st2"/>
     </g>
    </g>
    <g id="XMLID_00000092440590015974054130000013420003832959742864_">
     <g id="XMLID_00000108991563556682658370000014898420884953299624_">
      <path id="svg_38" fill="#FDB740" d="m265.45803,90.30496c-0.57,0 -1.12,-0.06 -1.63,-0.17c-2.23,-0.48 -3.82,-1.96 -4.62,-4.26c-0.06,-0.18 -0.05,-0.38 0.04,-0.56c0.09,-0.17 0.24,-0.31 0.42,-0.37c0.03,-0.01 2.8,-0.94 5.46,-2.15c-2.83,0.55 -5.56,0.79 -5.68,0.8c-0.02,0 -0.04,0 -0.06,0c-0.18,0 -0.35,-0.06 -0.48,-0.18c-0.15,-0.13 -0.24,-0.32 -0.24,-0.52c-0.12,-4.35 2.52,-7.35 7.45,-8.47c1.22,-0.27 2.54,-0.41 3.9,-0.41c0.85,0 1.72,0.06 2.57,0.17c2.46,0.33 4.54,1.07 6.19,2.2c0.21,0.15 0.33,0.39 0.31,0.65c-0.16,2.3 -1.12,4.76 -2.7,6.93c-1.52,2.1 -3.6,3.89 -5.85,5.03c-1.71,0.85 -3.46,1.31 -5.08,1.31l0,0z" class="st3"/>
      <path id="svg_39" fill="#002C4C" d="m270.01803,74.73496c0.82,0 1.66,0.05 2.48,0.16c2.11,0.28 4.18,0.92 5.87,2.08c-0.16,2.22 -1.09,4.53 -2.56,6.55c-1.46,2.03 -3.47,3.74 -5.6,4.81c-1.59,0.81 -3.24,1.24 -4.75,1.24c-0.51,0 -1.01,-0.05 -1.48,-0.15c-1.87,-0.41 -3.35,-1.64 -4.08,-3.79c0,0 2.89,-0.97 5.66,-2.24c2.78,-1.24 5.43,-2.75 5.43,-2.75s-2.87,0.85 -5.78,1.39c-2.9,0.58 -5.82,0.83 -5.82,0.83c-0.13,-4.6 3.03,-6.87 6.89,-7.74c1.18,-0.26 2.45,-0.39 3.74,-0.39m0,-1.46c-1.42,0 -2.78,0.15 -4.06,0.43c-5.31,1.2 -8.15,4.47 -8.02,9.2c0.01,0.4 0.19,0.78 0.49,1.05c0.24,0.21 0.54,0.34 0.86,0.36c-0.3,0.14 -0.54,0.38 -0.69,0.67c-0.17,0.35 -0.2,0.75 -0.07,1.12c0.87,2.52 2.7,4.21 5.15,4.74c0.56,0.12 1.16,0.19 1.78,0.19c1.73,0 3.6,-0.48 5.41,-1.4c2.36,-1.19 4.53,-3.06 6.12,-5.26c1.65,-2.27 2.66,-4.86 2.83,-7.3c0.04,-0.51 -0.2,-1.01 -0.63,-1.3c-1.74,-1.2 -3.93,-1.98 -6.5,-2.32c-0.89,-0.12 -1.79,-0.18 -2.67,-0.18l0,0z" class="st2"/>
     </g>
    </g>
    <g id="XMLID_00000005261578968635251620000016589484766378079116_">
     <g id="XMLID_00000008847576047669835550000005673598265867079810_">
      <path id="svg_40" fill="#FDB740" d="m247.85803,83.86496c-1.87,0 -3.55,-0.84 -4.87,-2.43c-0.12,-0.15 -0.18,-0.34 -0.16,-0.53c0.02,-0.19 0.11,-0.37 0.26,-0.49c0.02,-0.02 2.29,-1.87 4.35,-3.94c-2.45,1.51 -4.92,2.7 -5.03,2.75c-0.1,0.05 -0.21,0.07 -0.31,0.07c-0.09,0 -0.18,-0.02 -0.26,-0.05c-0.19,-0.07 -0.34,-0.22 -0.41,-0.4c-1.65,-4.02 -0.23,-7.77 3.99,-10.55c1.71,-1.13 3.78,-2 5.97,-2.52c1.3,-0.3 2.55,-0.46 3.73,-0.46c1,0 1.95,0.11 2.84,0.33c0.25,0.06 0.45,0.25 0.52,0.5c0.66,2.21 0.63,4.85 -0.08,7.44c-0.68,2.5 -1.99,4.91 -3.7,6.78c-1.76,1.93 -3.85,3.15 -5.87,3.45c-0.34,0.03 -0.66,0.05 -0.97,0.05c0,0 0,0 0,0z" class="st3"/>
      <path id="svg_41" fill="#002C4C" d="m255.09803,66.03496c0.91,0 1.8,0.09 2.66,0.31c0.63,2.13 0.58,4.62 -0.09,7.04c-0.65,2.41 -1.93,4.72 -3.54,6.48c-1.61,1.76 -3.55,2.94 -5.44,3.22c-0.28,0.04 -0.57,0.06 -0.85,0.06c-1.58,0 -3.08,-0.68 -4.31,-2.17c0,0 2.37,-1.93 4.51,-4.1c2.17,-2.14 4.11,-4.49 4.11,-4.49s-2.39,1.81 -4.92,3.34c-2.51,1.57 -5.16,2.84 -5.16,2.84c-1.74,-4.26 0.41,-7.49 3.71,-9.67c1.66,-1.09 3.66,-1.92 5.74,-2.42c1.2,-0.27 2.4,-0.44 3.58,-0.44m0,-1.45c-1.23,0 -2.54,0.16 -3.89,0.47c-2.28,0.54 -4.42,1.45 -6.21,2.62c-4.54,2.99 -6.05,7.05 -4.26,11.44c0.15,0.37 0.45,0.66 0.82,0.81c0.17,0.06 0.35,0.1 0.52,0.1c0.14,0 0.28,-0.02 0.41,-0.06c-0.23,0.24 -0.37,0.54 -0.4,0.87c-0.04,0.39 0.08,0.77 0.33,1.07c1.46,1.76 3.34,2.7 5.43,2.7c0.35,0 0.71,-0.03 1.06,-0.08c2.18,-0.32 4.42,-1.62 6.3,-3.67c1.79,-1.95 3.16,-4.46 3.87,-7.08c0.75,-2.71 0.77,-5.49 0.08,-7.83c-0.15,-0.49 -0.55,-0.87 -1.05,-1c-0.94,-0.24 -1.95,-0.36 -3.01,-0.36l0,0z" class="st2"/>
     </g>
    </g>
    <g id="XMLID_00000057850035407795304450000011318201908653700793_">
     <g id="XMLID_00000061437115146081413670000011285263004270269320_">
      <path id="svg_42" fill="#FDB740" d="m209.18803,129.23496c-1.87,0 -3.55,-0.84 -4.87,-2.43c-0.12,-0.15 -0.18,-0.34 -0.16,-0.53c0.02,-0.19 0.11,-0.37 0.26,-0.49c0.02,-0.02 2.29,-1.87 4.35,-3.94c-2.45,1.51 -4.92,2.7 -5.03,2.75c-0.1,0.05 -0.21,0.07 -0.32,0.07c-0.09,0 -0.18,-0.02 -0.26,-0.05c-0.19,-0.07 -0.34,-0.22 -0.41,-0.4c-1.65,-4.02 -0.23,-7.77 3.99,-10.55c1.71,-1.13 3.78,-2 5.97,-2.52c1.3,-0.3 2.55,-0.46 3.73,-0.46c1,0 1.95,0.11 2.84,0.33c0.25,0.06 0.45,0.25 0.52,0.5c0.66,2.21 0.63,4.85 -0.08,7.44c-0.68,2.5 -1.99,4.91 -3.7,6.78c-1.76,1.93 -3.85,3.15 -5.87,3.45c-0.33,0.02 -0.65,0.05 -0.96,0.05l0,0z" class="st3"/>
      <path id="svg_43" fill="#002C4C" d="m216.42803,111.40496c0.91,0 1.8,0.09 2.66,0.31c0.63,2.13 0.58,4.62 -0.09,7.04c-0.65,2.41 -1.93,4.72 -3.54,6.48c-1.61,1.76 -3.55,2.94 -5.44,3.22c-0.28,0.04 -0.57,0.06 -0.85,0.06c-1.58,0 -3.08,-0.68 -4.31,-2.17c0,0 2.37,-1.93 4.51,-4.1c2.17,-2.14 4.11,-4.49 4.11,-4.49s-2.39,1.81 -4.92,3.34c-2.51,1.57 -5.16,2.84 -5.16,2.84c-1.74,-4.26 0.41,-7.49 3.71,-9.67c1.66,-1.09 3.66,-1.92 5.74,-2.42c1.19,-0.28 2.4,-0.44 3.58,-0.44m0,-1.45c-1.23,0 -2.54,0.16 -3.89,0.47c-2.28,0.54 -4.42,1.45 -6.21,2.62c-4.54,2.99 -6.05,7.05 -4.26,11.44c0.15,0.37 0.45,0.66 0.82,0.81c0.17,0.06 0.35,0.1 0.52,0.1c0.14,0 0.28,-0.02 0.41,-0.06c-0.23,0.24 -0.37,0.54 -0.4,0.87c-0.04,0.39 0.08,0.77 0.33,1.07c1.46,1.76 3.34,2.7 5.43,2.7c0.35,0 0.71,-0.03 1.06,-0.08c2.18,-0.32 4.42,-1.62 6.3,-3.67c1.79,-1.95 3.16,-4.46 3.87,-7.08c0.75,-2.71 0.77,-5.49 0.08,-7.83c-0.15,-0.49 -0.55,-0.87 -1.05,-1c-0.94,-0.25 -1.95,-0.36 -3.01,-0.36l0,0z" class="st2"/>
     </g>
    </g>
    <g id="XMLID_00000046316902753459307480000012886337863477505183_">
     <g id="XMLID_00000125602768398256113500000013107588270693111719_">
      <path id="svg_44" fill="#FDB740" d="m197.85803,57.60496c-0.29,0 -0.58,-0.02 -0.88,-0.06c-2.02,-0.27 -4.12,-1.47 -5.91,-3.37c-1.73,-1.85 -3.08,-4.24 -3.79,-6.73c-0.74,-2.57 -0.8,-5.21 -0.17,-7.43c0.07,-0.25 0.27,-0.44 0.52,-0.5c0.93,-0.24 1.94,-0.36 3,-0.36c1.13,0 2.33,0.14 3.56,0.41c2.2,0.49 4.28,1.34 6,2.44c4.25,2.73 5.71,6.46 4.12,10.5c-0.07,0.19 -0.22,0.33 -0.41,0.41c-0.09,0.03 -0.18,0.05 -0.27,0.05c-0.1,0 -0.21,-0.02 -0.31,-0.07c-0.11,-0.05 -2.59,-1.21 -5.06,-2.69c2.09,2.05 4.37,3.87 4.4,3.89c0.15,0.12 0.25,0.3 0.27,0.49c0.02,0.19 -0.04,0.39 -0.16,0.54c-1.3,1.61 -3,2.48 -4.91,2.48z" class="st3"/>
      <path id="svg_45" fill="#002C4C" d="m190.63803,39.86496c1.13,0 2.28,0.15 3.41,0.39c2.08,0.47 4.09,1.27 5.77,2.35c3.33,2.14 5.52,5.34 3.83,9.62c0,0 -2.66,-1.24 -5.19,-2.77c-2.55,-1.5 -4.96,-3.28 -4.96,-3.28s1.97,2.33 4.16,4.44c2.17,2.14 4.56,4.04 4.56,4.04c-1.23,1.52 -2.75,2.22 -4.35,2.22c-0.26,0 -0.52,-0.02 -0.78,-0.05c-1.89,-0.25 -3.85,-1.41 -5.48,-3.15c-1.63,-1.74 -2.93,-4.03 -3.62,-6.43c-0.69,-2.4 -0.78,-4.9 -0.17,-7.03c0.91,-0.25 1.86,-0.35 2.82,-0.35m0,-1.46c0,0 0,0 0,0c-1.12,0 -2.19,0.13 -3.18,0.39c-0.5,0.13 -0.89,0.51 -1.03,1.01c-0.67,2.35 -0.61,5.13 0.17,7.84c0.74,2.6 2.14,5.1 3.95,7.03c1.9,2.03 4.15,3.31 6.35,3.6c0.32,0.04 0.65,0.07 0.97,0.07c2.13,0 4.02,-0.96 5.48,-2.76c0.24,-0.3 0.36,-0.69 0.31,-1.07c-0.04,-0.33 -0.18,-0.64 -0.42,-0.87c0.13,0.04 0.26,0.05 0.4,0.05c0.18,0 0.37,-0.03 0.54,-0.1c0.37,-0.15 0.67,-0.44 0.81,-0.82c1.74,-4.4 0.18,-8.45 -4.4,-11.38c-1.8,-1.15 -3.95,-2.03 -6.23,-2.54c-1.29,-0.31 -2.54,-0.45 -3.72,-0.45l0,0z" class="st2"/>
     </g>
    </g>
    <g id="XMLID_00000075874506101165076050000008409971426396817033_">
     <g id="XMLID_00000088848077622715089470000010610622041743393184_">
      <path id="svg_46" fill="#FDB740" d="m240.14803,63.19496c-1.02,0 -2.07,-0.27 -3.1,-0.79c-0.17,-0.09 -0.3,-0.24 -0.36,-0.43s-0.04,-0.39 0.05,-0.56c0.01,-0.03 1.36,-2.62 2.43,-5.34c-1.65,2.36 -3.45,4.43 -3.53,4.52c-0.13,0.15 -0.32,0.24 -0.52,0.25c-0.01,0 -0.02,0 -0.03,0c-0.19,0 -0.37,-0.07 -0.51,-0.21c-3.11,-3.04 -3.29,-7.04 -0.52,-11.27c1.13,-1.71 2.68,-3.33 4.48,-4.68c2,-1.47 4.01,-2.39 5.98,-2.72c0.04,-0.01 0.08,-0.01 0.12,-0.01c0.21,0 0.42,0.09 0.56,0.26c1.48,1.77 2.5,4.21 2.87,6.86c0.37,2.56 0.12,5.3 -0.71,7.69c-0.85,2.47 -2.28,4.42 -4.02,5.49c-1,0.63 -2.07,0.94 -3.19,0.94l0,0z" class="st3"/>
      <path id="svg_47" fill="#002C4C" d="m244.63803,42.69496c1.43,1.7 2.36,4.02 2.71,6.49c0.36,2.48 0.1,5.1 -0.68,7.35c-0.78,2.25 -2.09,4.11 -3.72,5.11c-0.86,0.53 -1.81,0.82 -2.81,0.82c-0.89,0 -1.81,-0.23 -2.76,-0.71c0,0 1.41,-2.71 2.52,-5.55c1.14,-2.83 1.99,-5.75 1.99,-5.75s-1.48,2.61 -3.19,5.02c-1.69,2.43 -3.61,4.65 -3.61,4.65c-3.29,-3.22 -2.59,-7.04 -0.42,-10.35c1.09,-1.66 2.6,-3.22 4.31,-4.49c1.71,-1.27 3.65,-2.25 5.66,-2.59m0,-1.45c-0.08,0 -0.16,0.01 -0.24,0.02c-2.09,0.35 -4.2,1.31 -6.29,2.85c-1.88,1.4 -3.49,3.08 -4.66,4.86c-2.98,4.55 -2.76,8.88 0.62,12.19c0.27,0.27 0.64,0.42 1.02,0.42c0.02,0 0.04,0 0.06,0c0.32,-0.01 0.63,-0.13 0.87,-0.34c-0.12,0.31 -0.13,0.65 -0.03,0.96c0.12,0.37 0.38,0.68 0.73,0.85c1.13,0.58 2.29,0.87 3.42,0.87c1.26,0 2.46,-0.35 3.57,-1.04c1.88,-1.16 3.42,-3.24 4.33,-5.87c0.87,-2.5 1.13,-5.35 0.75,-8.03c-0.39,-2.78 -1.47,-5.35 -3.03,-7.22c-0.28,-0.33 -0.69,-0.52 -1.12,-0.52l0,0z" class="st2"/>
     </g>
    </g>
    <g id="XMLID_00000113335738252767549790000018146801634996342711_">
     <g id="XMLID_00000098199478571514728810000017521037991002794120_">
      <path id="svg_48" fill="#FDB740" d="m181.27803,87.54496c-1.31,0 -2.59,-0.44 -3.81,-1.3c-0.16,-0.11 -0.26,-0.28 -0.3,-0.48s0.02,-0.39 0.13,-0.54c0.02,-0.02 1.73,-2.39 3.19,-4.92c-1.98,2.09 -4.07,3.87 -4.16,3.95c-0.13,0.11 -0.3,0.17 -0.47,0.17c-0.03,0 -0.05,0 -0.08,0c-0.2,-0.02 -0.38,-0.12 -0.5,-0.28c-2.62,-3.47 -2.22,-7.45 1.15,-11.22c1.37,-1.53 3.14,-2.9 5.13,-3.96c2.19,-1.16 4.32,-1.77 6.31,-1.81c0,0 0.01,0 0.01,0c0.25,0 0.49,0.13 0.62,0.35c1.2,1.97 1.85,4.53 1.83,7.21c-0.01,2.59 -0.67,5.26 -1.84,7.5c-1.21,2.31 -2.91,4.03 -4.79,4.83c-0.79,0.33 -1.6,0.5 -2.42,0.5l0,0z" class="st3"/>
      <path id="svg_49" fill="#002C4C" d="m187.88803,67.86496c1.16,1.9 1.74,4.32 1.72,6.82c-0.01,2.5 -0.65,5.06 -1.76,7.17c-1.1,2.11 -2.68,3.75 -4.43,4.5c-0.69,0.3 -1.41,0.46 -2.14,0.46c-1.12,0 -2.26,-0.37 -3.38,-1.17c0,0 1.79,-2.47 3.31,-5.12c1.55,-2.63 2.82,-5.39 2.82,-5.39s-1.85,2.36 -3.9,4.49c-2.03,2.16 -4.26,4.06 -4.26,4.06c-2.78,-3.67 -1.52,-7.35 1.11,-10.3c1.33,-1.48 3.05,-2.8 4.93,-3.81c1.88,-0.99 3.94,-1.67 5.98,-1.71m0,-1.45c-0.01,0 -0.02,0 -0.03,0c-2.11,0.04 -4.35,0.67 -6.64,1.89c-2.07,1.11 -3.91,2.53 -5.33,4.12c-3.62,4.06 -4.04,8.37 -1.19,12.15c0.24,0.32 0.61,0.53 1,0.57c0.05,0.01 0.1,0.01 0.16,0.01c0.27,0 0.53,-0.07 0.76,-0.21c-0.16,0.29 -0.22,0.62 -0.17,0.95c0.06,0.38 0.28,0.72 0.59,0.95c1.34,0.95 2.76,1.44 4.23,1.44c0.92,0 1.83,-0.19 2.72,-0.57c2.03,-0.87 3.86,-2.7 5.15,-5.17c1.23,-2.34 1.91,-5.12 1.92,-7.83c0.03,-2.81 -0.66,-5.51 -1.93,-7.59c-0.26,-0.45 -0.73,-0.71 -1.24,-0.71l0,0z" class="st2"/>
     </g>
    </g>
    <g id="XMLID_00000062892560803972712070000005671947409781814438_">
     <g id="XMLID_00000089573722697564421490000004025604040255010197_">
      <path id="svg_50" fill="#FDB740" d="m216.77803,55.29496c-1.31,0 -2.59,-0.44 -3.81,-1.3c-0.16,-0.11 -0.26,-0.28 -0.3,-0.48s0.02,-0.39 0.13,-0.54c0.02,-0.02 1.73,-2.39 3.19,-4.92c-1.98,2.09 -4.07,3.87 -4.16,3.95c-0.13,0.11 -0.3,0.17 -0.47,0.17c-0.03,0 -0.05,0 -0.08,0c-0.2,-0.02 -0.38,-0.12 -0.5,-0.28c-2.62,-3.47 -2.22,-7.45 1.15,-11.22c1.37,-1.53 3.14,-2.9 5.13,-3.96c2.19,-1.16 4.32,-1.77 6.31,-1.81c0,0 0.01,0 0.01,0c0.25,0 0.49,0.13 0.62,0.35c1.2,1.97 1.85,4.53 1.83,7.21c-0.01,2.59 -0.67,5.26 -1.84,7.5c-1.21,2.31 -2.91,4.03 -4.79,4.83c-0.78,0.32 -1.6,0.5 -2.42,0.5l0,0z" class="st3"/>
      <path id="svg_51" fill="#002C4C" d="m223.39803,35.61496c1.16,1.9 1.74,4.32 1.72,6.82c-0.01,2.5 -0.65,5.06 -1.76,7.17c-1.1,2.11 -2.68,3.75 -4.43,4.5c-0.69,0.3 -1.41,0.46 -2.14,0.46c-1.12,0 -2.26,-0.37 -3.38,-1.17c0,0 1.79,-2.47 3.31,-5.12c1.55,-2.63 2.82,-5.39 2.82,-5.39s-1.85,2.36 -3.9,4.49c-2.03,2.16 -4.26,4.06 -4.26,4.06c-2.78,-3.67 -1.52,-7.35 1.11,-10.3c1.33,-1.48 3.05,-2.8 4.93,-3.81c1.87,-0.99 3.93,-1.67 5.98,-1.71m0,-1.45c-0.01,0 -0.02,0 -0.03,0c-2.11,0.04 -4.35,0.67 -6.64,1.89c-2.07,1.11 -3.91,2.53 -5.33,4.12c-3.62,4.06 -4.04,8.37 -1.19,12.15c0.24,0.32 0.61,0.53 1,0.57c0.05,0.01 0.1,0.01 0.16,0.01c0.27,0 0.53,-0.07 0.76,-0.21c-0.16,0.29 -0.22,0.62 -0.17,0.95c0.06,0.38 0.28,0.72 0.59,0.95c1.34,0.95 2.76,1.44 4.23,1.44c0.92,0 1.83,-0.19 2.72,-0.57c2.03,-0.87 3.86,-2.7 5.15,-5.17c1.23,-2.34 1.91,-5.12 1.92,-7.83c0.03,-2.81 -0.66,-5.51 -1.93,-7.59c-0.27,-0.45 -0.74,-0.71 -1.24,-0.71l0,0z" class="st2"/>
     </g>
    </g>
    <g id="XMLID_00000106105767070058393020000010044921055109093534_">
     <g id="XMLID_00000065048537287637222390000001725036422755441547_">
      <path id="svg_52" fill="#FDB740" d="m173.90803,65.53496c-1.05,0 -2.11,-0.28 -3.15,-0.83c-0.17,-0.09 -0.3,-0.25 -0.36,-0.43c-0.06,-0.19 -0.04,-0.39 0.05,-0.56c0.01,-0.03 1.39,-2.61 2.49,-5.31c-1.68,2.34 -3.5,4.39 -3.58,4.48c-0.13,0.15 -0.32,0.24 -0.52,0.24c-0.01,0 -0.01,0 -0.02,0c-0.19,0 -0.38,-0.08 -0.52,-0.21c-3.07,-3.08 -3.21,-7.08 -0.39,-11.27c1.15,-1.7 2.72,-3.3 4.54,-4.63c2.01,-1.45 4.03,-2.34 6.01,-2.65c0.04,-0.01 0.07,-0.01 0.11,-0.01c0.22,0 0.42,0.1 0.56,0.27c1.46,1.79 2.45,4.23 2.79,6.89c0.34,2.57 0.05,5.3 -0.8,7.68c-0.88,2.46 -2.33,4.39 -4.09,5.44c-0.97,0.6 -2.02,0.9 -3.12,0.9c0,0 0,0 0,0z" class="st3"/>
      <path id="svg_53" fill="#002C4C" d="m178.57803,45.09496c1.41,1.72 2.32,4.04 2.63,6.52c0.33,2.48 0.04,5.1 -0.77,7.34c-0.8,2.24 -2.14,4.08 -3.78,5.06c-0.85,0.51 -1.78,0.79 -2.76,0.79c-0.9,0 -1.85,-0.24 -2.82,-0.74c0,0 1.44,-2.69 2.58,-5.52c1.17,-2.81 2.06,-5.73 2.06,-5.73s-1.51,2.59 -3.25,4.98c-1.72,2.41 -3.66,4.6 -3.66,4.6c-3.25,-3.26 -2.51,-7.07 -0.3,-10.35c1.11,-1.65 2.64,-3.19 4.36,-4.44c1.74,-1.24 3.69,-2.2 5.71,-2.51m0,-1.46c-0.07,0 -0.15,0.01 -0.22,0.02c-2.09,0.32 -4.22,1.26 -6.32,2.78c-1.89,1.38 -3.52,3.04 -4.72,4.81c-3.04,4.51 -2.87,8.84 0.48,12.2c0.27,0.27 0.64,0.43 1.03,0.43c0.01,0 0.03,0 0.04,0c0.32,-0.01 0.63,-0.13 0.88,-0.33c-0.12,0.31 -0.13,0.64 -0.04,0.96c0.11,0.37 0.37,0.68 0.72,0.86c1.15,0.6 2.33,0.91 3.49,0.91c1.23,0 2.41,-0.34 3.51,-1c1.89,-1.14 3.45,-3.2 4.39,-5.82c0.9,-2.49 1.19,-5.34 0.84,-8.02c-0.36,-2.79 -1.4,-5.36 -2.95,-7.25c-0.29,-0.36 -0.7,-0.55 -1.13,-0.55l0,0z" class="st2"/>
     </g>
    </g>
    <g id="XMLID_00000060714239594002869010000012242480197925556117_">
     <g id="XMLID_00000109009423128030509680000010246463592034119357_">
      <path id="svg_54" fill="#FDB740" d="m202.99803,37.36496c-1.05,0 -2.11,-0.28 -3.15,-0.83c-0.17,-0.09 -0.3,-0.25 -0.36,-0.43c-0.06,-0.19 -0.04,-0.39 0.05,-0.56c0.01,-0.03 1.39,-2.61 2.49,-5.31c-1.68,2.34 -3.5,4.39 -3.58,4.48c-0.13,0.15 -0.32,0.24 -0.52,0.24c-0.01,0 -0.01,0 -0.02,0c-0.19,0 -0.38,-0.08 -0.52,-0.21c-3.07,-3.08 -3.21,-7.08 -0.39,-11.27c1.15,-1.7 2.72,-3.3 4.54,-4.62c2.01,-1.45 4.04,-2.34 6.01,-2.65c0.04,-0.01 0.07,-0.01 0.11,-0.01c0.22,0 0.42,0.1 0.56,0.27c1.46,1.79 2.45,4.23 2.79,6.89c0.34,2.57 0.05,5.3 -0.8,7.68c-0.88,2.46 -2.33,4.39 -4.09,5.44c-0.97,0.59 -2.02,0.89 -3.12,0.89l0,0z" class="st3"/>
      <path id="svg_55" fill="#002C4C" d="m207.66803,16.91496c1.41,1.72 2.32,4.04 2.63,6.52c0.33,2.48 0.04,5.1 -0.77,7.34c-0.8,2.24 -2.14,4.08 -3.78,5.06c-0.85,0.51 -1.78,0.79 -2.76,0.79c-0.9,0 -1.85,-0.24 -2.82,-0.74c0,0 1.44,-2.69 2.58,-5.52c1.17,-2.81 2.06,-5.73 2.06,-5.73s-1.51,2.59 -3.25,4.98c-1.72,2.41 -3.66,4.6 -3.66,4.6c-3.25,-3.26 -2.51,-7.07 -0.3,-10.35c1.11,-1.65 2.64,-3.19 4.36,-4.44c1.74,-1.23 3.69,-2.19 5.71,-2.51m0,-1.45c-0.07,0 -0.15,0.01 -0.22,0.02c-2.09,0.32 -4.22,1.26 -6.32,2.78c-1.9,1.38 -3.52,3.04 -4.72,4.81c-3.04,4.51 -2.86,8.84 0.48,12.2c0.27,0.27 0.64,0.43 1.03,0.43c0.01,0 0.03,0 0.04,0c0.32,-0.01 0.63,-0.13 0.88,-0.33c-0.12,0.31 -0.13,0.64 -0.04,0.96c0.11,0.37 0.37,0.68 0.72,0.86c1.15,0.6 2.33,0.91 3.49,0.91c1.23,0 2.41,-0.34 3.51,-1c1.89,-1.14 3.45,-3.2 4.39,-5.82c0.9,-2.49 1.19,-5.34 0.84,-8.02c-0.36,-2.79 -1.4,-5.36 -2.95,-7.25c-0.29,-0.36 -0.7,-0.55 -1.13,-0.55l0,0z" class="st2"/>
     </g>
    </g>
    <g id="XMLID_00000061445018446188079260000000743455695539158710_">
     <g id="XMLID_00000171686956034980094900000012769641946945549208_">
      <path id="svg_56" fill="#FDB740" d="m163.10803,46.43496c-1.05,0 -2.11,-0.28 -3.15,-0.83c-0.17,-0.09 -0.3,-0.25 -0.36,-0.43c-0.06,-0.19 -0.04,-0.39 0.05,-0.56c0.01,-0.03 1.39,-2.61 2.49,-5.31c-1.68,2.34 -3.5,4.39 -3.58,4.48c-0.13,0.15 -0.32,0.24 -0.52,0.24c-0.01,0 -0.01,0 -0.02,0c-0.19,0 -0.38,-0.08 -0.52,-0.21c-3.07,-3.08 -3.21,-7.08 -0.39,-11.27c1.15,-1.7 2.72,-3.3 4.54,-4.62c2.01,-1.45 4.04,-2.34 6.01,-2.65c0.04,-0.01 0.07,-0.01 0.11,-0.01c0.22,0 0.42,0.1 0.56,0.27c1.46,1.79 2.45,4.23 2.79,6.89c0.34,2.57 0.05,5.3 -0.8,7.68c-0.88,2.46 -2.33,4.39 -4.09,5.44c-0.97,0.59 -2.02,0.89 -3.12,0.89l0,0z" class="st3"/>
      <path id="svg_57" fill="#002C4C" d="m167.77803,25.98496c1.41,1.72 2.32,4.04 2.63,6.52c0.33,2.48 0.04,5.1 -0.77,7.34c-0.8,2.24 -2.14,4.08 -3.78,5.06c-0.85,0.51 -1.78,0.79 -2.76,0.79c-0.9,0 -1.85,-0.24 -2.82,-0.74c0,0 1.44,-2.69 2.58,-5.52c1.17,-2.81 2.06,-5.73 2.06,-5.73s-1.51,2.59 -3.25,4.98c-1.72,2.41 -3.66,4.6 -3.66,4.6c-3.25,-3.26 -2.51,-7.07 -0.3,-10.35c1.11,-1.65 2.64,-3.19 4.36,-4.44c1.74,-1.24 3.69,-2.2 5.71,-2.51m0,-1.45c-0.07,0 -0.15,0.01 -0.22,0.02c-2.09,0.32 -4.22,1.26 -6.32,2.78c-1.9,1.38 -3.52,3.04 -4.72,4.81c-3.04,4.51 -2.86,8.84 0.48,12.2c0.27,0.27 0.64,0.43 1.03,0.43c0.01,0 0.03,0 0.04,0c0.32,-0.01 0.63,-0.13 0.88,-0.33c-0.12,0.31 -0.13,0.64 -0.04,0.96c0.11,0.37 0.37,0.68 0.72,0.86c1.15,0.6 2.33,0.91 3.49,0.91c1.23,0 2.41,-0.34 3.51,-1c1.89,-1.14 3.45,-3.2 4.39,-5.82c0.9,-2.49 1.19,-5.34 0.84,-8.02c-0.36,-2.79 -1.4,-5.36 -2.95,-7.25c-0.28,-0.36 -0.7,-0.55 -1.13,-0.55l0,0z" class="st2"/>
     </g>
    </g>
    <g id="XMLID_00000132059332331482878390000006318628894745778325_">
     <g id="XMLID_00000005257595150030103610000000212792940569723026_">
      <path id="svg_58" fill="#FDB740" d="m204.52803,79.73496c-1.16,0 -2.26,-0.33 -3.28,-0.99c-1.72,-1.1 -3.11,-3.08 -3.92,-5.56c-0.78,-2.4 -0.99,-5.14 -0.57,-7.7c0.42,-2.64 1.49,-5.06 3,-6.8c0.14,-0.16 0.34,-0.25 0.55,-0.25c0.04,0 0.09,0 0.13,0.01c1.97,0.37 3.96,1.32 5.92,2.83c1.78,1.38 3.3,3.03 4.4,4.76c2.69,4.28 2.43,8.27 -0.73,11.26c-0.14,0.13 -0.31,0.2 -0.5,0.2c-0.01,0 -0.03,0 -0.04,0c-0.2,-0.01 -0.39,-0.11 -0.52,-0.26c-0.08,-0.09 -1.83,-2.19 -3.44,-4.59c1.02,2.74 2.32,5.36 2.33,5.39c0.09,0.17 0.1,0.38 0.04,0.56c-0.06,0.18 -0.2,0.33 -0.37,0.42c-1,0.47 -2.01,0.72 -3,0.72z" class="st3"/>
      <path id="svg_59" fill="#002C4C" d="m200.30803,59.15496c2.01,0.38 3.92,1.39 5.61,2.69c1.68,1.31 3.16,2.89 4.23,4.57c2.11,3.35 2.73,7.18 -0.62,10.34c0,0 -1.88,-2.25 -3.52,-4.71c-1.67,-2.44 -3.1,-5.08 -3.1,-5.08s0.8,2.94 1.88,5.79c1.06,2.86 2.41,5.6 2.41,5.6c-0.92,0.45 -1.82,0.66 -2.68,0.66c-1.04,0 -2.01,-0.31 -2.89,-0.88c-1.6,-1.03 -2.88,-2.91 -3.62,-5.18c-0.74,-2.26 -0.94,-4.89 -0.54,-7.36c0.4,-2.47 1.38,-4.77 2.84,-6.44m0,-1.46c-0.42,0 -0.82,0.18 -1.1,0.5c-1.6,1.84 -2.73,4.39 -3.17,7.17c-0.43,2.67 -0.22,5.53 0.6,8.04c0.86,2.64 2.36,4.76 4.22,5.95c1.14,0.73 2.37,1.11 3.67,1.11c1.1,0 2.21,-0.27 3.32,-0.81c0.35,-0.17 0.62,-0.47 0.74,-0.84c0.11,-0.31 0.1,-0.65 -0.01,-0.96c0.24,0.21 0.54,0.33 0.87,0.35c0.03,0 0.06,0 0.09,0c0.37,0 0.73,-0.14 1,-0.4c3.44,-3.25 3.75,-7.57 0.85,-12.17c-1.14,-1.81 -2.72,-3.52 -4.57,-4.95c-2.06,-1.58 -4.16,-2.58 -6.24,-2.97c-0.09,-0.01 -0.18,-0.02 -0.27,-0.02l0,0z" class="st2"/>
     </g>
    </g>
    <g id="XMLID_00000038374566105855996900000002174837834230103698_">
     <g id="XMLID_00000051354166471320639700000017516862318391928226_">
      <path id="svg_60" fill="#FDB740" d="m182.76803,39.25496c-1.16,0 -2.26,-0.33 -3.28,-0.99c-1.72,-1.1 -3.11,-3.08 -3.92,-5.56c-0.78,-2.41 -0.99,-5.14 -0.57,-7.7c0.42,-2.64 1.48,-5.06 3,-6.8c0.14,-0.16 0.34,-0.25 0.55,-0.25c0.04,0 0.09,0 0.13,0.01c1.97,0.37 3.96,1.32 5.92,2.83c1.78,1.38 3.3,3.03 4.4,4.76c2.69,4.28 2.43,8.27 -0.73,11.26c-0.14,0.13 -0.31,0.2 -0.5,0.2c-0.01,0 -0.03,0 -0.04,0c-0.2,-0.01 -0.39,-0.11 -0.52,-0.26c-0.08,-0.09 -1.83,-2.19 -3.44,-4.59c1.02,2.74 2.32,5.36 2.33,5.39c0.09,0.17 0.1,0.38 0.04,0.56c-0.06,0.18 -0.2,0.33 -0.37,0.42c-1,0.47 -2.01,0.72 -3,0.72z" class="st3"/>
      <path id="svg_61" fill="#002C4C" d="m178.54803,18.66496c2.01,0.38 3.92,1.39 5.61,2.69c1.68,1.31 3.16,2.89 4.23,4.57c2.11,3.35 2.73,7.18 -0.62,10.34c0,0 -1.88,-2.25 -3.52,-4.71c-1.67,-2.44 -3.1,-5.08 -3.1,-5.08s0.8,2.94 1.88,5.79c1.06,2.86 2.41,5.6 2.41,5.6c-0.92,0.45 -1.82,0.66 -2.68,0.66c-1.04,0 -2.01,-0.31 -2.89,-0.88c-1.6,-1.03 -2.88,-2.91 -3.62,-5.18c-0.74,-2.26 -0.94,-4.89 -0.54,-7.36c0.4,-2.47 1.38,-4.76 2.84,-6.44m0,-1.45c-0.42,0 -0.82,0.18 -1.1,0.5c-1.6,1.84 -2.73,4.39 -3.17,7.17c-0.43,2.67 -0.22,5.53 0.6,8.04c0.86,2.64 2.36,4.76 4.22,5.95c1.14,0.73 2.37,1.11 3.67,1.11c1.1,0 2.21,-0.27 3.32,-0.81c0.35,-0.17 0.62,-0.47 0.74,-0.84c0.11,-0.31 0.1,-0.65 -0.01,-0.96c0.24,0.21 0.54,0.33 0.87,0.35c0.03,0 0.06,0 0.09,0c0.37,0 0.73,-0.14 1,-0.4c3.44,-3.25 3.75,-7.57 0.85,-12.17c-1.14,-1.81 -2.72,-3.52 -4.57,-4.95c-2.06,-1.58 -4.16,-2.58 -6.24,-2.97c-0.09,-0.01 -0.18,-0.02 -0.27,-0.02l0,0z" class="st2"/>
     </g>
    </g>
    <g id="XMLID_00000043427035529234783810000009764669406487574912_">
     <g id="XMLID_00000065772657918956118250000015019900050718382501_">
      <path id="svg_62" fill="#FDB740" d="m156.38803,24.04496c-1.16,0 -2.26,-0.33 -3.28,-0.99c-1.72,-1.1 -3.11,-3.08 -3.92,-5.56c-0.78,-2.41 -0.99,-5.14 -0.57,-7.7c0.42,-2.64 1.49,-5.06 3,-6.8c0.14,-0.16 0.34,-0.25 0.55,-0.25c0.04,0 0.09,0 0.13,0.01c1.96,0.37 3.96,1.32 5.92,2.83c1.78,1.38 3.3,3.03 4.4,4.76c2.69,4.28 2.43,8.27 -0.73,11.26c-0.14,0.13 -0.31,0.2 -0.5,0.2c-0.01,0 -0.03,0 -0.04,0c-0.2,-0.01 -0.39,-0.11 -0.52,-0.26c-0.08,-0.09 -1.83,-2.19 -3.44,-4.59c1.02,2.74 2.32,5.36 2.33,5.39c0.09,0.17 0.1,0.37 0.04,0.56c-0.06,0.18 -0.2,0.33 -0.37,0.42c-1.01,0.48 -2.02,0.72 -3,0.72z" class="st3"/>
      <path id="svg_63" fill="#002C4C" d="m152.15803,3.46496c2.01,0.38 3.92,1.39 5.61,2.69c1.68,1.31 3.16,2.89 4.23,4.57c2.11,3.35 2.73,7.18 -0.62,10.34c0,0 -1.88,-2.25 -3.52,-4.71c-1.67,-2.44 -3.1,-5.08 -3.1,-5.08s0.8,2.94 1.88,5.79c1.06,2.86 2.41,5.6 2.41,5.6c-0.92,0.45 -1.82,0.66 -2.68,0.66c-1.04,0 -2.01,-0.31 -2.89,-0.88c-1.6,-1.03 -2.88,-2.91 -3.62,-5.18c-0.74,-2.26 -0.94,-4.89 -0.54,-7.36c0.41,-2.47 1.39,-4.76 2.84,-6.44m0,-1.46c-0.42,0 -0.82,0.18 -1.1,0.5c-1.6,1.84 -2.73,4.39 -3.17,7.17c-0.43,2.67 -0.22,5.53 0.6,8.04c0.86,2.64 2.36,4.76 4.22,5.95c1.14,0.73 2.37,1.11 3.67,1.11c1.1,0 2.21,-0.27 3.32,-0.81c0.35,-0.17 0.62,-0.47 0.74,-0.84c0.11,-0.31 0.1,-0.65 -0.01,-0.96c0.24,0.21 0.54,0.33 0.87,0.35c0.03,0 0.06,0 0.09,0c0.37,0 0.73,-0.14 1,-0.4c3.44,-3.25 3.75,-7.57 0.85,-12.17c-1.14,-1.81 -2.72,-3.52 -4.57,-4.95c-2.06,-1.58 -4.16,-2.58 -6.24,-2.97c-0.09,-0.01 -0.18,-0.02 -0.27,-0.02l0,0z" class="st2"/>
     </g>
    </g>
    <g id="XMLID_00000104708087791629325200000017838787307599994756_">
     <g id="XMLID_00000089572265719384923820000010720006634979437994_">
      <path id="svg_64" fill="#FDB740" d="m194.76803,154.49496c-1.16,0 -2.26,-0.33 -3.28,-0.99c-1.72,-1.1 -3.11,-3.08 -3.92,-5.56c-0.78,-2.41 -0.99,-5.14 -0.57,-7.7c0.42,-2.64 1.49,-5.06 3,-6.8c0.14,-0.16 0.34,-0.25 0.55,-0.25c0.04,0 0.09,0 0.13,0.01c1.97,0.37 3.96,1.32 5.92,2.83c1.78,1.38 3.3,3.03 4.4,4.76c2.69,4.28 2.43,8.27 -0.73,11.26c-0.14,0.13 -0.31,0.2 -0.5,0.2c-0.01,0 -0.03,0 -0.04,0c-0.2,-0.01 -0.39,-0.11 -0.52,-0.26c-0.08,-0.09 -1.83,-2.19 -3.44,-4.58c1.02,2.74 2.32,5.36 2.33,5.39c0.09,0.17 0.1,0.38 0.04,0.56c-0.06,0.18 -0.2,0.33 -0.37,0.42c-1,0.46 -2.01,0.71 -3,0.71z" class="st3"/>
      <path id="svg_65" fill="#002C4C" d="m190.54803,133.91496c2.01,0.38 3.92,1.39 5.61,2.69c1.68,1.31 3.16,2.89 4.23,4.57c2.11,3.35 2.73,7.18 -0.62,10.34c0,0 -1.88,-2.25 -3.52,-4.71c-1.67,-2.44 -3.1,-5.08 -3.1,-5.08s0.8,2.94 1.88,5.79c1.06,2.86 2.41,5.6 2.41,5.6c-0.92,0.45 -1.82,0.66 -2.68,0.66c-1.04,0 -2.01,-0.31 -2.89,-0.88c-1.6,-1.03 -2.88,-2.91 -3.62,-5.18c-0.74,-2.26 -0.94,-4.89 -0.54,-7.36c0.4,-2.47 1.38,-4.77 2.84,-6.44m0,-1.46c-0.42,0 -0.82,0.18 -1.1,0.5c-1.6,1.84 -2.73,4.39 -3.17,7.17c-0.43,2.67 -0.22,5.53 0.6,8.04c0.86,2.64 2.36,4.76 4.22,5.95c1.14,0.73 2.37,1.11 3.67,1.11c1.1,0 2.21,-0.27 3.32,-0.81c0.35,-0.17 0.62,-0.47 0.74,-0.84c0.11,-0.31 0.1,-0.65 -0.01,-0.96c0.24,0.21 0.54,0.33 0.87,0.35c0.03,0 0.06,0 0.09,0c0.37,0 0.73,-0.14 1,-0.4c3.44,-3.25 3.75,-7.57 0.85,-12.17c-1.14,-1.81 -2.72,-3.52 -4.57,-4.95c-2.06,-1.58 -4.16,-2.58 -6.24,-2.97c-0.09,-0.01 -0.18,-0.02 -0.27,-0.02l0,0z" class="st2"/>
     </g>
    </g>
    <g id="XMLID_00000068650851507250413800000015675621799983089798_">
     <g id="XMLID_00000003789699228102574140000008857688578725192348_">
      <path id="svg_66" fill="#FDB740" d="m223.50803,78.15496c-2.04,0 -3.76,-0.83 -4.97,-2.41c-1.24,-1.62 -1.89,-3.95 -1.81,-6.56c0.08,-2.53 0.81,-5.17 2.07,-7.44c1.29,-2.35 3.11,-4.26 5.12,-5.39c0.11,-0.06 0.23,-0.09 0.36,-0.09c0.13,0 0.25,0.03 0.37,0.1c1.73,1.01 3.28,2.58 4.62,4.66c1.21,1.9 2.08,3.97 2.53,5.97c1.09,4.93 -0.51,8.61 -4.5,10.35c-0.09,0.04 -0.19,0.06 -0.29,0.06c-0.1,0 -0.19,-0.02 -0.29,-0.06c-0.18,-0.08 -0.33,-0.23 -0.4,-0.42c-0.04,-0.11 -0.98,-2.68 -1.69,-5.48c0.04,2.93 0.37,5.83 0.37,5.86c0.02,0.19 -0.03,0.39 -0.15,0.54s-0.3,0.25 -0.49,0.27c-0.28,0.02 -0.57,0.04 -0.85,0.04z" class="st3"/>
      <path id="svg_67" fill="#002C4C" d="m224.28803,56.98496c1.77,1.03 3.22,2.64 4.37,4.43c1.14,1.8 2,3.79 2.43,5.73c0.85,3.86 0.14,7.68 -4.08,9.52c0,0 -1.01,-2.75 -1.72,-5.63c-0.74,-2.86 -1.2,-5.83 -1.2,-5.83s-0.24,3.04 -0.18,6.08c0.03,3.05 0.38,6.08 0.38,6.08c-0.27,0.03 -0.53,0.04 -0.78,0.04c-1.89,0 -3.37,-0.79 -4.39,-2.13c-1.16,-1.51 -1.73,-3.72 -1.66,-6.1c0.07,-2.38 0.76,-4.92 1.98,-7.11c1.21,-2.17 2.91,-4 4.85,-5.08m0,-1.46c-0.24,0 -0.49,0.06 -0.71,0.19c-2.13,1.19 -4.05,3.21 -5.41,5.67c-1.31,2.36 -2.08,5.12 -2.16,7.77c-0.08,2.78 0.61,5.27 1.96,7.03c1.35,1.76 3.27,2.7 5.54,2.7c0.3,0 0.62,-0.02 0.93,-0.05c0.39,-0.04 0.74,-0.24 0.98,-0.54c0.21,-0.26 0.32,-0.58 0.32,-0.91c0.16,0.28 0.4,0.5 0.7,0.62c0.18,0.08 0.38,0.12 0.57,0.12c0.2,0 0.4,-0.04 0.58,-0.12c4.34,-1.89 6.09,-5.86 4.92,-11.17c-0.46,-2.08 -1.37,-4.23 -2.62,-6.2c-1.41,-2.19 -3.04,-3.84 -4.87,-4.91c-0.23,-0.13 -0.48,-0.2 -0.73,-0.2l0,0z" class="st2"/>
     </g>
    </g>
    <g id="XMLID_00000163052959388301828310000000665916015665883055_">
     <g id="XMLID_00000058549872512627090860000000586791467642043306_">
      <path id="svg_68" fill="#FDB740" d="m243.39803,236.10496c-2.47,0 -5.01,-0.57 -7.16,-1.62c-2.35,-1.14 -4.12,-2.79 -4.98,-4.64c-0.96,-2.06 -0.76,-4.23 0.6,-6.26c0.11,-0.16 0.28,-0.27 0.47,-0.31c0.05,-0.01 0.09,-0.01 0.14,-0.01c0.14,0 0.29,0.04 0.41,0.13c0.02,0.02 2.45,1.66 5.02,3.04c-2.15,-1.92 -4,-3.95 -4.08,-4.04c-0.13,-0.15 -0.2,-0.35 -0.19,-0.55c0.02,-0.2 0.11,-0.38 0.27,-0.51c1.53,-1.24 3.19,-1.86 4.92,-1.86c2.09,0 4.22,0.9 6.33,2.67c1.57,1.32 2.99,3.05 4.12,5c1.23,2.16 1.9,4.26 2,6.26c0.01,0.26 -0.11,0.5 -0.33,0.64c-1.93,1.26 -4.47,1.99 -7.15,2.05l-0.39,0.01z" class="st3"/>
      <path id="svg_69" fill="#002C4C" d="m238.82803,220.20496c2.08,0 4.09,1.01 5.86,2.5c1.52,1.28 2.89,2.96 3.96,4.81c1.06,1.85 1.8,3.89 1.9,5.93c-1.86,1.22 -4.27,1.88 -6.77,1.93c-0.13,0 -0.25,0 -0.38,0c-2.38,0 -4.8,-0.56 -6.84,-1.54c-2.14,-1.04 -3.83,-2.56 -4.64,-4.29c-0.81,-1.73 -0.72,-3.66 0.54,-5.55c0,0 2.53,1.72 5.22,3.15c2.67,1.46 5.48,2.65 5.48,2.65s-2.42,-1.77 -4.61,-3.76c-2.22,-1.96 -4.19,-4.13 -4.19,-4.13c1.49,-1.19 2.99,-1.7 4.47,-1.7m0,-1.45c-1.9,0 -3.71,0.68 -5.38,2.02c-0.31,0.25 -0.51,0.62 -0.54,1.02c-0.02,0.32 0.06,0.64 0.23,0.91c-0.21,-0.11 -0.44,-0.17 -0.67,-0.17c-0.09,0 -0.19,0.01 -0.28,0.03c-0.38,0.07 -0.72,0.3 -0.93,0.62c-1.48,2.22 -1.71,4.69 -0.65,6.97c0.93,2 2.82,3.77 5.32,4.99c2.25,1.09 4.9,1.69 7.47,1.69c0.14,0 0.28,0 0.42,-0.01c2.81,-0.06 5.48,-0.83 7.53,-2.17c0.43,-0.28 0.68,-0.77 0.66,-1.29c-0.1,-2.11 -0.8,-4.33 -2.09,-6.58c-1.17,-2.03 -2.65,-3.83 -4.28,-5.2c-2.26,-1.88 -4.55,-2.83 -6.81,-2.83l0,0z" class="st2"/>
     </g>
    </g>
    <g id="XMLID_00000106112647125415155100000002024530943668493717_">
     <g id="XMLID_00000120533972608224149050000004596455470388484501_">
      <path id="svg_70" fill="#FDB740" d="m213.17803,225.93496c-2.26,0 -4.5,-0.45 -6.49,-1.31c-2.4,-1.03 -4.24,-2.6 -5.18,-4.41c-1.06,-2.02 -0.95,-4.19 0.32,-6.28c0.1,-0.17 0.26,-0.28 0.45,-0.33c0.06,-0.01 0.11,-0.02 0.17,-0.02c0.13,0 0.27,0.04 0.38,0.11c0.02,0.02 2.52,1.54 5.15,2.81c-2.23,-1.82 -4.17,-3.76 -4.25,-3.84c-0.14,-0.14 -0.22,-0.34 -0.21,-0.54c0.01,-0.2 0.1,-0.39 0.25,-0.52c1.57,-1.39 3.31,-2.09 5.16,-2.09c1.99,0 4.05,0.8 6.12,2.39c1.63,1.25 3.13,2.91 4.34,4.81c1.33,2.1 2.09,4.17 2.28,6.16c0.02,0.26 -0.09,0.51 -0.3,0.66c-1.87,1.35 -4.38,2.19 -7.05,2.37c-0.38,0.01 -0.76,0.03 -1.14,0.03z" class="st3"/>
      <path id="svg_71" fill="#002C4C" d="m208.91803,210.23496c1.98,0 3.92,0.9 5.68,2.24c1.58,1.21 3.02,2.83 4.17,4.63c1.14,1.8 1.98,3.8 2.17,5.84c-1.8,1.3 -4.18,2.07 -6.67,2.23c-0.36,0.03 -0.72,0.04 -1.08,0.04c-2.15,0 -4.33,-0.44 -6.2,-1.25c-2.19,-0.94 -3.95,-2.39 -4.82,-4.08c-0.89,-1.69 -0.88,-3.62 0.29,-5.56c0,0 2.6,1.6 5.35,2.91c2.74,1.34 5.59,2.41 5.59,2.41s-2.5,-1.66 -4.77,-3.55c-2.3,-1.86 -4.37,-3.94 -4.37,-3.94c1.51,-1.36 3.09,-1.92 4.66,-1.92m0,-1.45c-2.03,0 -3.93,0.76 -5.64,2.27c-0.3,0.27 -0.48,0.64 -0.49,1.04c-0.01,0.32 0.09,0.64 0.27,0.9c-0.19,-0.09 -0.4,-0.14 -0.61,-0.14c-0.11,0 -0.23,0.01 -0.34,0.04c-0.38,0.09 -0.7,0.33 -0.9,0.66c-1.38,2.28 -1.5,4.77 -0.34,6.99c1.02,1.96 2.99,3.64 5.54,4.74c2.08,0.89 4.42,1.37 6.78,1.37c0.39,0 0.79,-0.01 1.18,-0.04c2.8,-0.19 5.44,-1.07 7.42,-2.5c0.42,-0.3 0.65,-0.8 0.6,-1.32c-0.2,-2.11 -1,-4.29 -2.39,-6.48c-1.26,-1.98 -2.82,-3.7 -4.51,-5c-2.21,-1.68 -4.42,-2.53 -6.57,-2.53l0,0z" class="st2"/>
     </g>
    </g>
    <g id="XMLID_00000047781467577382052550000008872096888020219043_">
     <g id="XMLID_00000016060704331792366900000016368813057581477567_">
      <path id="svg_72" fill="#FDB740" d="m224.38803,247.69496c-1.73,0 -3.58,-0.37 -5.35,-1.07c-2.41,-0.95 -4.66,-2.52 -6.33,-4.42c-1.72,-1.96 -2.71,-4.17 -2.79,-6.21c-0.09,-2.28 0.94,-4.19 2.98,-5.53c0.12,-0.08 0.26,-0.12 0.4,-0.12c0.05,0 0.1,0 0.15,0.02c0.19,0.04 0.36,0.15 0.46,0.32c0.02,0.03 1.61,2.48 3.44,4.75c-1.23,-2.6 -2.15,-5.19 -2.19,-5.3c-0.07,-0.19 -0.05,-0.4 0.04,-0.58c0.09,-0.18 0.25,-0.31 0.45,-0.37c0.84,-0.24 1.67,-0.36 2.46,-0.36c3.13,0 5.76,1.89 7.6,5.48c0.93,1.83 1.57,3.97 1.85,6.21c0.3,2.46 0.1,4.67 -0.59,6.54c-0.09,0.24 -0.3,0.42 -0.55,0.47c-0.64,0.11 -1.33,0.17 -2.03,0.17l0,0z" class="st3"/>
      <path id="svg_73" fill="#002C4C" d="m218.11803,229.55496c3.21,0 5.47,2.2 6.95,5.08c0.91,1.77 1.51,3.85 1.78,5.97c0.25,2.12 0.15,4.28 -0.55,6.2c-0.62,0.11 -1.25,0.17 -1.91,0.17c-1.66,0 -3.41,-0.36 -5.08,-1.02c-2.33,-0.91 -4.48,-2.43 -6.05,-4.22c-1.57,-1.79 -2.54,-3.85 -2.6,-5.76c-0.07,-1.91 0.76,-3.65 2.65,-4.9c0,0 1.66,2.56 3.58,4.93c1.89,2.39 4.02,4.57 4.02,4.57s-1.54,-2.57 -2.79,-5.25c-1.28,-2.67 -2.26,-5.43 -2.26,-5.43c0.8,-0.24 1.55,-0.34 2.26,-0.34m0,-1.46c0,0 0,0 0,0c-0.86,0 -1.75,0.13 -2.66,0.39c-0.39,0.11 -0.71,0.38 -0.89,0.73c-0.15,0.29 -0.2,0.61 -0.14,0.93c-0.21,-0.25 -0.5,-0.43 -0.82,-0.5c-0.1,-0.02 -0.2,-0.03 -0.3,-0.03c-0.28,0 -0.56,0.08 -0.8,0.24c-2.23,1.47 -3.4,3.66 -3.31,6.17c0.08,2.21 1.13,4.57 2.97,6.66c1.74,1.99 4.09,3.63 6.62,4.62c1.84,0.73 3.78,1.12 5.61,1.12c0.74,0 1.47,-0.06 2.17,-0.19c0.51,-0.09 0.93,-0.45 1.11,-0.93c0.73,-1.99 0.94,-4.3 0.63,-6.88c-0.29,-2.33 -0.96,-4.56 -1.93,-6.46c-1.98,-3.84 -4.84,-5.87 -8.26,-5.87l0,0l0,0z" class="st2"/>
     </g>
    </g>
    <g id="XMLID_00000084518143231439464510000000821051223226756786_">
     <g id="XMLID_00000108307489753985186380000004457668806317198493_">
      <path id="svg_74" fill="#FDB740" d="m226.18803,220.27496c-0.14,0 -0.28,-0.04 -0.4,-0.12c-1.92,-1.28 -3.58,-3.33 -4.68,-5.78c-1.07,-2.36 -1.6,-5.05 -1.47,-7.58c0.13,-2.61 0.95,-4.88 2.32,-6.4c1.2,-1.33 2.78,-2.03 4.57,-2.03c0.46,0 0.94,0.05 1.42,0.14c0.19,0.04 0.36,0.15 0.47,0.31c0.11,0.16 0.15,0.36 0.11,0.55c-0.01,0.03 -0.57,2.9 -0.83,5.81c0.92,-2.73 2.07,-5.22 2.12,-5.33c0.08,-0.18 0.24,-0.32 0.43,-0.39c0.08,-0.03 0.15,-0.04 0.23,-0.04c0.12,0 0.24,0.03 0.34,0.09c3.84,2.05 5.14,5.84 3.66,10.67c-0.6,1.96 -1.64,3.95 -2.99,5.75c-1.5,1.98 -3.18,3.42 -4.98,4.29c-0.1,0.04 -0.21,0.06 -0.32,0.06z" class="st3"/>
      <path id="svg_75" fill="#002C4C" d="m226.52803,199.09496c0.41,0 0.84,0.04 1.28,0.12c0,0 -0.59,3 -0.86,6.03c-0.3,3.03 -0.3,6.08 -0.3,6.08s0.69,-2.92 1.65,-5.71c0.94,-2.81 2.16,-5.47 2.16,-5.47c4.06,2.17 4.46,6.03 3.31,9.81c-0.58,1.9 -1.59,3.82 -2.88,5.52c-1.29,1.7 -2.87,3.18 -4.71,4.07c-1.85,-1.23 -3.39,-3.19 -4.42,-5.47c-1.04,-2.28 -1.53,-4.87 -1.41,-7.25c0.12,-2.38 0.86,-4.53 2.14,-5.95c1.03,-1.12 2.39,-1.78 4.04,-1.78m0,-1.46c-2.01,0 -3.78,0.79 -5.11,2.28c-1.48,1.64 -2.37,4.07 -2.51,6.85c-0.13,2.64 0.41,5.45 1.54,7.92c1.15,2.56 2.91,4.72 4.94,6.08c0.24,0.16 0.53,0.25 0.81,0.25c0.22,0 0.43,-0.05 0.63,-0.14c1.9,-0.92 3.67,-2.43 5.24,-4.5c1.41,-1.87 2.48,-3.94 3.11,-5.98c1.59,-5.2 0.16,-9.3 -4.01,-11.53c-0.21,-0.11 -0.45,-0.17 -0.69,-0.17c-0.16,0 -0.31,0.03 -0.46,0.08c-0.31,0.1 -0.57,0.3 -0.74,0.57c0.03,-0.33 -0.06,-0.66 -0.25,-0.93c-0.22,-0.32 -0.55,-0.54 -0.93,-0.61c-0.54,-0.12 -1.07,-0.17 -1.57,-0.17l0,0z" class="st2"/>
     </g>
    </g>
    <g id="XMLID_00000060028787906816451310000000402245890976615812_">
     <g id="XMLID_00000061472499743784868650000009012201227433719208_">
      <path id="svg_76" fill="#FDB740" d="m201.22803,248.09496c-2,0 -4.12,-0.52 -6.13,-1.49c-2.34,-1.12 -4.47,-2.85 -5.99,-4.87c-1.58,-2.08 -2.4,-4.35 -2.32,-6.4c0.08,-2.28 1.25,-4.11 3.38,-5.3c0.11,-0.06 0.23,-0.09 0.35,-0.09c0.07,0 0.13,0.01 0.2,0.03c0.19,0.05 0.34,0.18 0.44,0.35c0.01,0.03 1.42,2.59 3.09,4.99c-1.04,-2.69 -1.76,-5.33 -1.79,-5.45c-0.05,-0.19 -0.02,-0.4 0.08,-0.57c0.1,-0.17 0.28,-0.29 0.47,-0.33c0.65,-0.14 1.28,-0.2 1.89,-0.2c3.41,0 6.09,2.09 7.76,6.04c0.8,1.89 1.28,4.08 1.39,6.33c0.11,2.48 -0.25,4.66 -1.07,6.48c-0.11,0.24 -0.33,0.4 -0.59,0.42c-0.38,0.04 -0.76,0.06 -1.16,0.06c0,0 0,0 0,0z" class="st3"/>
      <path id="svg_77" fill="#002C4C" d="m194.89803,229.48496c3.5,0 5.76,2.45 7.09,5.6c0.77,1.83 1.23,3.95 1.33,6.08c0.1,2.13 -0.16,4.28 -1,6.14c-0.36,0.04 -0.72,0.06 -1.09,0.06c-1.9,0 -3.93,-0.5 -5.81,-1.42c-2.26,-1.08 -4.29,-2.75 -5.73,-4.65c-1.44,-1.9 -2.25,-4.03 -2.18,-5.93c0.07,-1.91 1.02,-3.58 3.01,-4.69c0,0 1.47,2.68 3.21,5.18c1.71,2.52 3.67,4.86 3.67,4.86s-1.35,-2.68 -2.4,-5.44c-1.08,-2.76 -1.85,-5.59 -1.85,-5.59c0.62,-0.14 1.2,-0.2 1.75,-0.2m0,-1.45c0,0 0,0 0,0c-0.66,0 -1.34,0.07 -2.04,0.22c-0.39,0.08 -0.73,0.32 -0.94,0.66c-0.17,0.27 -0.24,0.6 -0.21,0.91c-0.19,-0.27 -0.47,-0.46 -0.79,-0.56c-0.13,-0.04 -0.27,-0.06 -0.4,-0.06c-0.25,0 -0.49,0.06 -0.71,0.18c-2.33,1.3 -3.66,3.4 -3.75,5.91c-0.08,2.21 0.79,4.64 2.47,6.86c1.59,2.11 3.82,3.92 6.26,5.09c2.11,1.02 4.34,1.56 6.44,1.56c0.42,0 0.84,-0.02 1.25,-0.07c0.51,-0.06 0.96,-0.38 1.17,-0.85c0.87,-1.93 1.25,-4.22 1.13,-6.81c-0.12,-2.34 -0.62,-4.61 -1.45,-6.58c-1.77,-4.16 -4.76,-6.46 -8.43,-6.46l0,0z" class="st2"/>
     </g>
    </g>
    <g id="XMLID_00000138568421496911551390000013124727799107458971_">
     <g id="XMLID_00000140011448153638242260000008493091320674451853_">
      <path id="svg_78" fill="#FDB740" d="m176.43803,246.22496c-1.91,0 -3.95,-0.47 -5.88,-1.35c-2.36,-1.07 -4.53,-2.75 -6.1,-4.73c-1.62,-2.04 -2.5,-4.3 -2.47,-6.34c0.03,-2.28 1.15,-4.14 3.25,-5.38c0.11,-0.07 0.24,-0.1 0.37,-0.1c0.06,0 0.12,0.01 0.18,0.02c0.19,0.05 0.35,0.17 0.45,0.34c0.01,0.03 1.49,2.55 3.21,4.92c-1.1,-2.66 -1.89,-5.29 -1.92,-5.4c-0.06,-0.19 -0.03,-0.4 0.07,-0.57c0.1,-0.17 0.27,-0.3 0.46,-0.34c0.71,-0.17 1.41,-0.25 2.08,-0.25c3.31,0 5.98,2.03 7.71,5.86c0.84,1.87 1.37,4.05 1.54,6.29c0.17,2.48 -0.13,4.66 -0.91,6.5c-0.1,0.24 -0.32,0.4 -0.57,0.44c-0.49,0.06 -0.98,0.09 -1.47,0.09l0,0z" class="st3"/>
      <path id="svg_79" fill="#002C4C" d="m170.11803,227.77496c3.4,0 5.66,2.37 7.05,5.43c0.82,1.82 1.32,3.92 1.48,6.05c0.15,2.13 -0.06,4.28 -0.86,6.17c-0.44,0.06 -0.89,0.09 -1.35,0.09c-1.83,0 -3.76,-0.45 -5.58,-1.28c-2.28,-1.03 -4.36,-2.65 -5.84,-4.52c-1.48,-1.86 -2.34,-3.97 -2.32,-5.88c0.02,-1.91 0.94,-3.61 2.89,-4.76c0,0 1.53,2.64 3.33,5.1c1.77,2.48 3.78,4.77 3.78,4.77s-1.41,-2.65 -2.52,-5.39c-1.15,-2.73 -1.98,-5.54 -1.98,-5.54c0.68,-0.17 1.32,-0.24 1.92,-0.24m0,-1.46l0,0c-0.72,0 -1.48,0.09 -2.25,0.27c-0.39,0.09 -0.73,0.34 -0.93,0.69c-0.16,0.28 -0.23,0.6 -0.18,0.92c-0.2,-0.26 -0.48,-0.45 -0.8,-0.54c-0.12,-0.03 -0.25,-0.05 -0.37,-0.05c-0.26,0 -0.51,0.07 -0.74,0.2c-2.3,1.36 -3.58,3.49 -3.61,6c-0.03,2.21 0.9,4.62 2.63,6.8c1.64,2.07 3.91,3.83 6.38,4.94c2.03,0.92 4.16,1.41 6.18,1.41c0.52,0 1.04,-0.03 1.54,-0.1c0.51,-0.07 0.95,-0.4 1.15,-0.88c0.82,-1.95 1.15,-4.25 0.97,-6.84c-0.17,-2.34 -0.73,-4.6 -1.6,-6.54c-1.82,-4.05 -4.8,-6.28 -8.37,-6.28l0,0z" class="st2"/>
     </g>
    </g>
    <g id="XMLID_00000110457599148584602700000016277086864062261162_">
     <g id="XMLID_00000052822195851782167920000009373412262434660240_">
      <path id="svg_80" fill="#FDB740" d="m186.47803,224.36496c-1.26,0 -2.49,-0.14 -3.66,-0.41c-2.54,-0.59 -4.63,-1.82 -5.88,-3.44c-1.39,-1.8 -1.67,-3.96 -0.79,-6.24c0.07,-0.18 0.21,-0.33 0.39,-0.4c0.09,-0.04 0.19,-0.06 0.29,-0.06c0.09,0 0.18,0.02 0.27,0.05c0.03,0.01 2.75,1.08 5.57,1.87c-2.52,-1.4 -4.76,-2.98 -4.86,-3.04c-0.16,-0.12 -0.27,-0.29 -0.3,-0.49c-0.03,-0.2 0.03,-0.4 0.15,-0.56c1.62,-2.04 3.66,-3.08 6.05,-3.08c1.6,0 3.31,0.47 5.1,1.4c1.82,0.94 3.59,2.32 5.11,3.98c1.67,1.84 2.79,3.74 3.32,5.67c0.07,0.25 0,0.51 -0.18,0.7c-1.61,1.66 -3.93,2.92 -6.53,3.56c-1.3,0.32 -2.67,0.49 -4.05,0.49c0,0 0,0 0,0z" class="st3"/>
      <path id="svg_81" fill="#002C4C" d="m183.69803,209.29496c1.58,0 3.21,0.51 4.77,1.31c1.77,0.92 3.47,2.26 4.91,3.82c1.44,1.57 2.61,3.4 3.15,5.37c-1.55,1.59 -3.75,2.76 -6.18,3.36c-1.26,0.32 -2.58,0.47 -3.89,0.47c-1.2,0 -2.38,-0.13 -3.49,-0.39c-2.32,-0.54 -4.3,-1.66 -5.46,-3.17c-1.17,-1.51 -1.5,-3.41 -0.69,-5.53c0,0 2.84,1.12 5.78,1.93c2.93,0.84 5.93,1.39 5.93,1.39s-2.75,-1.2 -5.32,-2.66c-2.59,-1.43 -4.99,-3.11 -4.99,-3.11c1.6,-2 3.5,-2.79 5.48,-2.79m0,-1.46c-2.59,0 -4.88,1.16 -6.62,3.35c-0.25,0.31 -0.36,0.72 -0.3,1.11c0.05,0.32 0.2,0.61 0.42,0.83c-0.12,-0.03 -0.25,-0.05 -0.37,-0.05c-0.2,0 -0.4,0.04 -0.58,0.12c-0.36,0.16 -0.63,0.45 -0.77,0.81c-0.96,2.49 -0.64,4.96 0.89,6.94c1.34,1.75 3.58,3.07 6.28,3.7c1.22,0.29 2.51,0.43 3.82,0.43c1.45,0 2.87,-0.17 4.24,-0.52c2.73,-0.67 5.17,-2.01 6.87,-3.76c0.36,-0.37 0.5,-0.9 0.36,-1.4c-0.56,-2.04 -1.73,-4.04 -3.48,-5.96c-1.59,-1.72 -3.43,-3.15 -5.32,-4.14c-1.89,-0.96 -3.72,-1.46 -5.44,-1.46l0,0z" class="st2"/>
     </g>
    </g>
    <g id="XMLID_00000152255888906011315780000013651713009737376404_">
     <g id="XMLID_00000019638070749880533220000007098512909825107643_">
      <path id="svg_82" fill="#FDB740" d="m200.32803,206.46496c-0.89,0 -1.76,-0.07 -2.59,-0.21c-2.58,-0.43 -4.74,-1.51 -6.08,-3.05c-1.51,-1.71 -1.92,-3.84 -1.19,-6.17c0.06,-0.18 0.19,-0.34 0.36,-0.43c0.1,-0.05 0.22,-0.08 0.33,-0.08c0.07,0 0.15,0.01 0.22,0.04c0.03,0.01 2.81,0.9 5.67,1.5c-2.6,-1.24 -4.94,-2.66 -5.05,-2.72c-0.17,-0.1 -0.29,-0.27 -0.33,-0.47s0,-0.4 0.11,-0.57c1.6,-2.31 3.75,-3.48 6.38,-3.48c1.45,0 3.01,0.36 4.65,1.08c1.88,0.83 3.73,2.08 5.36,3.64c1.79,1.72 3.02,3.55 3.68,5.44c0.08,0.24 0.03,0.51 -0.13,0.71c-1.5,1.76 -3.73,3.17 -6.28,3.98c-1.61,0.51 -3.38,0.79 -5.11,0.79l0,0z" class="st3"/>
      <path id="svg_83" fill="#002C4C" d="m198.16803,191.54496c1.43,0 2.91,0.39 4.35,1.02c1.82,0.8 3.61,2.03 5.15,3.5c1.53,1.48 2.82,3.22 3.49,5.15c-1.44,1.69 -3.56,3 -5.95,3.76c-1.57,0.51 -3.25,0.76 -4.89,0.76c-0.84,0 -1.67,-0.07 -2.47,-0.2c-2.35,-0.39 -4.4,-1.38 -5.66,-2.81c-1.26,-1.43 -1.72,-3.31 -1.04,-5.47c0,0 2.91,0.93 5.89,1.55c2.98,0.65 6,1 6,1s-2.82,-1.02 -5.48,-2.31c-2.68,-1.26 -5.18,-2.78 -5.18,-2.78c1.59,-2.28 3.63,-3.17 5.79,-3.17m0,-1.45c-2.84,0 -5.25,1.31 -6.97,3.79c-0.23,0.33 -0.31,0.74 -0.23,1.13c0.07,0.32 0.24,0.6 0.48,0.8c-0.09,-0.02 -0.19,-0.03 -0.28,-0.03c-0.23,0 -0.46,0.05 -0.67,0.16c-0.34,0.18 -0.6,0.49 -0.72,0.86c-0.8,2.55 -0.32,4.99 1.34,6.87c1.46,1.66 3.77,2.83 6.51,3.29c0.87,0.15 1.78,0.22 2.71,0.22c1.8,0 3.65,-0.29 5.33,-0.83c2.68,-0.85 5.03,-2.34 6.61,-4.2c0.33,-0.39 0.44,-0.93 0.27,-1.42c-0.69,-2 -1.99,-3.92 -3.86,-5.72c-1.7,-1.62 -3.62,-2.92 -5.57,-3.78c-1.74,-0.76 -3.4,-1.14 -4.95,-1.14l0,0z" class="st2"/>
     </g>
    </g>
    <g id="XMLID_00000052801713612970904790000015087235491472792977_">
     <g id="XMLID_00000026841754000045658390000012378621834333219499_">
      <path id="svg_84" fill="#FDB740" d="m213.45803,190.69496c-2.61,0 -4.92,-0.71 -6.5,-2c-1.77,-1.44 -2.52,-3.47 -2.19,-5.89c0.03,-0.19 0.13,-0.37 0.28,-0.48c0.13,-0.09 0.28,-0.15 0.44,-0.15c0.04,0 0.07,0 0.11,0.01c0.03,0 2.92,0.42 5.84,0.55c-2.77,-0.79 -5.32,-1.81 -5.43,-1.85c-0.19,-0.07 -0.33,-0.22 -0.41,-0.41s-0.07,-0.4 0.02,-0.58c1.42,-3.01 3.94,-4.61 7.28,-4.61c1,0 2.07,0.14 3.19,0.43c1.99,0.5 4.02,1.44 5.89,2.71c2.05,1.4 3.57,3 4.53,4.76c0.12,0.23 0.12,0.5 -0.02,0.72c-1.19,1.98 -3.16,3.74 -5.54,4.96c-2.3,1.19 -4.96,1.84 -7.49,1.84c0.02,-0.01 0,-0.01 0,-0.01z" class="st3"/>
      <path id="svg_85" fill="#002C4C" d="m212.90803,176.00496c0.98,0 2,0.15 3.02,0.4c1.93,0.49 3.89,1.41 5.66,2.6c1.76,1.21 3.32,2.71 4.3,4.51c-1.14,1.9 -3.02,3.55 -5.25,4.69c-2.22,1.15 -4.78,1.76 -7.16,1.76c0,0 0,0 -0.01,0c0,0 0,0 0,0c-2.38,0 -4.57,-0.63 -6.04,-1.84c-1.48,-1.21 -2.24,-2.98 -1.93,-5.23c0,0 3.02,0.44 6.07,0.56c1.02,0.05 2.04,0.07 2.94,0.07c1.8,0 3.15,-0.07 3.15,-0.07s-2.95,-0.54 -5.79,-1.37c-2.85,-0.8 -5.57,-1.89 -5.57,-1.89c1.43,-3.06 3.89,-4.19 6.61,-4.19m0,-1.46c-3.64,0 -6.39,1.74 -7.94,5.02c-0.17,0.36 -0.19,0.78 -0.04,1.15c0.12,0.3 0.33,0.55 0.6,0.72c-0.01,0 -0.03,0 -0.04,0c-0.31,0 -0.62,0.1 -0.87,0.29c-0.31,0.23 -0.51,0.58 -0.57,0.96c-0.37,2.64 0.5,4.97 2.45,6.56c1.71,1.4 4.18,2.17 6.96,2.17c2.65,0 5.43,-0.68 7.84,-1.92c2.5,-1.28 4.57,-3.14 5.83,-5.23c0.27,-0.44 0.28,-0.99 0.03,-1.45c-1.01,-1.86 -2.61,-3.54 -4.75,-5.01c-1.94,-1.32 -4.05,-2.29 -6.12,-2.81c-1.18,-0.3 -2.32,-0.45 -3.38,-0.45l0,0z" class="st2"/>
     </g>
    </g>
   </g>
  </g>
 </g>
</svg>